<svg width="145" height="144" viewBox="0 0 145 144" fill="none" xmlns="http://www.w3.org/2000/svg">
<path d="M72.6483 114.905C50.8873 113.928 24.6274 106.763 10.9479 88.4418C3.8728 78.9157 0.810931 66.997 2.41849 55.2404C3.49738 47.4846 6.87656 39.7491 13.1056 35.006C18.663 30.7923 25.8488 29.408 32.8311 29.062C41.9449 28.7063 51.0432 30.088 59.6405 33.1332C63.895 34.6396 68.1699 36.5735 72.689 36.5531C77.2082 36.5328 80.9741 34.7211 85.0454 33.3165C93.4041 30.418 102.194 28.9588 111.041 29.0009C119.55 29.0009 128.608 30.7923 134.675 36.7567C138.702 41.053 141.335 46.4677 142.227 52.2887C143.581 59.7852 143.123 67.4967 140.892 74.7805C138.661 82.0643 134.722 88.7094 129.402 94.162C115.743 107.903 91.7427 114.905 72.689 114.905" fill="url(#paint0_linear_1301_618)"/>
<path d="M72.6483 114.905C50.8873 113.928 24.6274 106.763 10.9479 88.4418C3.8728 78.9157 0.810931 66.997 2.41849 55.2404C3.49738 47.4846 6.87656 39.7491 13.1056 35.006C18.663 30.7923 25.8488 29.408 32.8311 29.062C41.9449 28.7063 51.0432 30.088 59.6405 33.1332C63.895 34.6396 68.1699 36.5735 72.689 36.5531C77.2082 36.5328 80.9741 34.7211 85.0454 33.3165C93.4041 30.418 102.194 28.9588 111.041 29.0009C119.55 29.0009 128.608 30.7923 134.675 36.7567C138.702 41.053 141.335 46.4677 142.227 52.2887C143.581 59.7852 143.123 67.4967 140.892 74.7805C138.661 82.0643 134.722 88.7094 129.402 94.162C115.743 107.903 91.7427 114.905 72.689 114.905" stroke="white" stroke-width="3.25704" stroke-linecap="round" stroke-linejoin="round"/>
<path d="M72.5668 98.6211C63.2232 98.3768 51.9457 96.5855 46.1034 91.8628C44.7373 90.9585 43.6636 89.6766 43.013 88.1731C42.3625 86.6695 42.1631 85.0093 42.4392 83.3945C42.7547 82.2469 43.3301 81.1873 44.1208 80.2977C44.9115 79.4081 45.8964 78.7125 46.9991 78.2646C49.698 77.22 52.5738 76.7084 55.4674 76.7583C59.3343 76.6523 63.2006 76.9938 66.9891 77.7761C68.8189 78.2651 70.6954 78.5585 72.5872 78.6514C74.3808 78.5573 76.1607 78.2845 77.9002 77.8372C81.5896 77.071 85.3485 76.6889 89.1166 76.6972C92.6256 76.5223 96.123 77.2218 99.2949 78.7328C100.835 79.6014 101.991 81.0189 102.532 82.7023C103.753 86.509 101.636 90.6414 97.0353 93.4099C91.1523 96.8501 80.7705 98.6211 72.5872 98.6211" stroke="white" stroke-width="3.25704" stroke-linecap="round" stroke-linejoin="round"/>
<path d="M72.5059 65.7241V78.6098" stroke="white" stroke-width="3.25704" stroke-linecap="round" stroke-linejoin="round"/>
<defs>
<linearGradient id="paint0_linear_1301_618" x1="72.4939" y1="125" x2="72.4939" y2="40.8848" gradientUnits="userSpaceOnUse">
<stop stop-color="#FF2488" stop-opacity="0.17"/>
<stop offset="1" stop-color="#FF2488"/>
</linearGradient>
</defs>
</svg>
