<svg width="144" height="144" viewBox="0 0 144 144" fill="none" xmlns="http://www.w3.org/2000/svg">
<path d="M31.8164 26.8857C30.8513 28.6115 30.2026 30.4961 29.9011 32.4503C29.5076 35.7151 29.3157 39.0009 29.3265 42.2893C28.9535 52.4306 26.7962 62.451 26.1611 72.5319C25.5058 82.9555 26.7054 93.6312 32.4515 102.583C37.8257 111.047 45.7981 117.54 55.1738 121.091C68.9645 126.202 84.9426 124.438 97.7454 117.21C101.778 114.912 111.596 109.297 116.324 97.7039C117.905 93.8224 118.766 89.6857 118.865 85.4959C119.157 72.3908 111.617 62.7434 108.713 59.1445C99.9732 48.358 95.3159 51.5939 78.3094 38.2166C64.8515 27.7123 63.4099 24.4461 54.9218 20.7868C46.2522 17.0468 36.1512 19.2242 31.8164 26.8857Z" fill="url(#paint0_linear_1301_616)" stroke="white" stroke-width="2.52022" stroke-miterlimit="10"/>
<path d="M95.1607 80.0448C98.2772 79.8383 100.579 76.2799 100.302 72.0967C100.025 67.9135 97.2737 64.6897 94.1572 64.8962C91.0406 65.1027 88.7388 68.6612 89.0159 72.8443C89.293 77.0275 92.0441 80.2513 95.1607 80.0448Z" fill="white"/>
<path d="M67.2449 88.5377C70.4503 88.3253 72.8075 84.5099 72.5097 80.0156C72.212 75.5213 69.3722 72.0502 66.1667 72.2625C62.9613 72.4748 60.6041 76.2903 60.9019 80.7846C61.1996 85.2788 64.0394 88.75 67.2449 88.5377Z" fill="white"/>
<defs>
<linearGradient id="paint0_linear_1301_616" x1="72.4365" y1="6.3567" x2="72.4365" y2="136.661" gradientUnits="userSpaceOnUse">
<stop stop-color="#FEE139" stop-opacity="0.12"/>
<stop offset="1" stop-color="#FEE139"/>
</linearGradient>
</defs>
</svg>
