<svg width="144" height="144" viewBox="0 0 144 144" fill="none" xmlns="http://www.w3.org/2000/svg">
<path d="M116.725 51.313L92.2113 26.757C91.929 26.4774 91.6209 26.2253 91.291 26.004C91.1341 25.9099 90.9772 25.8053 90.8099 25.7216C90.2661 25.4329 89.6802 25.2317 89.0738 25.1255C88.6712 25.0424 88.2613 25.0003 87.8502 25L31.9507 25.502C30.3773 25.5138 28.8727 26.1495 27.7674 27.2694C27.6419 27.3949 27.506 27.5414 27.3805 27.6878C27.255 27.8342 27.1504 27.9911 27.0458 28.1584C26.3683 29.1354 26.0036 30.2952 26 31.4841V112.797C26 113.584 26.1551 114.362 26.4564 115.089C26.7576 115.815 27.1992 116.475 27.7558 117.031C28.3124 117.587 28.9731 118.027 29.7001 118.327C30.4271 118.627 31.2061 118.781 31.9926 118.779H112.5C114.086 118.777 115.606 118.145 116.727 117.024C117.849 115.903 118.48 114.383 118.482 112.797V55.5486C118.484 54.7616 118.329 53.9821 118.028 53.2551C117.726 52.5281 117.283 51.8681 116.725 51.313ZM72.2674 103.604C66.0009 103.604 59.875 101.746 54.6643 98.2653C49.4536 94.7843 45.392 89.8364 42.993 84.0473C40.5939 78.2582 39.9652 71.8878 41.1862 65.7414C42.4072 59.5949 45.4232 53.9486 49.8528 49.516C54.2824 45.0834 59.9268 42.0638 66.0724 40.8387C72.218 39.6136 78.5889 40.2382 84.3796 42.6334C90.1703 45.0286 95.1208 49.087 98.6053 54.2954C102.09 59.5038 103.952 65.6284 103.956 71.8949C103.956 76.0558 103.136 80.1759 101.544 84.02C99.951 87.864 97.6166 91.3567 94.6739 94.2984C91.7312 97.2401 88.2378 99.5733 84.3933 101.165C80.5487 102.756 76.4283 103.574 72.2674 103.573V103.604Z" fill="url(#paint0_radial_1301_615)"/>
<path d="M72.2674 103.604C66.0009 103.604 59.875 101.746 54.6643 98.2653C49.4536 94.7843 45.392 89.8364 42.993 84.0473C40.5939 78.2582 39.9652 71.8878 41.1862 65.7414C42.4072 59.5949 45.4232 53.9486 49.8528 49.516C54.2824 45.0834 59.9268 42.0638 66.0724 40.8387C72.218 39.6136 78.5889 40.2382 84.3796 42.6334C90.1703 45.0286 95.1208 49.087 98.6053 54.2954C102.09 59.5038 103.952 65.6284 103.956 71.8949C103.956 76.0558 103.136 80.1759 101.544 84.02C99.951 87.864 97.6166 91.3567 94.6739 94.2984C91.7312 97.2401 88.2378 99.5733 84.3933 101.165C80.5487 102.756 76.4283 103.574 72.2674 103.573V103.604Z" fill="url(#paint1_radial_1301_615)"/>
<path d="M116.725 51.313L92.2113 26.757C91.929 26.4774 91.6209 26.2253 91.291 26.004C91.1341 25.9099 90.9772 25.8053 90.8099 25.7216C90.2661 25.4329 89.6802 25.2317 89.0738 25.1255C88.6712 25.0424 88.2613 25.0003 87.8502 25L31.9507 25.502C30.3773 25.5138 28.8727 26.1495 27.7674 27.2694C27.6419 27.3949 27.506 27.5414 27.3805 27.6878C27.255 27.8342 27.1504 27.9911 27.0458 28.1584C26.3683 29.1354 26.0036 30.2952 26 31.4841V112.797C26 113.584 26.1551 114.362 26.4564 115.089C26.7576 115.815 27.1992 116.475 27.7558 117.031C28.3124 117.587 28.9731 118.027 29.7001 118.327C30.4271 118.627 31.2061 118.781 31.9926 118.779H112.5C114.086 118.777 115.606 118.145 116.727 117.024C117.849 115.903 118.48 114.383 118.482 112.797V55.5486C118.484 54.7616 118.329 53.9821 118.028 53.2551C117.726 52.5281 117.283 51.8681 116.725 51.313ZM72.2674 103.604C66.0009 103.604 59.875 101.746 54.6643 98.2653C49.4536 94.7843 45.392 89.8364 42.993 84.0473C40.5939 78.2582 39.9652 71.8878 41.1862 65.7414C42.4072 59.5949 45.4232 53.9486 49.8528 49.516C54.2824 45.0834 59.9268 42.0638 66.0724 40.8387C72.218 39.6136 78.5889 40.2382 84.3796 42.6334C90.1703 45.0286 95.1208 49.087 98.6053 54.2954C102.09 59.5038 103.952 65.6284 103.956 71.8949C103.956 76.0558 103.136 80.1759 101.544 84.02C99.951 87.864 97.6166 91.3567 94.6739 94.2984C91.7312 97.2401 88.2378 99.5733 84.3933 101.165C80.5487 102.756 76.4283 103.574 72.2674 103.573V103.604Z" stroke="white" stroke-width="2.17532" stroke-linecap="round"/>
<path d="M72.2674 103.604C66.0009 103.604 59.875 101.746 54.6643 98.2653C49.4536 94.7843 45.392 89.8364 42.993 84.0473C40.5939 78.2582 39.9652 71.8878 41.1862 65.7414C42.4072 59.5949 45.4232 53.9486 49.8528 49.516C54.2824 45.0834 59.9268 42.0638 66.0724 40.8387C72.218 39.6136 78.5889 40.2382 84.3796 42.6334C90.1703 45.0286 95.1208 49.087 98.6053 54.2954C102.09 59.5038 103.952 65.6284 103.956 71.8949C103.956 76.0558 103.136 80.1759 101.544 84.02C99.951 87.864 97.6166 91.3567 94.6739 94.2984C91.7312 97.2401 88.2378 99.5733 84.3933 101.165C80.5487 102.756 76.4283 103.574 72.2674 103.573V103.604Z" stroke="white" stroke-width="2.17532" stroke-linecap="round"/>
<defs>
<radialGradient id="paint0_radial_1301_615" cx="0" cy="0" r="1" gradientUnits="userSpaceOnUse" gradientTransform="translate(72.2412 71.8897) rotate(90) scale(58.1799 57.3753)">
<stop offset="0.0336538" stop-color="#00D294" stop-opacity="0.12"/>
<stop offset="1" stop-color="#00D294"/>
</radialGradient>
<radialGradient id="paint1_radial_1301_615" cx="0" cy="0" r="1" gradientUnits="userSpaceOnUse" gradientTransform="translate(72.2412 71.8897) rotate(90) scale(58.1799 57.3753)">
<stop offset="0.0336538" stop-color="#00D294" stop-opacity="0.12"/>
<stop offset="1" stop-color="#00D294"/>
</radialGradient>
</defs>
</svg>
