<svg width="42" height="41" viewBox="0 0 42 41" fill="none" xmlns="http://www.w3.org/2000/svg">
<g clip-path="url(#clip0_469_136)">
<path d="M5.9483 38.8242C5.9483 38.8242 5.87939 38.6031 5.87771 38.6762C5.64742 39.0368 5.8676 39.115 5.50288 38.8871C5.50288 38.8871 5.50625 38.7409 5.4323 38.7392C4.9163 38.6541 4.997 38.3633 4.85751 37.9942C4.71803 37.6251 4.57853 37.256 4.58863 36.8172C4.59032 36.7441 4.36846 36.739 4.29619 36.6641C4.0088 36.2916 4.09455 35.7814 4.10466 35.3426C4.11309 34.9769 4.3501 34.3238 4.36526 33.6656C4.38043 33.0074 4.32163 32.3475 4.33005 31.9818C4.34185 31.4699 4.20406 31.0277 4.21417 30.5889C4.22596 30.0769 3.94026 29.6313 3.95037 29.1925C3.96047 28.7537 4.11847 28.3183 4.05463 27.8778C4.06137 27.5853 4.14374 27.2213 4.07653 26.927C4.01605 26.3403 3.65809 25.8198 3.59593 25.3062C3.60266 25.0136 3.61109 24.648 3.61783 24.3554C3.63299 23.6972 3.72043 23.1138 3.73559 22.4556C3.75075 21.7974 4.06004 21.2192 4.0752 20.561C4.09037 19.9027 3.88197 19.3126 3.97109 18.656C3.98625 17.9978 4.22159 17.4179 4.3107 16.7614C4.31744 16.4688 4.18302 15.8804 4.04858 15.2919C3.91415 14.7034 3.85369 14.1166 3.85874 13.8972C3.93775 13.6795 3.72093 13.455 3.65203 13.2339C3.5865 12.8665 3.66382 12.722 4.03864 12.5111C4.48743 12.3019 4.56475 12.1573 4.50091 11.7168C4.50428 11.5705 4.65556 11.4277 4.65893 11.2814C4.66062 11.2083 4.51438 11.1317 4.51438 11.1317C4.96148 10.9957 4.89596 10.6283 5.12288 10.414C5.27416 10.2712 5.28258 9.90544 5.43048 9.90885C5.79857 9.9905 6.09101 10.1436 6.31793 9.92929C6.69612 9.57214 6.99531 9.43269 7.43398 9.66231C7.5802 9.73886 7.79871 9.89024 7.94661 9.89365C8.09452 9.89705 8.32145 9.68276 8.46936 9.68616C8.98704 9.69809 9.5736 9.93112 10.0913 9.94305C10.609 9.95497 11.204 9.82233 11.7216 9.83425C12.2393 9.84618 12.8276 10.0061 13.3453 10.018C13.8629 10.03 14.4529 10.1167 14.9706 10.1287C15.858 10.1491 16.8194 10.1713 17.7086 10.1186C18.3742 10.1339 19.0414 10.0761 19.7087 10.0183C20.302 9.95873 20.8954 9.89923 21.413 9.91116C22.0047 9.92479 22.6703 9.94012 23.2619 9.95375C23.8535 9.96738 24.5191 9.98271 25.1108 9.99634C25.7024 10.01 26.3764 9.65963 26.968 9.67325C27.5597 9.68688 28.2168 10.0679 28.8085 10.0816C29.4741 10.0969 30.2153 10.0408 30.7228 10.4915C30.8674 10.6412 31.1666 10.5017 31.3868 10.58C31.6069 10.6582 31.8994 10.8113 32.0456 10.8879C32.1179 10.9627 32.333 11.2603 32.3296 11.4066C32.3212 11.7723 32.3834 12.2859 32.7498 12.4407C32.896 12.5173 33.1952 12.3778 33.3414 12.4543C33.6322 12.6806 33.4674 13.4085 33.0943 13.5463C32.5732 13.6806 32.2774 13.6738 32.2639 14.2589C32.2572 14.5514 32.3967 14.9205 32.4639 15.2147C32.5328 15.4358 33.237 16.9887 33.2319 17.2081C33.2218 17.6469 33.2117 18.0857 33.3495 18.5279C33.4907 18.8239 33.5579 19.1181 33.6251 19.4123C33.6839 20.0722 33.4468 20.7253 33.5056 21.3853C33.4938 21.8972 33.556 22.4108 33.5442 22.9228C33.5324 23.4347 33.6685 23.9501 33.5811 24.5334C33.5693 25.0454 33.3357 25.5522 33.3222 26.1373C33.3104 26.6492 33.5944 27.168 33.5809 27.753C33.5759 27.9725 33.4969 28.1902 33.5658 28.4113C33.7019 28.9266 33.7624 29.5134 33.6766 30.0236C33.6732 30.1699 33.3757 30.2362 33.3001 30.3076C33.1505 30.3774 33.0715 30.5951 32.9219 30.6648C32.6967 30.806 32.4731 30.874 32.3219 31.0168C32.2462 31.0883 32.0966 31.158 32.0193 31.3026C31.863 31.6648 31.4881 31.8757 31.1957 31.7226C31.0495 31.6461 31.0528 31.4998 30.9738 31.7175C30.9721 31.7906 30.7486 31.8587 30.7469 31.9318C30.6679 32.1495 30.7402 32.2243 30.52 32.1461C30.2998 32.0679 30.1502 32.1376 30.157 31.845C30.1587 31.7719 30.2343 31.7005 30.236 31.6274C30.2376 31.5542 30.0192 31.4028 30.0208 31.3297C29.9452 31.4011 29.7939 31.544 29.7923 31.6171C29.7889 31.7634 30.0796 31.9896 30.0023 32.1342C30.0006 32.2073 29.6325 32.1257 29.5586 32.124C29.4846 32.1223 29.5586 32.124 29.5603 32.0508C29.4914 31.8297 29.1922 31.9692 28.9703 31.9641C28.8964 31.9624 28.6813 31.6647 28.6829 31.5916C28.614 31.3705 28.5401 31.3688 28.3165 31.4368C27.7232 31.4963 27.1316 31.4827 26.5382 31.5422C25.9449 31.6017 25.3533 31.588 24.7583 31.7207C24.0893 31.8516 23.491 32.1305 22.8993 32.1169C22.2321 32.1747 21.6472 31.8685 20.9816 31.8532C20.316 31.8379 19.7176 32.1168 19.052 32.1015C18.3864 32.0861 17.8015 31.7799 17.136 31.7646C16.6183 31.7527 16.0972 31.887 15.5795 31.8751C15.0619 31.8632 14.5442 31.8513 14.0282 31.7662C13.5105 31.7543 12.9155 31.8869 12.3995 31.8018C12.3256 31.8001 12.1037 31.795 12.0297 31.7933C11.8112 31.642 11.6667 31.4923 11.4482 31.3409C11.2297 31.1895 11.3087 30.9718 11.3138 30.7524C11.3239 30.3136 11.1138 29.7966 11.1239 29.3578C11.134 28.919 11.2198 28.4087 11.2299 27.9699C11.2434 27.3848 11.5526 26.8066 11.5661 26.2215C11.5796 25.6364 11.3712 25.0462 11.3847 24.4612C11.3864 24.388 11.6839 24.3217 11.6856 24.2486C12.0016 23.3778 11.8016 22.4219 11.6 21.5392C11.4656 20.9507 11.4689 20.8044 11.9194 20.5221C11.9951 20.4507 12.1446 20.381 12.148 20.2347C12.1531 20.0153 12.0085 19.8656 11.9379 19.7176C11.8707 19.4234 11.9514 19.1326 11.9565 18.9132C11.9582 18.84 12.0338 18.7686 12.1077 18.7703C12.1817 18.772 12.3347 18.556 12.4069 18.6309C12.77 18.9319 12.9901 19.0102 13.1481 18.5748C13.3062 18.1394 13.76 17.7108 14.2693 18.0884C14.4155 18.1649 14.5583 18.3877 14.7096 18.2449C14.9365 18.0306 15.1635 17.8163 15.461 17.75C16.1265 17.7653 16.7871 18 17.3804 17.9405C18.046 17.9559 18.6444 17.6769 19.31 17.6923C19.9755 17.7076 20.6428 17.6498 21.2345 17.6634C21.6782 17.6737 22.1975 17.6125 22.643 17.5495C22.8648 17.5547 23.1606 17.5615 23.3825 17.5666C23.6783 17.5734 23.9002 17.5785 24.196 17.5853C24.4918 17.5921 24.633 17.8881 24.7742 18.184C24.9153 18.48 25.2061 18.7062 25.3472 19.0021C25.4195 19.077 25.4145 19.2964 25.4884 19.2981C25.8565 19.3797 26.2935 19.6825 26.2851 20.0481C26.2767 20.4138 26.0447 20.8475 26.4094 21.0754C26.4817 21.1503 26.7019 21.2285 26.7002 21.3017C26.68 22.1793 26.4395 22.9786 26.4193 23.8563C26.4126 24.1488 26.4042 24.5145 26.3974 24.807C26.3856 25.3189 26.0814 25.6778 25.6309 25.9601C25.2561 26.171 24.5905 26.1557 24.4308 26.6642C24.3535 26.8088 24.4275 26.8105 24.2829 26.6608C24.1401 26.438 24.0627 26.5825 23.9837 26.8002C23.8325 26.9431 23.7619 26.7951 23.6173 26.6455C23.5451 26.5706 23.3954 26.6403 23.3215 26.6386C22.9551 26.4839 22.8156 26.1148 22.8257 25.676C22.8274 25.6028 22.535 25.4497 22.3871 25.4463C22.1669 25.3681 22.2425 25.2967 22.2492 25.0041C22.2627 24.4191 22.2779 23.7608 22.2914 23.1758C22.2947 23.0295 22.1502 22.8798 22.1536 22.7336C22.1603 22.441 22.0175 22.2182 21.7216 22.2114C20.8325 22.2641 19.9383 22.5362 19.0492 22.5889C18.3819 22.6467 17.7163 22.6313 17.1247 22.6177C16.7549 22.6092 16.7532 22.6823 16.7448 23.048C16.738 23.3405 16.7313 23.6331 16.7985 23.9273C16.7968 24.0005 16.9448 24.0039 16.9448 24.0039C17.0069 24.5175 16.8472 25.026 16.9111 25.4665C16.9732 25.9802 17.0388 26.3476 16.8791 26.8561C16.8 27.0738 16.795 27.2932 16.716 27.5109C16.6353 27.8017 16.7815 27.8783 17.0773 27.8851C17.8169 27.9021 18.4791 28.0637 19.2186 28.0808C19.9582 28.0978 20.6238 28.1131 21.365 28.057C22.1062 28.0009 22.7718 28.0163 23.513 27.9602C24.1064 27.9007 24.6325 27.5469 25.2258 27.4874C25.8191 27.4279 26.4091 27.5147 26.9301 27.3803C27.2276 27.314 27.5184 27.5402 27.7402 27.5453C28.11 27.5539 28.189 27.3362 28.1974 26.9705C28.2075 26.5317 28.0698 26.0895 28.0815 25.5775C28.0917 25.1387 28.0278 24.6982 27.9656 24.1846C27.9035 23.6709 28.0615 23.2355 28.0733 22.7236C28.0851 22.2116 28.0952 21.7728 28.107 21.2609C28.1205 20.6758 28.1339 20.0907 28.1474 19.5057C28.1609 18.9206 28.1744 18.3355 28.1878 17.7504C28.1946 17.4579 28.277 17.0939 28.2837 16.8014C28.2871 16.6551 27.2837 15.2417 27.2131 15.0938C27.2216 14.7281 27.2199 14.8012 26.9257 14.7213C26.7778 14.7179 26.7039 14.7162 26.556 14.7128C25.9643 14.6991 25.3072 14.3181 24.7138 14.3776C24.1222 14.364 23.5221 14.716 22.8566 14.7007C22.2649 14.6871 21.6027 14.5255 21.0094 14.585C20.4177 14.5714 19.7555 14.4097 19.1639 14.3961C18.5723 14.3825 17.9067 14.3672 17.315 14.3535C16.7234 14.3399 16.0544 14.4708 15.4611 14.5303C14.8678 14.5898 14.2039 14.5014 13.6106 14.5609C12.7214 14.6136 11.9029 14.8142 11.0154 14.7938C10.2019 14.7751 9.39352 14.5369 8.58002 14.5182C8.2842 14.5114 8.91441 16.0625 8.90767 16.3551C8.89588 16.867 8.66224 17.3738 8.65044 17.8858C8.63865 18.3977 8.5529 18.9079 8.5411 19.4199C8.53437 19.7124 8.82513 19.9386 8.89234 20.2329C8.95956 20.5271 8.87887 20.818 8.87381 21.0374C8.86202 21.5493 9.07208 22.0663 9.0586 22.6514C9.12076 23.1651 9.10729 23.7501 9.0955 24.2621C9.15766 24.7757 8.92233 25.3557 8.83658 25.8659C8.83153 26.0853 8.89873 26.3796 8.96763 26.6007C9.17096 27.4103 9.15074 28.2879 9.20447 29.1672C9.19268 29.6791 9.25317 30.2659 9.31533 30.7796C9.37412 31.4395 9.50854 32.0279 9.49338 32.6862C9.4799 33.2712 9.37731 34.5128 9.89331 34.5979C10.6312 34.688 11.3656 34.9245 12.1018 35.0878C12.8397 35.178 13.5792 35.195 14.3171 35.2852C14.981 35.3736 15.6466 35.389 16.3122 35.4043C16.9761 35.4928 17.64 35.5812 18.3056 35.5966C18.9711 35.6119 19.6317 35.8466 20.2973 35.862C20.9629 35.8773 21.6285 35.8926 22.2941 35.908C22.9596 35.9233 23.553 35.8638 24.1463 35.8043C24.8119 35.8196 25.4052 35.7601 26.0708 35.7754C26.7364 35.7908 27.3314 35.6581 27.923 35.6718C28.5886 35.6871 29.1785 35.7739 29.8441 35.7892C30.3618 35.8011 30.8106 35.5919 31.3299 35.5307C31.6275 35.4644 31.8544 35.2501 32.1519 35.1838C32.5973 35.1209 33.1116 35.2791 33.557 35.2162C34.0024 35.1532 34.5184 35.2383 34.9638 35.1754C35.1117 35.1788 35.189 35.0342 35.3353 35.1108C35.705 35.1193 35.8093 33.8046 35.8917 33.4406C35.9018 33.0018 35.9842 32.6378 35.9943 32.199C36.0078 31.614 36.1708 30.9592 36.1843 30.3741C36.1978 29.789 35.9155 29.1971 35.9306 28.5389C35.9441 27.9538 36.0299 27.4436 36.0433 26.8585C36.0568 26.2734 36.0686 25.7615 36.0821 25.1764C36.0989 24.4451 36.262 23.7903 36.2789 23.0589C36.2957 22.3276 36.3109 21.6694 36.1798 20.9346C36.1176 20.421 36.2034 19.9108 36.2152 19.3988C36.2337 18.5943 36.1026 17.8596 35.9733 17.0517C35.9061 16.7575 35.9128 16.4649 35.9178 16.2455C35.933 15.5873 35.9482 14.9291 35.965 14.1978C35.9802 13.5396 36.0693 12.8831 36.0122 12.15C36.0206 11.7843 36.0375 11.053 36.0594 10.1022C36.0745 9.44399 36.0914 8.71265 36.1805 8.05614C36.2007 7.17853 36.1453 6.37235 36.1537 6.00668C36.1638 5.56787 36.3084 5.71755 35.8629 5.78047C35.4175 5.84338 34.8982 5.90458 34.4528 5.96749C34.1553 6.03381 33.7888 5.87903 33.4191 5.87051C32.7535 5.85518 32.0879 5.83985 31.4223 5.82452C30.7567 5.80919 30.0894 5.86698 29.4239 5.85165C28.7583 5.83632 28.0927 5.82098 27.4271 5.80565C26.8355 5.79202 26.1716 5.70356 25.5799 5.68993C24.9883 5.6763 24.321 5.7341 23.7277 5.79361C23.1344 5.85312 22.5394 5.98575 21.8721 6.04355C21.3527 6.10476 20.8334 6.16598 20.3157 6.15405C19.798 6.14213 19.2854 5.91079 18.766 5.972C18.0987 6.0298 17.4298 6.16074 16.6902 6.14371C16.0247 6.12837 15.2868 6.0382 14.6195 6.096C13.9539 6.08067 13.2127 6.13678 12.5471 6.12144C11.8815 6.10611 11.1369 6.30848 10.4713 6.29315C9.95365 6.28122 9.36877 5.97505 8.85109 5.96312C8.33341 5.9512 7.80899 6.23182 7.29131 6.21989C6.77194 6.2811 6.25425 6.26917 5.73657 6.25724C4.92139 6.31164 4.17681 6.51401 3.36162 6.5684C3.13976 6.56329 2.13454 8.44264 1.98326 8.5855C1.83367 8.65523 1.68912 8.50555 1.5429 8.42901C1.46895 8.42731 1.32105 8.4239 1.32105 8.4239C0.796626 8.70451 1.52287 6.08701 1.07915 6.07679C1.00519 6.07509 0.783328 6.06997 0.785013 5.99684C0.791752 5.7043 1.02035 5.41688 1.02709 5.12434C1.02877 5.0512 1.02878 5.05121 1.10442 4.97978C1.4036 4.84032 1.33806 4.47295 1.26916 4.25184C1.20026 4.03073 1.2776 3.88616 1.2087 3.66506C1.1398 3.44395 1.14315 3.29768 1.3667 3.22965C1.8138 3.09361 2.11469 2.88102 2.34834 2.37419C2.42566 2.22963 2.57526 2.1599 2.72485 2.09018C3.02235 2.02386 3.02234 2.02385 2.87948 1.80104C2.73495 1.65136 2.74 1.43197 2.88959 1.36224C3.34006 1.07993 3.86279 0.87244 4.37879 0.9575C4.6746 0.964314 4.96706 1.1174 5.26288 1.12421C6.07638 1.14295 6.96214 1.23653 7.77564 1.25527C8.36727 1.2689 8.96564 0.989988 9.48163 1.07505C9.99763 1.16011 10.6615 1.24858 11.1792 1.2605C11.475 1.26731 11.6918 1.49183 11.9877 1.49865C12.2818 1.57859 12.6482 1.73338 12.944 1.7402C13.6096 1.75553 14.2046 1.62289 14.8702 1.63822C15.5358 1.65356 16.1308 1.52091 16.7964 1.53624C17.462 1.55157 18.0502 1.71147 18.7175 1.65367C19.3848 1.59587 20.0537 1.46494 20.721 1.40714C21.3866 1.42247 22.0539 1.36466 22.7212 1.30686C23.3884 1.24906 24.0506 1.41066 24.7196 1.27973C25.3129 1.22022 25.8306 1.23214 26.4222 1.24577C27.0139 1.2594 27.6089 1.12676 28.2005 1.14039C28.7921 1.15402 29.3838 1.16765 29.9754 1.18128C30.567 1.19491 31.1604 1.1354 31.752 1.14902C32.3436 1.16265 32.9353 1.17628 33.5269 1.18991C34.1185 1.20354 34.7017 1.58284 35.3673 1.59817C35.5892 1.60328 35.8212 1.1696 36.043 1.17471C36.2649 1.17982 36.4061 1.47576 36.5523 1.5523C36.9943 1.63566 36.9237 1.48768 37.0801 1.12542C37.1574 0.980849 37.3036 1.0574 37.3776 1.0591C37.5255 1.06251 37.6768 0.919647 37.8213 1.06933C37.8953 1.07103 37.8936 1.14416 37.9658 1.219C38.0381 1.29384 38.0314 1.58637 38.1036 1.66121C38.1793 1.58978 38.3289 1.52006 38.4045 1.44863C38.4818 1.30406 38.5659 0.866954 38.6399 0.868657C38.7861 0.945199 39.2248 1.17482 39.2214 1.32109C39.3575 1.83644 39.4953 2.27866 39.8583 2.57971C40.0751 2.80423 40.5172 2.88758 40.5827 3.25495C40.6466 3.69546 40.781 4.28395 41.297 4.369C41.3709 4.37071 41.4449 4.37241 41.5155 4.52038C41.5878 4.59522 41.734 4.67176 41.7323 4.7449C41.7239 5.11057 41.6331 5.84021 41.6112 6.79096C41.596 7.44917 41.3573 8.1754 41.3438 8.76047C41.3236 9.63808 41.3051 10.4426 41.2966 10.8083C41.2832 11.3934 41.3436 11.9801 41.3319 12.4921C41.3184 13.0771 41.3032 13.7354 41.2897 14.3204C41.2763 14.9055 41.1888 15.4889 41.1014 16.0722C41.0879 16.6573 41.2223 17.2458 41.2089 17.8309C41.1954 18.4159 41.034 18.9976 41.0205 19.5827C41.007 20.1678 41.2154 20.7579 41.2019 21.343C41.1901 21.855 41.1044 22.3652 41.0926 22.8771C41.0808 23.3891 41.069 23.901 41.0572 24.413C41.0455 24.9249 40.8857 25.4334 40.874 25.9454C40.8588 26.6036 40.8436 27.2618 40.9024 27.9217C40.8957 28.2142 40.8889 28.5068 40.8805 28.8725C40.862 29.6769 40.9914 30.4848 40.9728 31.2893C40.9644 31.655 40.8837 31.9458 40.9492 32.3132C40.9459 32.4594 41.1644 32.6108 41.161 32.7571C41.2265 33.1245 41.1895 34.7334 41.255 35.1008C41.2516 35.2471 41.0987 35.4631 40.8751 35.5311C40.6516 35.5991 40.6465 35.8185 40.6415 36.0379C40.6347 36.3305 40.5507 36.7676 40.3237 36.9818C40.2481 37.0533 39.8766 37.1179 39.8733 37.2642C39.7943 37.4819 39.7926 37.555 39.569 37.623C39.4194 37.6927 39.2698 37.7625 39.1203 37.8322C38.7454 38.0431 38.3672 38.4002 38.1353 38.8339C38.0596 38.9054 38.0579 38.9785 37.9823 39.0499C37.5369 39.1128 37.0175 39.1741 36.5738 39.1638C36.0544 39.225 35.4611 39.2845 34.9417 39.3458C34.7938 39.3423 34.5686 39.4835 34.5652 39.6298C34.4089 39.992 34.1114 40.0584 33.7399 40.123C33.1466 40.1825 32.5533 40.242 31.9617 40.2284C31.37 40.2147 30.7717 40.4936 30.18 40.48C29.5884 40.4664 28.9968 40.4528 28.4034 40.5123C27.8118 40.4986 27.2252 40.2656 26.6336 40.252C25.968 40.2366 25.3007 40.2944 24.6351 40.2791C23.9696 40.2638 23.3006 40.3947 22.635 40.3794C21.9694 40.364 21.2988 40.5681 20.6332 40.5528C19.9676 40.5375 19.3054 40.3758 18.6398 40.3605C17.9742 40.3452 17.3103 40.2567 16.643 40.3145C15.9758 40.3723 15.3118 40.2838 14.6463 40.2685C13.9807 40.2532 13.3151 40.2379 12.6495 40.2225C11.9839 40.2072 11.3166 40.265 10.651 40.2497C9.7636 40.2292 8.87782 40.1356 7.99374 39.9689C7.62566 39.8873 7.26093 39.6594 6.89622 39.4314C6.53655 38.9841 6.16679 38.9756 5.9483 38.8242Z" fill="#A94198"/>
</g>
<defs>
<clipPath id="clip0_469_136">
<rect width="42" height="41" fill="white"/>
</clipPath>
</defs>
</svg>
