<svg width="77" height="50" viewBox="0 0 77 50" fill="none" xmlns="http://www.w3.org/2000/svg">
<path d="M65.6146 16.6047C65.7308 16.3029 65.5204 15.8626 65.2826 15.7398C65.0449 15.617 64.9252 15.4345 64.6874 15.3117C64.4787 15.1135 64.388 14.8556 64.1793 14.6574C63.762 14.2609 63.3446 13.8644 63.0162 13.4837C62.8075 13.2855 62.6279 13.0118 62.686 12.861C62.6843 12.6188 62.6244 12.5276 62.3867 12.4048C62.0001 12.175 61.6426 11.8698 61.3741 11.5803C61.1055 11.2909 60.748 10.9856 60.4213 10.847C59.886 10.5102 59.2925 10.3243 58.6682 9.97177C58.0439 9.61918 57.4794 9.35781 56.7098 9.38244C56.0291 9.42285 55.4954 9.32816 54.931 9.0668C53.951 8.65108 52.9436 8.55291 51.9123 9.25654C51.7943 9.3162 51.7054 9.30043 51.5874 9.36009C51.1735 9.44785 50.6707 9.51982 50.2568 9.60758C50.0499 9.65146 49.754 9.67956 49.547 9.72344C49.2221 9.82698 48.9262 9.85508 48.5705 9.79195C48.4524 9.85161 48.4524 9.85161 48.3344 9.91127C48.2164 9.97093 48.2164 9.97093 48.0984 10.0306C48.0403 10.1814 47.9822 10.3323 47.8642 10.392C47.806 10.5429 47.659 10.678 47.423 10.7973C47.3939 10.8728 47.3358 11.0236 47.3067 11.0991C46.8963 11.6711 46.4859 12.2431 46.1644 12.8308C45.9592 13.1168 45.872 13.3432 45.5471 13.4467C45.4889 13.5976 45.5197 13.7643 45.4616 13.9151C45.4035 14.066 45.3453 14.2169 45.2872 14.3678C45.3488 14.7011 45.3215 15.0187 45.354 15.4275C45.3883 16.0784 45.4226 16.7293 45.4278 17.4556C45.4894 17.789 45.433 18.182 45.4946 18.5153C45.5545 18.6065 45.5255 18.682 45.4074 18.7416C45.3784 18.8171 45.4383 18.9083 45.4092 18.9838C45.3801 19.0592 45.44 19.1504 45.4109 19.2259C45.4708 19.3171 45.4418 19.3925 45.5016 19.4838C45.5615 19.575 45.5324 19.6504 45.5033 19.7259C45.5632 19.8171 45.5342 19.8925 45.5342 19.8925C45.6591 20.8013 46.227 21.5469 46.942 22.1574C47.2396 22.3714 47.6553 22.5258 48.0418 22.7556C48.4883 23.0766 49.1108 23.1871 49.6735 23.2063C50.1473 23.2098 50.503 23.2729 50.8896 23.5027C50.9495 23.594 51.1273 23.6255 51.3343 23.5816C51.926 23.5255 52.5178 23.4693 53.1096 23.4131C53.4054 23.385 53.7612 23.4481 54.1751 23.3603C54.6779 23.2884 55.2423 23.5497 55.7417 22.9935L55.8597 22.9339C56.7456 22.6074 57.6024 22.3565 58.4883 22.0301C58.8133 21.9265 59.2272 21.8388 59.5521 21.7352C60.084 21.5878 60.4979 21.5001 60.8502 21.079C61.1734 20.7333 61.5855 20.4034 61.9686 20.149C62.6167 19.6998 63.3248 19.3418 63.9729 18.8926C63.9729 18.8926 64.002 18.8172 64.0909 18.833C64.7083 18.2171 65.3838 17.4504 65.6146 16.6047ZM53.8625 12.8266C53.7445 12.8863 53.5085 13.0056 53.4196 12.9898C53.2708 12.8828 53.1219 12.7758 53.0022 12.5934C53.0022 12.5934 53.1783 12.3828 53.2074 12.3074C53.5324 12.2038 54.3345 12.588 54.3671 12.9968C54.2781 12.981 54.0404 12.8582 53.8625 12.8266ZM54.7117 19.7479C54.2961 19.5935 54.739 19.4303 54.7082 19.2636L54.8262 19.204C54.975 19.311 55.0948 19.4934 55.1546 19.5847C55.0657 19.5689 54.8006 19.7637 54.7117 19.7479ZM58.8878 15.814C58.532 15.7509 58.4396 15.2509 58.6739 14.8894C58.8535 15.1631 59.0331 15.4368 59.1238 15.6947C59.2726 15.8017 59.0657 15.8456 58.8878 15.814Z" fill="#313E8E"/>
<path d="M73.4172 24.0096C73.0237 23.7736 72.9906 23.3537 72.8077 23.0726C72.6249 22.7915 72.442 22.5105 72.59 22.123C72.677 21.6419 72.193 21.3897 71.9196 21.0924C71.9196 21.0924 71.8291 21.0762 71.7385 21.06C71.5575 21.0275 71.4373 21.0888 71.2563 21.0564C71.0456 21.1015 70.9255 21.1628 70.7148 21.2078C70.5651 21.3466 70.3858 21.5628 70.1752 21.6079C69.9645 21.653 69.8426 21.4656 69.6912 21.3557C69.6006 21.3395 69.5397 21.2458 69.5397 21.2458C68.9669 21.226 68.3923 20.9576 67.9083 20.7053L67.7882 20.7666C67.7586 20.8441 67.7586 20.8441 67.6681 20.8279C67.2746 20.5919 67.2746 20.5919 67.0065 21.0406C66.8882 21.3505 66.6184 21.5505 66.2266 21.5632C65.8053 21.6533 65.5651 21.7759 65.5982 22.1957C65.5686 22.2732 65.5391 22.3507 65.4799 22.5057C65.116 22.1922 64.7556 22.376 64.3657 22.6373C63.9757 22.8986 63.6763 23.1762 63.2864 23.4375C63.1367 23.5762 62.8964 23.6988 62.6858 23.7438C62.0242 23.9565 61.3017 24.0755 60.581 24.4432C60.4609 24.5044 60.4609 24.5045 60.3703 24.4882C59.949 24.5784 59.4076 24.7298 58.9863 24.8199C58.8958 24.8037 58.7757 24.865 58.7461 24.9425C58.3265 25.2813 57.907 25.6201 57.2141 25.6616C57.1235 25.6454 56.9738 25.7841 56.7928 25.7517C56.462 25.8581 56.2514 25.9031 55.9206 26.0095C55.7099 26.0545 55.4087 26.0834 55.1685 26.2059C54.1466 26.6025 53.1525 26.6728 52.0975 26.6495C51.8259 26.6009 51.6448 26.5684 51.3436 26.5973C50.7708 26.5775 50.1389 26.7127 49.5957 26.6155C48.9619 26.502 48.3578 26.3111 47.8128 25.9651C47.3288 25.7129 47.0241 25.2444 46.6898 24.8535C45.9602 23.9778 45.1401 23.0859 44.3809 22.2877C44.2295 22.1778 44.078 22.0679 44.017 21.9742C43.5922 21.567 43.0472 21.2211 42.6519 20.7364C42.1661 20.2355 41.8005 19.6734 41.3443 19.095C41.2537 19.0788 41.2833 19.0013 41.1928 18.9851C41.0117 18.9527 40.7993 18.7491 40.7679 18.5779C40.7052 18.2355 40.552 17.8769 40.3987 17.5184C40.3674 17.3472 40.2159 17.2373 40.1845 17.0661C40.094 17.0499 40.0035 17.0337 39.8224 17.0013C39.6413 16.9689 39.4585 16.6878 39.4271 16.5166L39.4567 16.4391C39.3958 16.3454 39.2443 16.2355 39.1834 16.1418C39.0319 16.0319 38.7899 15.9058 38.7585 15.7346C38.7585 15.7346 38.7585 15.7346 38.6976 15.6409C38.607 15.6247 38.5461 15.531 38.4556 15.5148C38.3041 15.4049 38.2118 15.14 38.0899 14.9526C38.1195 14.8752 38.029 14.8589 38.029 14.8589C37.968 14.7653 37.8165 14.6553 37.7556 14.5616C37.5118 14.1869 37.3881 13.7508 37.1444 13.3761L37.0225 13.1886L36.9319 13.1724L36.8414 13.1562L36.7509 13.14C36.6603 13.1238 36.5698 13.1076 36.3887 13.0752C36.0893 13.3527 35.6384 13.5203 35.1858 13.4393C34.552 13.3258 33.9792 13.3061 33.3177 13.5187C32.3254 13.8378 31.2721 14.0631 30.1892 14.3659C29.8585 14.4723 29.5573 14.5011 29.2265 14.6075C29.0159 14.6525 28.7147 14.6814 28.504 14.7265C28.2028 14.7553 27.9922 14.8004 27.6614 14.9067C27.3602 14.9356 26.9685 14.9482 26.6377 15.0546C26.3366 15.0834 26.0963 15.206 25.8561 15.3285C25.7359 15.3898 25.5253 15.4349 25.4348 15.4187C25.0135 15.5088 24.6845 15.8638 24.2004 15.6116L24.1099 15.5954C23.7495 15.7792 23.5371 15.5756 23.2359 15.6045C22.9643 15.5558 22.6631 15.5847 22.4525 15.6298C21.9111 15.7812 21.3105 16.0876 20.769 16.239C20.1371 16.3742 19.5051 16.5094 18.8732 16.6446C18.2412 16.7798 17.5797 16.9925 16.9146 16.7078C16.824 16.6916 16.7039 16.7529 16.5838 16.8141C16.3435 16.9367 16.1033 17.0593 15.8631 17.1818C15.5323 17.2882 15.2311 17.317 14.9317 17.5945C14.7524 17.8108 14.5122 17.9333 14.2423 18.1334C13.9429 18.4109 13.4607 18.4073 13.0098 18.575C12.7695 18.6975 12.4684 18.7264 12.2263 18.6002C12.1358 18.584 11.9252 18.6291 11.805 18.6904C11.6849 18.7517 11.5648 18.8129 11.4447 18.8742C11.0843 19.058 10.9346 19.1968 10.8772 19.6004C10.9103 20.0203 10.4908 20.3591 9.88838 20.4168C9.67773 20.4619 9.55762 20.5231 9.4375 20.5844C9.19726 20.707 8.92742 20.907 8.77595 20.7971C8.41381 20.7323 8.17358 20.8548 7.90198 20.8062C7.6008 20.835 7.35879 20.7089 7.08719 20.6603C6.90613 20.6279 6.84518 20.5342 6.66411 20.5018C6.30198 20.4369 6.18187 20.4982 6.15405 20.8244C6.15582 21.073 6.06704 21.3055 6.06881 21.5541C6.03923 21.6316 6.16113 21.819 6.25167 21.8352C6.52327 21.8839 6.64516 22.0713 6.64693 22.3199C6.67829 22.4911 6.52858 22.6299 6.46941 22.7848C6.43982 22.8623 6.07769 22.7975 6.01674 22.7038C5.74337 22.4065 5.49958 22.0317 5.22621 21.7344C5.10432 21.547 4.83272 21.4984 4.74396 21.7309C4.59603 22.1183 4.35754 22.4895 4.60132 22.8643C4.72322 23.0517 4.7546 23.2229 4.78596 23.394C4.81731 23.5652 4.9392 23.7526 5.12027 23.785C5.30133 23.8174 5.36227 23.9111 5.33268 23.9886C5.66523 24.1309 5.87765 24.3345 6.06049 24.6156C6.15102 24.6318 6.12144 24.7093 6.18239 24.803C6.24333 24.8967 6.30427 24.9904 6.36522 25.0841C6.42616 25.1778 6.45751 25.349 6.51845 25.4427C6.79005 25.4913 7.00249 25.6949 7.00426 25.9436C7.12615 26.1309 7.18709 26.2246 7.24804 26.3183C7.36993 26.5057 7.49182 26.6931 7.6433 26.803C8.31016 27.3363 8.94744 27.9471 9.52376 28.4642C10.0392 28.8876 10.525 29.3885 11.0108 29.8894C11.3137 30.1092 11.5871 30.4065 11.5297 30.8102C11.5001 30.8876 11.5314 31.0588 11.622 31.075C11.9859 31.3885 12.3794 31.6246 12.6528 31.9218C13.109 32.5002 13.6853 33.0173 13.8107 33.702C13.8421 33.8732 13.9935 33.9831 14.145 34.093C14.5699 34.5002 14.9338 34.8137 15.3586 35.2209C15.571 35.4245 15.7539 35.7056 15.9367 35.9867C16.1196 36.2678 16.3024 36.5489 16.3651 36.8912C16.4574 37.1561 16.6681 37.111 16.9693 37.0822C17.7823 36.9794 18.4107 36.3468 19.2847 36.3378L19.4048 36.2765C19.8853 36.0314 20.2456 35.8476 20.7261 35.6025C21.3267 35.2961 21.9587 35.1609 22.5593 34.8545C22.9196 34.6707 23.3096 34.4094 23.6995 34.148C23.8196 34.0868 23.8197 34.0868 23.9398 34.0255C24.3611 33.9353 24.812 33.7677 25.2333 33.6776C25.5344 33.6487 25.8356 33.6199 25.7729 33.2775C25.8025 33.2 25.9226 33.1388 25.9522 33.0613C26.4623 32.7387 27.0019 32.3386 27.512 32.016C28.1126 31.7096 28.6836 31.4807 29.2842 31.1744C29.615 31.068 29.7665 31.1779 29.8588 31.4428C29.9197 31.5365 29.8901 31.614 29.9511 31.7077C30.0138 32.05 30.1061 32.3149 30.5588 32.3959C30.8304 32.4446 31.102 32.4932 31.2534 32.6031C31.6469 32.8391 31.9203 33.1364 32.2233 33.3562C32.4357 33.5598 32.6481 33.7634 32.9806 33.9057C33.4037 34.0643 33.5866 34.3454 33.6493 34.6877C33.6197 34.7652 33.6806 34.8589 33.7416 34.9526C34.0446 35.1724 34.438 35.4084 34.741 35.6282C35.3765 35.9904 35.9824 36.43 36.228 37.0534C36.4422 37.5057 36.6859 37.8805 37.1404 38.2102C37.6557 38.6336 38.1415 39.1345 38.1764 39.803C38.2078 39.9742 38.3297 40.1616 38.5717 40.2877C38.7232 40.3976 38.9652 40.5237 39.1463 40.5561C39.5989 40.6371 40.0516 40.7182 40.4137 40.783C40.9865 40.8028 41.3155 40.4478 41.7054 40.1865C41.8552 40.0477 42.0658 40.0027 42.3374 40.0513C42.5185 40.0837 42.7901 40.1323 42.9102 40.0711C44.2629 39.5682 45.4954 39.1266 46.7872 38.5301C47.3878 38.2237 47.9901 38.166 48.6221 38.0308C48.9233 38.0019 49.2541 37.8956 49.5848 37.7892C50.0357 37.6216 50.4257 37.3603 50.786 37.1765C51.3866 36.8701 51.9281 36.7187 52.5026 36.9871C52.8352 37.1294 53.3488 37.3042 53.7387 37.0429C54.1287 36.7815 54.6405 36.7076 54.9086 36.2589C54.9382 36.1814 55.0287 36.1976 55.0583 36.1201C55.4186 35.9363 55.8713 36.0174 56.2003 35.6624L56.2908 35.6786C56.5015 35.6335 56.7417 35.5109 56.982 35.3884C57.2222 35.2658 57.3719 35.1271 57.1891 34.846L57.2187 34.7685C57.3979 34.5523 57.5773 34.336 57.7566 34.1198C57.7861 34.0423 57.8767 34.0585 57.9968 33.9972C58.4477 33.8296 58.9595 33.7557 59.44 33.5106C59.8004 33.3267 60.1903 33.0654 60.4288 32.6942C60.4879 32.5392 60.7578 32.3392 60.9388 32.3716C61.301 32.4364 61.4803 32.2202 61.6596 32.004C61.6891 31.9265 61.8093 31.8652 61.9294 31.8039C62.5909 31.5912 63.1619 31.3623 63.8531 31.0722C64.0933 30.9496 64.304 30.9045 64.5442 30.782C64.7845 30.6594 64.9342 30.5207 65.2354 30.4918C65.7768 30.3404 66.1371 30.1566 66.4052 29.7079C66.5845 29.4916 66.8543 29.2916 67.2147 29.1078C67.3348 29.0465 67.6064 29.0951 67.6969 29.1113C67.7875 29.1275 67.9076 29.0663 68.0277 29.005C68.4176 28.7437 68.6857 28.295 69.2271 28.1436C69.3473 28.0823 69.4064 27.9273 69.5265 27.866C69.5561 27.7886 69.6153 27.6336 69.7354 27.5723C70.0053 27.3723 70.3656 27.1884 70.6355 26.9884C71.055 26.6496 71.5651 26.327 71.8941 25.972C72.3118 25.3845 72.6391 24.7809 72.9959 24.0997C73.5095 24.2744 73.5077 24.0258 73.4172 24.0096ZM11.6629 24.1286L11.7535 24.1448L11.6369 24.7034L11.4262 24.7485C11.3043 24.5611 11.4836 24.3449 11.6629 24.1286ZM10.2422 23.5431C10.3937 23.653 10.5452 23.7629 10.5765 23.9341C10.6375 24.0278 10.5487 24.2602 10.6097 24.3539C10.6097 24.3539 10.4895 24.4152 10.399 24.399C10.0665 24.2567 9.97236 23.7431 10.2422 23.5431ZM10.6345 27.8353C10.2706 27.5218 9.99716 27.2245 9.63326 26.911C9.57231 26.8173 9.39125 26.7848 9.33031 26.6911C9.26936 26.5975 9.17881 26.5812 9.11787 26.4875C8.90544 26.284 8.72261 26.0029 8.51019 25.7993C8.44924 25.7056 8.38831 25.6119 8.32736 25.5182L8.44746 25.4569C9.74628 25.855 10.2356 26.8532 10.9948 27.6514C11.0853 27.6676 10.9356 27.8064 10.9966 27.9001C10.7859 27.9452 10.6954 27.929 10.6345 27.8353ZM12.0357 25.6854C12.0061 25.7629 11.825 25.7305 11.825 25.7305C11.7031 25.5431 11.6718 25.3719 11.912 25.2494C12.0931 25.2818 12.215 25.4692 12.0357 25.6854ZM12.7772 23.997L12.6866 23.9808C12.7458 23.8258 12.7144 23.6546 12.7736 23.4996C12.9547 23.5321 13.0452 23.5483 13.1061 23.642C12.9564 23.7807 12.8067 23.9195 12.7772 23.997ZM12.8788 29.81C12.8179 29.7163 12.7569 29.6226 12.7865 29.5451C12.7865 29.5451 12.9066 29.4838 13.0268 29.4225C13.0877 29.5162 13.1486 29.6099 13.0895 29.7649C13.0895 29.7649 12.9694 29.8262 12.8788 29.81ZM14.6594 25.9068C14.4487 25.9519 14.2641 25.4221 14.4138 25.2834C14.473 25.1284 14.7742 25.0996 14.8943 25.0383C15.0162 25.2257 15.0771 25.3194 15.199 25.5068C14.9588 25.6293 14.87 25.8618 14.6594 25.9068ZM14.1865 31.4514C13.9149 31.4028 13.7303 30.873 13.9392 30.5793C14.1516 30.7829 14.2735 30.9703 14.4563 31.2514C14.4267 31.3289 14.277 31.4676 14.1865 31.4514ZM15.0971 32.3595C15.0675 32.437 14.7959 32.3884 14.8255 32.3109C14.6741 32.201 14.5522 32.0136 14.3693 31.7325C14.8812 31.6586 15.0326 31.7685 15.2155 32.0495C15.1859 32.127 15.1267 32.282 15.0971 32.3595ZM17.3101 34.163C17.2805 34.2405 17.2805 34.2405 17.1604 34.3018C17.1308 34.3793 16.9811 34.518 16.9811 34.518C16.8001 34.4856 16.6486 34.3757 16.4971 34.2658C16.4971 34.2658 16.6468 34.127 16.6764 34.0496C16.7356 33.8946 16.7652 33.8171 16.8243 33.6621C16.8226 33.4135 16.9723 33.2747 17.3344 33.3395C17.3954 33.4332 17.5468 33.5431 17.5782 33.7143C17.4285 33.8531 17.3693 34.008 17.3101 34.163ZM17.4113 35.6712C17.3208 35.655 17.1693 35.5451 17.0788 35.5289C17.0474 35.3577 17.1066 35.2027 17.1048 34.9541C17.1048 34.9541 17.1953 34.9703 17.3155 34.909C17.4373 35.0964 17.4391 35.3451 17.561 35.5325L17.4113 35.6712ZM18.8527 34.9359C18.7326 34.9972 18.4906 34.8711 18.5202 34.7936C18.4279 34.5287 18.6681 34.4062 18.9084 34.2836C19.0912 34.5647 19.0634 34.8908 18.8527 34.9359ZM24.95 23.5274C24.9796 23.4499 24.9796 23.4499 25.0092 23.3724C25.1903 23.4048 25.3104 23.3435 25.4914 23.376C25.4619 23.4534 25.4619 23.4534 25.4323 23.5309L24.95 23.5274ZM35.0348 17.6342C35.1253 17.6504 35.1253 17.6504 35.2159 17.6666C35.1567 17.8216 35.1271 17.8991 35.1585 18.0702C35.0679 18.054 34.9774 18.0378 34.9774 18.0378C34.946 17.8666 34.9756 17.7892 35.0348 17.6342ZM34.0969 21.357C33.8253 21.3084 33.6442 21.276 33.282 21.2112C33.5519 21.0111 33.8217 20.8111 34.304 20.8146C34.485 20.8471 34.6661 20.8795 34.5773 21.1119C34.5182 21.2669 34.3685 21.4057 34.0969 21.357ZM35.7697 19.2558C35.7087 19.1622 35.6478 19.0685 35.6774 18.991C35.7975 18.9297 35.9176 18.8684 35.9176 18.8684C36.0082 18.8846 35.9785 18.9621 36.0395 19.0558C36.0099 19.1333 35.8898 19.1946 35.7697 19.2558ZM37.1744 17.6034C37.0247 17.7421 36.6922 17.5998 36.4798 17.3962C36.8105 17.2899 37.0194 16.9961 37.3224 17.2159C37.3224 17.2159 37.2336 17.4484 37.1744 17.6034ZM37.2809 19.8576C37.401 19.7963 37.5212 19.735 37.6413 19.6737C37.7022 19.7674 37.7632 19.8611 37.7632 19.8611C37.643 19.9224 37.5229 19.9837 37.2827 20.1062C37.2217 20.0125 37.1904 19.8413 37.2809 19.8576ZM33.4973 30.273C33.4068 30.2568 33.3754 30.0856 33.3754 30.0856C33.405 30.0081 33.6156 29.9631 33.6452 29.8856C33.7062 29.9793 33.6766 30.0568 33.828 30.1667C33.7079 30.228 33.5878 30.2892 33.4973 30.273ZM35.3292 33.5812C35.2387 33.565 35.2683 33.4875 35.1777 33.4713C35.0262 33.3614 34.9043 33.174 34.7529 33.0641C34.873 33.0028 35.0836 32.9578 35.2038 32.8965C35.5049 32.8676 35.5067 33.1163 35.5381 33.2875C35.5694 33.4586 35.4493 33.5199 35.3292 33.5812ZM42.9099 23.1005C43.3034 23.3365 43.8466 23.4338 43.8205 24.0086C43.8223 24.2573 44.0051 24.5384 44.127 24.7257C44.3395 24.9293 44.2803 25.0843 44.282 25.333C44.2246 25.7366 44.3465 25.924 44.6791 26.0663C44.7678 25.8339 44.7661 25.5852 44.8548 25.3527C45.6087 25.4049 46.2755 25.9382 46.2495 26.5131C46.2808 26.6842 46.1312 26.823 45.8891 26.6969C45.6175 26.6483 45.3755 26.5222 45.1945 26.4897C44.9229 26.4411 44.6513 26.3925 44.5329 26.7024C44.4442 26.9349 44.0228 27.025 43.6607 26.9602C43.2986 26.8953 42.9365 26.8305 42.6039 26.6882C42.4229 26.6558 42.1808 26.5297 42.2104 26.4522C42.1791 26.281 42.2678 26.0485 42.4175 25.9098C42.9572 25.5097 43.0738 24.9511 43.4324 24.5186C43.462 24.4411 43.401 24.3474 43.3401 24.2537C43.1276 24.0501 42.9152 23.8465 42.943 23.5204C43.0022 23.3654 42.9413 23.2717 42.9099 23.1005ZM43.2837 33.2669C43.073 33.312 42.7423 33.4184 42.5908 33.3085C42.2582 33.1661 41.9257 33.0238 41.4748 33.1914C41.3547 33.2527 41.1127 33.1266 41.0517 33.0329C41.1718 32.9716 41.231 32.8167 41.3511 32.7554C41.5914 32.6328 41.7724 32.6652 42.0127 32.5427C42.3452 32.685 42.7665 32.5949 42.9754 32.3011C43.0346 32.1462 43.1843 32.0074 43.1234 31.9137C43.153 31.8362 42.8518 31.8651 42.7003 31.7552C42.4287 31.7066 42.2476 31.6741 42.0352 31.4705C41.9742 31.3768 42.0334 31.2219 42.0021 31.0507C42.0021 31.0507 42.2127 31.0056 42.3032 31.0218C42.6654 31.0867 43.0275 31.1515 43.1808 31.5101C43.2417 31.6038 43.4228 31.6362 43.6038 31.6686C44.1174 31.8434 44.0583 31.9983 43.7293 32.3533C43.6423 32.8345 43.221 32.9246 43.2837 33.2669ZM44.1329 29.7765C44.253 29.7153 44.4027 29.5765 44.6133 29.5314C44.6743 29.6251 44.7352 29.7188 44.7352 29.7188C44.5855 29.8576 44.4654 29.9189 44.3157 30.0576C44.2548 29.9639 44.1642 29.9477 44.1329 29.7765ZM40.7738 23.6287C40.8643 23.6449 40.9253 23.7386 41.0767 23.8485C40.8661 23.8935 40.6554 23.9386 40.5353 23.9999C40.5353 23.9999 40.4744 23.9062 40.4134 23.8125C40.5335 23.7512 40.6537 23.6899 40.7738 23.6287ZM40.001 25.146C40.2394 24.7747 40.4483 24.481 40.6276 24.2648C40.6572 24.1873 40.7477 24.2035 40.7477 24.2035C41.0803 24.3458 41.5034 24.5043 41.8063 24.7242C41.9578 24.8341 41.5992 25.2666 41.298 25.2954C40.9968 25.3243 40.5755 25.4144 40.3039 25.3658C40.1229 25.3333 40.0915 25.1622 40.001 25.146ZM39.0393 33.9971C38.8286 34.0422 38.557 33.9935 38.1653 34.0062C38.0138 33.8963 37.8623 33.7864 37.7109 33.6765C37.6499 33.5828 37.5594 33.5666 37.4984 33.4729C37.4375 33.3792 37.3156 33.1918 37.3156 33.1918C37.4653 33.053 37.7351 32.853 37.8257 32.8692C38.4298 33.0602 39.034 33.2511 39.6085 33.5195C39.6991 33.5358 39.7304 33.7069 39.6103 33.7682C39.3996 33.8133 39.2499 33.952 39.0393 33.9971ZM38.9073 36.6225C38.7558 36.5126 38.6949 36.4189 38.5434 36.309C38.6635 36.2477 38.7836 36.1865 38.9943 36.1414C39.0256 36.3126 39.0866 36.4063 39.1475 36.5C39.0274 36.5612 38.9073 36.6225 38.9073 36.6225ZM39.9239 35.48C39.9534 35.4025 40.044 35.4187 40.1641 35.3575C40.225 35.4512 40.2251 35.4512 40.286 35.5448C40.2564 35.6223 40.2878 35.7935 40.2582 35.871C39.957 35.8999 39.7741 35.6188 39.9239 35.48ZM43.0227 34.7103C42.9931 34.7878 42.7825 34.8329 42.6919 34.8167C42.1487 34.7194 42.0286 34.7807 41.6996 35.1357C41.67 35.2132 41.5499 35.2744 41.4594 35.2582C41.2487 35.3033 40.5836 35.0187 40.4618 34.8313C40.9736 34.7573 41.3949 34.6672 41.9363 34.5158C42.0564 34.4545 42.1156 34.2996 42.2357 34.2383C42.3855 34.0995 42.6257 33.977 42.7458 33.9157C43.0766 33.8093 43.0783 34.058 43.1097 34.2292C43.1411 34.4004 43.0523 34.6328 43.0227 34.7103ZM41.8149 38.6332C41.754 38.5395 41.6931 38.4458 41.6617 38.2746C41.8114 38.1359 41.9315 38.0746 42.0516 38.0133C42.1126 38.107 42.2641 38.2169 42.2049 38.3719C42.1457 38.5269 41.9351 38.5719 41.8149 38.6332ZM44.6505 34.7534C44.7115 34.8471 44.7724 34.9408 44.8334 35.0345C44.7133 35.0958 44.5931 35.157 44.5322 35.0634C44.4712 34.9697 44.4103 34.876 44.3198 34.8598C44.4399 34.7985 44.56 34.7372 44.6505 34.7534ZM44.0398 37.8726C43.9197 37.9339 43.709 37.9789 43.4984 38.024C43.4079 38.0078 43.1972 38.0529 43.1363 37.9592C43.0753 37.8655 43.044 37.6943 43.0735 37.6168C43.1031 37.5393 43.2842 37.5717 43.4948 37.5267C43.6759 37.5591 43.8866 37.514 44.0676 37.5464C44.1582 37.5627 44.2191 37.6564 44.1895 37.7338C44.2801 37.75 44.1599 37.8113 44.0398 37.8726ZM46.3494 32.0774C46.4695 32.0161 46.5287 31.8612 46.6488 31.7999C46.7689 31.7386 46.8891 31.6773 46.9796 31.6935C47.4305 31.5259 47.4305 31.5259 47.2773 31.1673L47.3068 31.0899C47.4879 31.1223 47.7595 31.1709 47.911 31.2808C48.0624 31.3907 48.2435 31.4231 48.4542 31.3781C48.5743 31.3168 48.6648 31.333 48.7553 31.3492C48.7258 31.4267 48.6666 31.5817 48.637 31.6591C48.6074 31.7366 48.4873 31.7979 48.3968 31.7817C48.0051 31.7943 47.7056 32.0719 47.3749 32.1782C47.2547 32.2395 47.0145 32.362 46.8334 32.3296C46.682 32.2197 46.5305 32.1098 46.3494 32.0774ZM46.7257 34.1316C46.6352 34.1154 46.5742 34.0217 46.5133 33.928C46.5429 33.8505 46.663 33.7892 46.7831 33.7279C46.8441 33.8216 46.9955 33.9315 46.9659 34.009C47.0565 34.0252 46.8162 34.1478 46.7257 34.1316ZM46.6546 36.8507C46.383 36.802 46.2316 36.6921 46.0505 36.6597C46.0487 36.4111 46.2594 36.366 46.531 36.4146C46.8026 36.4632 46.8339 36.6344 46.6546 36.8507ZM49.8329 30.3004C49.7128 30.3617 49.5021 30.4067 49.4412 30.313C49.2583 30.032 49.5891 29.9256 49.7388 29.7869C49.9808 29.913 50.1027 30.1004 49.8329 30.3004ZM50.9216 35.0484L50.8606 34.9547C50.9807 34.8934 51.1009 34.8321 51.3115 34.787C51.2819 34.8645 51.3725 34.8808 51.3429 34.9582C51.2523 34.942 51.0417 34.9871 50.9216 35.0484ZM62.178 28.6199C62.0874 28.6037 61.9359 28.4938 61.9359 28.4938C62.0543 28.1838 62.0821 27.8577 62.3519 27.6576C62.4425 27.6739 62.4425 27.6739 62.5034 27.7676C62.8969 28.0036 62.8099 28.4847 62.178 28.6199ZM63.4437 28.5982C63.4437 28.5982 63.3236 28.6594 63.233 28.6432C63.1721 28.5495 63.2016 28.4721 63.1407 28.3784C63.1093 28.2072 62.9875 28.0198 63.3182 27.9134C63.4088 27.9296 63.5602 28.0396 63.6212 28.1332C63.7135 28.3981 63.6543 28.5531 63.4437 28.5982ZM64.4691 28.699C64.2585 28.744 64.1679 28.7278 63.8667 28.7567C63.9259 28.6017 63.9851 28.4467 64.1052 28.3855C64.2253 28.3242 64.4969 28.3728 64.617 28.3115C64.617 28.3115 64.678 28.4052 64.6484 28.4827C64.6188 28.5602 64.4987 28.6215 64.4691 28.699ZM64.9567 29.4485L64.8661 29.4323L65.1028 28.8124L65.1934 28.8286C65.3153 29.016 65.136 29.2323 64.9567 29.4485ZM71.2254 25.19L71.1349 25.1738C71.1645 25.0963 71.1331 24.9252 71.1627 24.8477C71.1923 24.7702 71.2515 24.6152 71.3716 24.5539C71.4621 24.5701 71.5527 24.5864 71.5231 24.6638C71.5544 24.835 71.6154 24.9287 71.5562 25.0837C71.4657 25.0675 71.255 25.1125 71.2254 25.19Z" fill="#313E8E"/>
</svg>
