<svg width="144" height="144" viewBox="0 0 144 144" fill="none" xmlns="http://www.w3.org/2000/svg">
<path d="M98.5928 56.59C99.2722 56.3926 99.9831 56.7829 100.181 57.4621L99.8289 57.5644L98.9499 57.8199C99.3699 57.6979 99.6467 57.6174 99.8289 57.5644C100.15 57.4711 100.178 57.4626 100.181 57.4621C100.181 57.4621 100.182 57.4667 100.182 57.4696L100.183 57.471C100.184 57.4765 100.187 57.485 100.19 57.4955C100.196 57.5171 100.206 57.5494 100.218 57.5913C100.242 57.6756 100.278 57.8009 100.325 57.9639C100.418 58.2906 100.556 58.7709 100.73 59.3846C101.077 60.6122 101.572 62.376 102.159 64.522C103.333 68.8139 104.88 74.6402 106.37 80.7697C107.859 86.8954 109.295 93.3428 110.244 98.8732C110.718 101.638 111.074 104.192 111.252 106.371C111.427 108.524 111.439 110.409 111.174 111.79C110.385 115.855 107.393 119.327 103.315 122.187C99.2168 125.061 93.8587 127.438 88.005 129.278C76.3033 132.958 62.3488 134.578 51.876 133.579C46.5843 133.075 42.8522 131.687 40.3046 129.655C37.7312 127.602 36.4833 124.984 35.9957 122.275C35.5143 119.601 35.7709 116.829 36.179 114.387C36.3839 113.16 36.6318 111.991 36.853 110.949C37.0775 109.89 37.2694 108.985 37.3807 108.225C37.8673 104.905 39.69 97.5808 41.3646 91.1713C42.2066 87.9484 43.0187 84.9283 43.6203 82.7145C43.9211 81.6076 44.1695 80.7012 44.3426 80.072C44.429 79.7578 44.4969 79.5122 44.543 79.3453C44.566 79.262 44.5838 79.1975 44.5957 79.1545C44.6015 79.1335 44.606 79.1172 44.6091 79.1063C44.6105 79.101 44.612 79.0964 44.6128 79.0936C44.8021 78.4121 45.5092 78.0085 46.1909 78.1977C46.8301 78.3753 47.2211 79.0073 47.1113 79.6474L47.0823 79.7751C47.0816 79.7778 47.0793 79.7863 47.0779 79.7914C47.0749 79.8021 47.0703 79.8182 47.0645 79.8389C47.0584 79.8608 47.0509 79.8885 47.0419 79.9214C47.0334 79.9524 47.0237 79.9881 47.0126 80.0282C46.9667 80.1941 46.8991 80.4387 46.8129 80.7519C46.6404 81.3789 46.3929 82.2823 46.0929 83.3863C45.4927 85.5949 44.6823 88.6067 43.843 91.8193C42.1548 98.2813 40.3771 105.447 39.9156 108.596C39.7906 109.45 39.5808 110.439 39.3628 111.466C39.3618 111.471 39.3607 111.476 39.3597 111.481C39.1372 112.529 38.9008 113.646 38.7065 114.809C38.316 117.146 38.1138 119.577 38.5179 121.821C38.9159 124.032 39.8977 126.053 41.9027 127.652C43.9338 129.272 47.13 130.552 52.1187 131.028C62.2075 131.99 75.817 130.425 87.236 126.835C92.9421 125.041 98.0338 122.76 101.844 120.088C105.674 117.402 108.051 114.434 108.659 111.306C108.855 110.279 108.87 108.68 108.698 106.58C108.529 104.503 108.186 102.031 107.718 99.3067C106.784 93.8598 105.363 87.4768 103.88 81.3747C102.398 75.2763 100.857 69.4752 99.687 65.1982C99.1021 63.0604 98.6098 61.3037 98.264 60.0824C98.0912 59.4722 97.9554 58.9952 97.8624 58.6713C97.816 58.5097 97.7803 58.3855 97.7563 58.3024C97.7489 58.2768 97.7425 58.2548 97.7372 58.2368C97.7366 58.2353 97.7361 58.2337 97.7356 58.2321C97.7345 58.2287 97.7336 58.2252 97.7327 58.2217L97.7323 58.2202C97.7311 58.2159 97.7299 58.2118 97.7288 58.2081C97.7274 58.2042 97.7263 58.2001 97.7252 58.196C97.724 58.1916 97.723 58.1879 97.7221 58.1851L97.7199 58.1777C97.7187 58.1734 97.7175 58.1692 97.7163 58.1649C97.7129 58.1528 97.7097 58.1407 97.7067 58.1285C97.7055 58.1238 97.7042 58.119 97.7028 58.1143C97.7022 58.1122 97.7016 58.1102 97.701 58.1081C97.7002 58.1053 97.6993 58.1022 97.6984 58.099C97.6979 58.097 97.6973 58.095 97.6968 58.0931C97.6957 58.0888 97.6946 58.0846 97.6939 58.0812C97.5585 57.4324 97.9458 56.7781 98.5928 56.59Z" fill="#FFFDFE"/>
<path d="M47.0972 79.7528C47.0824 79.811 47.0639 79.8673 47.0419 79.9214C46.805 80.5047 46.1681 80.8388 45.5406 80.6799C44.8549 80.506 44.4398 79.8091 44.6135 79.1233L47.0972 79.7528Z" fill="#FFFDFE"/>
<path d="M72.7244 11.5247C76.06 9.69503 79.134 9.56299 81.8737 10.8559C84.5244 12.1068 86.6707 14.604 88.4474 17.6255C92.0017 23.6704 98.2646 49.7599 100.181 57.4621C100.181 57.4646 100.182 57.4671 100.182 57.4696C100.348 58.1537 99.9308 58.8447 99.2468 59.015C98.6131 59.1725 97.9666 58.8305 97.7372 58.2368C97.7366 58.2353 97.7361 58.2337 97.7356 58.2321C97.7345 58.2287 97.7336 58.2252 97.7327 58.2217L97.7323 58.2202C97.7311 58.2159 97.7299 58.2118 97.7288 58.2081C97.7274 58.2042 97.7263 58.2001 97.7252 58.196C97.7243 58.1923 97.7233 58.1887 97.7221 58.1851C97.7213 58.1827 97.723 58.1876 97.7221 58.1851C97.7202 58.1792 97.7182 58.1722 97.7163 58.1649C97.7129 58.1523 97.7097 58.1389 97.7067 58.1285C97.7055 58.1238 97.7042 58.119 97.7028 58.1143C97.7022 58.1122 97.7016 58.1102 97.701 58.1081C97.7002 58.1053 97.6993 58.1022 97.6984 58.099C97.6979 58.097 97.6973 58.095 97.6968 58.0931C97.6957 58.0888 97.6946 58.0846 97.6939 58.0812C97.5435 57.4766 97.3661 56.7581 97.1671 55.9524C97.1665 55.9497 97.1658 55.947 97.1651 55.9443C94.8131 46.4199 89.3152 24.1562 86.2391 18.9245C84.5696 16.0852 82.751 14.1034 80.7804 13.1733C78.8986 12.2853 76.6939 12.2699 73.9573 13.7708C71.2758 15.2417 68.452 18.9295 65.7076 23.9712C63.0008 28.944 60.4967 34.99 58.3576 40.867C56.221 46.7372 54.4601 52.4056 53.2329 56.6085C52.6195 58.709 52.1402 60.4416 51.8144 61.6479C51.6803 62.1441 48.7119 73.5461 47.6199 77.7408C47.6192 77.7436 47.6184 77.7465 47.6177 77.7494C47.3844 78.6452 47.2374 79.2102 47.2226 79.2666C47.1851 79.4103 47.1559 79.5239 47.1351 79.6048C47.1328 79.614 47.1305 79.6227 47.1284 79.6311C47.1179 79.6718 47.1098 79.7028 47.1046 79.7231C47.1021 79.7331 47.0984 79.7479 47.0972 79.7528L45.8554 79.4381C44.6301 79.1277 44.6135 79.1233 44.6135 79.1233C44.6139 79.1219 44.615 79.1172 44.6157 79.1144C44.6172 79.1087 44.6196 79.1001 44.6224 79.0892C44.628 79.0673 48.8566 62.8103 48.8675 62.768C48.8893 62.6832 48.9214 62.5578 48.964 62.3946C49.0493 62.0682 49.1755 61.59 49.3404 60.9798C49.6701 59.7591 50.1548 58.0094 50.7737 55.89C52.0109 51.6529 53.7889 45.9287 55.9504 39.9904C58.1093 34.0588 60.6631 27.8792 63.457 22.7465C66.2131 17.6832 69.3337 13.3848 72.7244 11.5247Z" fill="#FFFDFE"/>
<path fill-rule="evenodd" clip-rule="evenodd" d="M97.7221 58.1851L97.7199 58.1777L97.7163 58.1649C97.7182 58.1722 97.7202 58.1792 97.7221 58.1851ZM97.701 58.1081C97.7002 58.1053 97.6993 58.1022 97.6984 58.099C97.6979 58.097 97.6973 58.095 97.6968 58.0931C97.6957 58.0888 97.6946 58.0846 97.6939 58.0812C97.6947 58.0847 97.6955 58.0882 97.6964 58.0917L97.6968 58.0931C97.6973 58.095 97.6979 58.097 97.6984 58.099C97.6993 58.1022 97.7002 58.1053 97.701 58.1081Z" fill="#FFFDFE"/>
<path fill-rule="evenodd" clip-rule="evenodd" d="M97.6984 58.099C97.6979 58.097 97.6973 58.095 97.6968 58.0931C97.6957 58.0888 97.6946 58.0846 97.6939 58.0812C97.6947 58.0847 97.6955 58.0882 97.6964 58.0917L97.6968 58.0931C97.6982 58.0982 97.6995 58.103 97.701 58.1081L97.7019 58.1111L97.7028 58.1143C97.7042 58.119 97.7055 58.1238 97.7067 58.1285C97.705 58.1219 97.7043 58.1196 97.7028 58.1143L97.7019 58.1111C97.7009 58.1077 97.6996 58.1034 97.6984 58.099ZM97.7372 58.2368L97.7356 58.2321L97.7327 58.2217C97.7336 58.2252 97.7345 58.2287 97.7356 58.2321C97.7361 58.2337 97.7366 58.2353 97.7372 58.2368ZM97.7252 58.196L97.7288 58.2081C97.7274 58.2042 97.7263 58.2001 97.7252 58.196Z" fill="#FFFDFE"/>
<path d="M100.181 57.4621C99.9831 56.7829 99.2722 56.3926 98.5928 56.59C97.9458 56.7781 97.5585 57.4324 97.6939 58.0812C97.6946 58.0846 97.6957 58.0888 97.6968 58.0931L97.6984 58.099L97.701 58.1081L97.7019 58.1111L97.7028 58.1143C97.7043 58.1196 97.705 58.1219 97.7067 58.1285C97.7097 58.1389 97.7129 58.1523 97.7163 58.1649C97.7182 58.1722 97.7202 58.1792 97.7221 58.1851L97.7199 58.1777L97.7163 58.1649C97.7129 58.1528 97.7097 58.1407 97.7067 58.1285C97.705 58.1219 97.7043 58.1196 97.7028 58.1143L97.7019 58.1111L97.701 58.1081L97.6984 58.099L97.6968 58.0931L97.6964 58.0917C97.6955 58.0882 97.6947 58.0847 97.6939 58.0812C97.5435 57.4766 97.3661 56.7581 97.1671 55.9524L97.1651 55.9443C94.8131 46.4199 89.3152 24.1562 86.2391 18.9245C84.5696 16.0852 82.751 14.1034 80.7804 13.1733C78.8986 12.2853 76.6939 12.2699 73.9573 13.7708C71.2758 15.2417 68.452 18.9295 65.7076 23.9712C63.0008 28.944 60.4967 34.99 58.3576 40.867C56.221 46.7372 54.4601 52.4056 53.2329 56.6085C52.6195 58.709 52.1402 60.4416 51.8144 61.6479C51.6803 62.1441 48.7119 73.5461 47.6199 77.7408L47.6177 77.7494L47.2226 79.2666C47.1851 79.4103 47.1559 79.5239 47.1351 79.6048L47.1284 79.6311L47.1046 79.7231L47.0972 79.7528C47.0824 79.811 47.0639 79.8673 47.0419 79.9214L47.0126 80.0282C46.9667 80.1941 46.8991 80.4387 46.8129 80.7519C46.6404 81.3789 46.3929 82.2823 46.0929 83.3863C45.4927 85.5949 44.6823 88.6067 43.843 91.8193C42.1548 98.2813 40.3771 105.447 39.9156 108.596C39.7906 109.45 39.5808 110.439 39.3628 111.466L39.3597 111.481C39.1372 112.529 38.9008 113.646 38.7065 114.809C38.316 117.146 38.1138 119.577 38.5179 121.821C38.9159 124.032 39.8977 126.053 41.9027 127.652C43.9338 129.272 47.13 130.552 52.1187 131.028C62.2075 131.99 75.817 130.425 87.236 126.835C92.9421 125.041 98.0338 122.76 101.844 120.088C105.674 117.402 108.051 114.434 108.659 111.306C108.855 110.279 108.87 108.68 108.698 106.58C108.529 104.503 108.186 102.031 107.718 99.3067C106.784 93.8598 105.363 87.4768 103.88 81.3747C102.398 75.2763 100.857 69.4752 99.687 65.1982C99.1021 63.0604 98.6098 61.3037 98.264 60.0824C98.0912 59.4722 97.9554 58.9952 97.8624 58.6713C97.816 58.5097 97.7803 58.3855 97.7563 58.3024L97.7372 58.2368L97.7356 58.2321C97.7345 58.2287 97.7336 58.2252 97.7327 58.2217L97.7323 58.2202L97.7288 58.2081C97.7274 58.2042 97.7263 58.2001 97.7252 58.196L97.7221 58.1851C97.7202 58.1792 97.7182 58.1722 97.7163 58.1649L97.7199 58.1777L97.7221 58.1851C97.7233 58.1887 97.7243 58.1923 97.7252 58.196L97.7288 58.2081L97.7323 58.2202L97.7327 58.2217C97.7336 58.2252 97.7345 58.2287 97.7356 58.2321L97.7372 58.2368C97.9666 58.8305 98.6131 59.1725 99.2468 59.015C99.9308 58.8447 100.348 58.1537 100.182 57.4696C100.182 57.4667 100.181 57.4621 100.181 57.4621L99.8289 57.5644C100.15 57.4711 100.178 57.4626 100.181 57.4621Z" fill="url(#paint0_radial_1301_617)"/>
<path d="M76.1981 73.7308L110.16 49.979C110.425 49.7935 110.633 49.5387 110.762 49.2426C110.89 48.9465 110.935 48.6206 110.891 48.3007L108.405 31.0186C108.362 30.6951 108.228 30.3903 108.02 30.1389C107.812 29.8876 107.537 29.6998 107.227 29.597C106.917 29.4942 106.585 29.4805 106.268 29.5574C105.951 29.6343 105.661 29.7988 105.433 30.0321L74.9811 60.8556C74.6807 61.1512 74.2864 61.3325 73.8665 61.3681L33.6141 64.494C33.3659 64.5123 33.1246 64.5835 32.9063 64.7029C32.688 64.8223 32.4978 64.9871 32.3485 65.1862C32.1992 65.3852 32.0942 65.614 32.0407 65.857C31.9873 66.1 31.9864 66.3516 32.0383 66.595L34.8055 79.7263C34.9013 80.1708 35.1659 80.5607 35.5434 80.814C35.921 81.0673 36.3821 81.1642 36.8297 81.0843L75.5191 74.051C75.7669 73.9973 75.9991 73.8878 76.1981 73.7308Z" fill="#FFFDFE" stroke="#FFFDFE" stroke-width="2.04977" stroke-miterlimit="10"/>
<path d="M74.1483 74.2686L73.6103 100.954C73.5965 101.286 73.6499 101.616 73.7673 101.927C73.8847 102.237 74.0637 102.521 74.2935 102.76C74.5233 102.999 74.7991 103.19 75.1044 103.32C75.4097 103.45 75.7382 103.517 76.07 103.516H84.0129" stroke="#FFFDFE" stroke-width="2.56222" stroke-linecap="round" stroke-linejoin="round"/>
<path d="M51.9082 106.924C54.0226 108.778 56.5135 110.151 59.2094 110.949C61.9054 111.747 64.7423 111.952 67.5249 111.549C67.5249 111.549 60.6453 123.592 54.4832 121.311C48.3211 119.031 53.8683 108.423 53.8683 108.423" stroke="#FFFDFE" stroke-width="2.56222" stroke-linecap="round" stroke-linejoin="round"/>
<defs>
<radialGradient id="paint0_radial_1301_617" cx="0" cy="0" r="1" gradientUnits="userSpaceOnUse" gradientTransform="translate(73.5567 71.9344) rotate(90) scale(61.9344 37.8224)">
<stop stop-color="#608AFF" stop-opacity="0.16"/>
<stop offset="1" stop-color="#608AFF"/>
</radialGradient>
</defs>
</svg>
