<svg width="48" height="48" viewBox="0 0 48 48" fill="none" xmlns="http://www.w3.org/2000/svg">
<g clip-path="url(#clip0_420_136)">
<path d="M47.4375 23.9998C47.44 20.098 46.4683 16.2572 44.6106 12.826C42.7529 9.39482 40.068 6.48168 36.7993 4.35088C33.5307 2.22007 29.7818 0.939016 25.8927 0.623919C22.0036 0.308822 18.0974 0.969652 14.5284 2.54647C10.9594 4.12328 7.84048 6.56619 5.45464 9.65358C3.06879 12.741 1.49149 16.3752 0.865805 20.2265C0.240121 24.0778 0.585854 28.0245 1.87164 31.7083C3.15743 35.3922 5.34259 38.6968 8.22891 41.3224C8.28597 41.3901 8.35242 41.4494 8.42625 41.4984C12.7121 45.3234 18.2558 47.4374 24.0003 47.4373C29.7449 47.4372 35.2885 45.3231 39.5743 41.4979C39.6477 41.4491 39.7139 41.3901 39.7707 41.3227C42.1865 39.1299 44.1166 36.4559 45.437 33.4725C46.7574 30.4891 47.4389 27.2623 47.4375 23.9998ZM2.4375 23.9998C2.43504 20.4548 3.30662 16.9639 4.97509 13.8362C6.64357 10.7084 9.05746 8.04025 12.0031 6.06791C14.9487 4.09557 18.3351 2.87989 21.8626 2.52849C25.3901 2.1771 28.9498 2.70084 32.2267 4.05333C35.5035 5.40583 38.3963 7.54536 40.649 10.2825C42.9017 13.0197 44.4448 16.27 45.1417 19.7458C45.8386 23.2216 45.6678 26.8156 44.6444 30.2096C43.6211 33.6036 41.7767 36.693 39.2745 39.2042C36.9474 35.307 33.2136 32.4513 28.843 31.2259C30.8743 30.1454 32.4859 28.4166 33.4215 26.3146C34.357 24.2126 34.5628 21.8581 34.006 19.6257C33.4491 17.3933 32.1618 15.4112 30.3487 13.9947C28.5355 12.5783 26.3008 11.8089 24 11.8089C21.6992 11.8089 19.4645 12.5783 17.6513 13.9947C15.8382 15.4112 14.5509 17.3933 13.994 19.6257C13.4372 21.8581 13.643 24.2126 14.5785 26.3146C15.5141 28.4166 17.1257 30.1454 19.157 31.2259C14.7864 32.4514 11.0527 35.307 8.72545 39.2041C6.73022 37.2069 5.14797 34.8362 4.06908 32.2274C2.99018 29.6186 2.43576 26.8229 2.4375 23.9998ZM24 30.5623C22.3312 30.5623 20.6999 30.0674 19.3124 29.1403C17.9248 28.2132 16.8434 26.8954 16.2048 25.3537C15.5662 23.8119 15.3991 22.1154 15.7246 20.4787C16.0502 18.842 16.8538 17.3386 18.0338 16.1586C19.2138 14.9786 20.7172 14.175 22.3539 13.8494C23.9906 13.5238 25.6871 13.6909 27.2289 14.3296C28.7706 14.9682 30.0884 16.0496 31.0155 17.4372C31.9426 18.8247 32.4375 20.456 32.4375 22.1248C32.435 24.3618 31.5452 26.5064 29.9634 28.0882C28.3816 29.67 26.237 30.5598 24 30.5623ZM10.1402 40.5038C11.5316 38.0545 13.5472 36.0177 15.9818 34.6007C18.4164 33.1838 21.1831 32.4373 24 32.4373C26.8169 32.4373 29.5835 33.1838 32.0181 34.6008C34.4527 36.0178 36.4683 38.0546 37.8597 40.5039C33.9803 43.7708 29.0716 45.5623 23.9999 45.5623C18.9282 45.5623 14.0195 43.7707 10.1402 40.5038Z" fill="white"/>
</g>
<defs>
<clipPath id="clip0_420_136">
<rect width="48" height="48" fill="white"/>
</clipPath>
</defs>
</svg>
