<svg width="71" height="64" viewBox="0 0 71 64" fill="none" xmlns="http://www.w3.org/2000/svg">
<path d="M39.1205 42.6331C38.7166 42.4984 38.4473 42.3638 38.0434 42.2292C38.0434 42.2292 37.9087 42.2292 37.9087 42.0945C37.7741 41.9599 37.6394 41.8252 37.5048 41.8252C37.1009 41.8252 36.8316 41.8252 36.4277 41.8252C36.2931 41.8252 36.1585 41.8252 36.0238 41.9599C35.7545 42.0945 35.6199 42.2292 35.3506 42.3638C34.9467 42.4984 34.4081 42.6331 34.0042 42.7677C33.331 42.3638 32.6578 41.9599 31.7154 41.9599C31.4461 41.9599 31.1768 42.0945 31.1768 41.556C31.1768 42.0945 30.7729 41.8252 30.6383 41.8252C30.5036 41.9599 30.369 42.0945 30.369 42.0945C30.0997 42.4984 29.4265 42.6331 29.2919 43.1716C29.1572 43.4409 29.1572 43.8448 29.0226 44.1141C28.888 44.7873 28.7533 45.3258 28.7533 45.999C28.7533 46.8069 28.7533 47.6147 28.7533 48.4225C28.7533 49.0957 29.0226 49.4996 29.5612 49.7689C30.0997 50.0382 30.5036 50.1728 31.0422 50.3075H31.4461C31.7153 50.1728 31.9847 50.1728 32.2539 50.1728C32.3886 50.1728 32.5232 50.0382 32.6578 50.0382C33.1964 50.0382 33.1964 50.0382 33.0617 49.4996C33.0617 49.365 33.0617 49.0957 33.0617 48.9611C33.7349 49.0957 33.4657 49.6343 33.6003 49.9036C33.735 49.7689 33.8695 49.6343 33.8695 49.365C33.8695 48.9611 33.7349 48.5572 33.7349 48.0186C33.7349 47.884 33.8695 47.7493 33.8695 47.4801C33.8695 46.9415 34.0042 46.403 34.0042 45.8644C34.0042 44.9219 34.0042 43.9795 34.0042 42.9024C34.2735 43.3063 34.5428 43.037 34.6774 42.9024C34.8121 42.9024 34.9467 42.9024 34.9467 42.9024C34.9467 43.1716 35.0813 43.4409 35.0813 43.7102C35.0813 44.9219 35.0813 46.1337 35.0813 47.3454C35.0813 47.6147 35.216 47.7493 35.0813 48.0186C34.9467 48.4225 35.216 48.8265 35.3506 49.0957C35.4853 49.6343 35.8892 49.6343 36.2931 49.7689C36.8317 49.9036 37.1009 49.7689 37.3702 49.365C37.6395 49.6343 37.9087 49.7689 38.4473 49.4996V49.0957C38.4473 49.2304 38.5819 49.365 38.5819 49.4996C38.7165 49.4996 38.8512 49.365 38.9859 49.365C38.9859 49.6343 39.1205 49.9036 39.1205 50.0382C39.1205 49.6343 39.1205 49.2304 39.5244 48.9611V48.8265C39.5244 48.5572 39.5244 48.1533 39.5244 47.884C39.5244 47.6147 39.3898 47.3454 39.3898 47.0762C39.3898 46.9415 39.3898 46.6722 39.3898 46.5376C39.5244 46.403 39.5244 46.403 39.5244 46.2683C39.5244 45.7298 39.6591 45.0566 39.6591 44.518C39.6591 44.2487 39.5244 43.9795 39.5244 43.7102C39.3897 43.4409 39.2551 43.037 39.1205 42.7677V42.6331ZM37.1009 49.0957C36.9663 49.0957 36.697 48.9611 36.5623 48.8265C36.4277 48.6918 36.9662 48.4225 37.2355 48.4225C37.2355 48.4225 37.3702 48.4225 37.5048 48.4225C37.5048 48.5572 37.5048 48.6918 37.5048 48.6918C37.6394 49.0957 37.5048 49.2304 37.1009 49.0957ZM39.1205 49.0957C38.8512 48.9611 38.7165 48.9611 38.5819 48.8265V48.5572C38.8512 48.4225 39.1205 48.4225 39.2551 48.2879C39.3897 48.1533 39.2551 47.884 39.2551 47.6147C39.3897 47.884 39.3898 48.6918 39.1205 49.0957Z" fill="#BA1F36"/>
<path d="M42.4865 29.4385C42.2172 29.5731 41.8132 29.7078 41.544 29.7078C41.0054 29.8424 40.6015 29.5732 40.1976 29.3039L39.5244 29.0346L39.3898 28.9C39.1205 28.7653 38.8512 28.6307 38.7166 28.3614C38.4473 27.8228 38.0434 27.4189 37.7741 26.8804C37.6395 26.6111 37.5048 26.4765 37.3702 26.2072C37.1009 25.6686 36.9663 25.1301 36.697 24.4569C36.5624 24.053 36.4277 23.5144 36.2931 23.1105C36.1585 22.8412 36.2931 22.4373 35.7545 22.5719C35.7545 22.5719 35.8892 22.4373 36.0238 22.3027C35.8892 22.3027 35.6199 22.168 35.4852 22.168C35.3506 22.3027 35.216 22.4373 35.0813 22.7066C35.0813 22.8412 35.0814 22.9759 34.9467 23.2451C34.6774 23.7837 34.4081 24.4569 34.1388 24.9954C33.8696 25.9379 33.4657 26.8804 32.9271 27.6882C32.5232 28.2268 32.1192 28.6307 31.85 29.0346C31.85 29.0346 31.7154 29.1692 31.5808 29.1692C31.5808 29.1692 31.4461 29.0346 31.4461 28.9C31.4461 28.7653 31.4461 28.496 31.4461 28.3614C31.3114 28.496 31.4461 28.6307 31.3115 28.7653C31.3115 28.9 31.3114 29.1692 31.1768 29.3039C31.0421 29.5732 30.0997 29.5731 29.6958 29.4385C28.888 29.0346 28.0801 28.7653 27.2723 29.3039C27.1377 29.4385 26.8684 29.5731 26.8684 29.7078C26.8684 29.7078 27.003 29.9771 27.1376 30.1117C27.1376 30.1117 27.1377 30.1117 27.2723 30.2463C27.5416 30.7849 27.8108 30.9195 28.3494 30.7849C28.484 30.9195 28.4841 31.0542 28.6187 31.0542C29.4265 31.3235 30.2343 31.7274 31.0422 31.5927C31.1768 31.5927 31.3114 31.7274 31.4461 31.862C31.4461 31.7274 31.4461 31.4581 31.85 31.4581L31.9847 31.3235C31.9847 31.0542 32.1193 31.0542 32.254 31.0542C32.7925 30.9195 32.9271 30.9195 32.9271 30.381V30.2463C33.0618 30.381 33.1964 30.381 33.331 30.5156C33.6003 30.1117 33.735 29.7078 34.0042 29.5732C34.2735 29.3039 34.1389 29.1692 34.0042 29.0346C34.1389 29.0346 34.2735 29.0346 34.4081 28.9C34.8121 28.7653 34.9467 28.2268 35.0813 27.8228C35.216 27.4189 35.216 27.015 35.3506 26.4765C35.3506 26.6111 35.4852 26.7457 35.4852 26.8804C35.4852 26.7457 35.6199 26.6111 35.6199 26.4765C35.7546 26.4765 35.7545 26.4765 35.8891 26.6111C35.8891 26.8804 35.8891 27.1497 36.1584 27.4189C36.4277 27.8228 36.5623 28.2268 36.8316 28.6307C36.9663 28.7653 37.1009 29.0346 37.2355 29.1692C37.3702 29.4385 37.6395 29.7078 37.7741 29.9771C37.7741 29.9771 37.9088 30.1117 38.0434 30.1117C38.178 30.1117 38.3127 30.1117 38.3127 30.2463C38.4473 30.6503 38.9859 30.9195 39.3898 31.0542C39.3898 31.0542 39.5244 31.0542 39.5244 31.1888L40.1976 31.4581C40.4669 31.4581 40.7362 31.3235 41.0055 31.4581C41.4094 31.5927 41.6786 31.4581 41.9479 31.4581C42.0825 31.4581 42.2172 31.3235 42.2172 31.3235C42.8904 31.3235 43.4289 31.0542 43.9674 30.7849C44.1021 30.6503 44.2368 30.381 44.3714 30.2463C44.3714 30.1117 44.3714 29.9771 44.3714 29.7078C44.2368 29.7078 44.1021 29.5732 43.9674 29.5732C43.5635 29.4385 43.5636 29.4385 43.6982 29.0346C43.025 29.1692 42.7557 29.3039 42.4865 29.4385Z" fill="#BA1F36"/>
<path d="M43.025 53.5389C42.8904 53.2696 42.4865 53.135 42.4865 52.8657C42.2172 52.3271 41.6786 52.3271 41.2747 52.1925C40.7361 51.9232 40.063 51.9232 39.3898 51.7886C39.2551 51.9232 39.1205 52.0579 38.8512 52.1925C37.7741 52.5964 36.697 52.8657 35.6199 53.2696C35.4853 53.2696 35.3506 53.2696 35.3506 53.2696C34.9467 53.2696 34.5428 53.0003 34.0042 53.2696C33.8696 53.2696 33.735 53.2696 33.6003 53.135C33.4657 53.135 33.331 53.135 33.1964 53.0003C32.7924 52.8657 32.5232 52.731 32.1193 52.5964C31.9846 52.4618 31.7154 52.4618 31.5808 52.4618C31.3115 52.4618 31.1768 52.3271 31.0422 52.1925H30.9076C30.6383 52.1925 30.5036 52.1925 30.369 52.3271C29.9651 52.5964 29.5611 52.3271 29.1572 52.4618C28.6186 52.4618 28.0802 52.3271 27.5416 52.5964C26.8684 52.8657 26.1952 53.2696 25.6566 53.6735C25.3874 53.8081 25.1181 54.0774 24.8488 54.3467C24.5796 54.4813 24.4449 54.7506 24.3102 55.0199C24.4449 55.0199 24.7142 55.1545 24.8488 55.1545C24.9835 55.1545 25.2527 55.2892 25.3873 55.2892C25.522 55.2892 25.7913 55.1545 25.9259 55.1545V55.2892C26.0606 55.2892 26.1952 55.4238 26.3298 55.4238C26.8684 55.4238 27.5416 55.4238 28.0801 55.5585C28.3494 55.5585 28.6187 55.6931 28.888 55.8277C29.2919 56.097 29.5611 56.5009 29.8304 56.7702C30.6382 57.4434 30.7729 58.2512 30.6383 59.1937C30.5036 59.8669 30.2344 60.2708 29.5612 60.4054C29.4265 60.4054 29.2919 60.4054 29.2919 60.5401C28.888 60.8094 28.4841 60.8094 27.9455 60.8094C27.6762 60.8094 27.4069 60.8094 27.1376 60.944C27.003 60.944 26.8684 61.0786 26.8684 61.2133C26.8684 61.3479 27.003 61.3479 27.1376 61.4825C27.2723 61.4825 27.2723 61.4826 27.4069 61.6172C27.8108 61.8865 28.3494 62.1557 28.7533 62.425C28.8879 62.5597 29.0226 62.5597 29.2919 62.6943C29.5612 62.8289 29.9651 62.9636 30.2344 62.9636C30.369 62.9636 30.5036 63.0982 30.6383 63.0982C31.1768 62.9636 31.4461 63.6368 31.85 63.5021H36.1584C36.1584 63.5021 36.0238 63.3675 36.0238 63.2329C36.0238 63.2329 36.1585 63.3675 36.2931 63.5021C36.4277 62.9636 36.4277 62.6943 36.5623 62.2904C36.9662 62.5597 37.2355 62.425 37.5048 62.0211C37.5048 62.1557 37.5048 62.1557 37.5048 62.1557C37.3702 62.5597 37.7741 62.5597 37.9087 62.6943C38.0433 62.6943 38.3127 62.5597 38.4473 62.425C38.7166 62.1557 38.8512 62.425 38.8512 62.5597C38.8512 62.425 38.9859 62.2904 38.9859 62.2904C39.1205 62.2904 39.1205 62.425 39.2551 62.425C39.659 62.1557 40.1976 61.8865 40.6015 61.6172C40.8708 61.3479 41.14 61.0786 41.544 60.8094C41.6786 60.6747 41.8132 60.5401 41.9479 60.4054C41.5439 60.2708 41.2747 60.2708 41.0055 60.1362C40.6015 60.0015 40.0629 60.0015 39.9283 59.5976C39.7936 59.3283 39.6591 59.3283 39.3898 59.3283C39.2551 59.3283 39.1205 59.1937 39.1205 59.1937C38.9858 59.0591 38.9859 58.7898 38.9859 58.5205C38.9859 58.3859 38.8512 58.3859 38.8512 58.2512C38.8512 58.2512 38.7165 58.3859 38.5819 58.3859C38.5819 58.1166 38.4473 57.8473 38.4473 57.578C38.4473 56.9048 38.4473 55.9624 39.3898 55.6931C39.3898 55.6931 39.3897 55.6931 39.5244 55.5585C39.7937 55.1545 40.3322 55.0199 40.7362 55.1545C41.2747 55.2892 41.544 55.0199 42.0826 55.0199C42.6211 55.0199 43.1597 55.0199 43.6982 54.8853C43.8329 54.8853 43.9674 54.8853 43.9674 54.7506V54.4813C43.4289 54.2121 43.1597 53.8082 43.025 53.5389ZM31.9847 56.3663C32.1193 56.3663 32.2539 56.2316 32.3886 56.097C32.2539 56.7702 32.1193 57.4434 31.9847 58.2512C31.9847 58.2512 31.85 58.2512 31.7154 58.2512C31.7154 58.3859 31.7154 58.5205 31.7154 58.6551C31.4461 58.1166 31.4461 57.578 31.7154 57.0395C31.9846 56.6356 31.5807 56.6356 31.4461 56.3663C31.7153 56.2316 31.85 56.3663 31.9847 56.3663ZM30.0997 54.0774C29.965 54.3467 29.8304 54.616 29.6958 54.8853C29.6958 54.8853 29.5612 54.8853 29.2919 54.8853C29.8304 54.4813 29.8304 54.4813 29.9651 53.6735C29.9651 53.8081 30.0997 53.9428 30.0997 54.0774ZM29.9651 53.2696C30.2344 53.135 30.3689 53.0003 30.5036 52.731C30.5036 52.8657 30.5036 53.135 30.6383 53.2696C30.369 53.4042 30.2344 53.2696 29.9651 53.2696ZM30.7729 56.097C30.7729 55.8277 30.6382 55.5585 30.7729 55.2892C30.9075 55.1545 31.1768 55.1545 31.3115 55.1545C31.5807 55.6931 31.3114 55.8277 30.7729 56.097ZM35.8891 62.9636L33.6003 62.8289C34.4082 62.6943 35.0813 62.9636 35.7545 62.5597C35.7545 62.6943 35.8891 62.8289 35.8891 62.9636ZM38.5819 54.2121C38.3126 54.8853 37.9087 55.5585 37.5048 56.2316C37.3702 56.097 37.3702 55.9624 37.3702 55.8277H37.5048C37.6394 55.6931 37.6395 55.5585 37.7741 55.4238C37.9087 55.2892 37.9087 55.0199 37.9087 54.8853C38.0433 54.7506 38.0434 54.616 38.3127 54.3467C38.3127 54.0774 38.4473 53.6735 38.4473 53.4042C38.7166 53.5389 38.5819 53.9428 38.5819 54.2121ZM39.9283 54.4813C39.7936 54.3467 39.659 54.2121 39.5244 53.9428C39.7937 54.0774 40.0629 54.0774 40.1976 54.0774C40.0629 54.3467 40.0629 54.3467 39.9283 54.4813ZM41.1401 54.2121C41.0054 54.2121 40.8708 54.0774 40.8708 53.9428C41.0054 53.9428 41.14 53.8082 41.2747 53.8082C41.5439 53.6735 41.8133 53.6735 42.0826 53.5389C42.2172 53.6735 42.3518 53.9428 42.6211 54.2121C42.0825 54.3467 41.6786 54.3467 41.1401 54.2121Z" fill="#BA1F36"/>
<path d="M61.3358 40.3443C60.9319 40.075 60.5279 39.8057 60.124 39.8057C59.9894 39.8057 59.8548 39.6711 59.5855 39.6711C58.6431 39.1325 57.7006 38.9979 56.6235 39.1325C56.2195 39.1325 55.9502 39.1325 55.681 39.4018H55.5464C55.1424 39.2671 54.8732 39.1325 54.4693 38.8632C54.0654 38.7286 53.7961 38.3247 53.5268 38.19C53.1229 38.0554 52.719 37.9208 52.4497 37.9208C52.0458 37.9208 51.7765 37.9208 51.5072 37.7861C51.3726 37.6515 51.2379 37.5168 51.1033 37.3822C50.4301 36.8436 50.0262 36.1705 49.7569 35.3626C49.7569 35.228 49.6222 35.228 49.6222 35.0933C49.4876 34.8241 49.6222 34.4202 48.949 34.4202C48.6798 34.4202 48.2759 34.2855 47.8719 34.1509L47.468 34.4202C47.3334 34.6894 47.0641 34.5548 46.9295 34.4202C46.3909 33.8816 45.8524 33.6123 45.0446 34.1509C44.506 34.4202 43.9674 34.6894 43.4289 34.1509C43.2943 34.0162 43.0249 34.0162 42.8903 34.0162C42.7557 34.0162 42.621 34.0162 42.4864 34.0162C41.8132 33.747 41.2746 33.8816 40.8707 34.2855C40.4668 34.0162 40.0629 34.2855 39.659 34.2855C39.659 34.2855 39.659 34.2855 39.5243 34.2855L39.1204 34.1509H38.9858C38.3126 34.0162 37.7741 33.747 37.1009 33.8816C36.8316 33.8816 36.6969 34.0162 36.4277 34.0162C35.7545 34.1509 35.2159 34.2855 34.5427 34.2855C34.4081 34.2855 34.1388 34.1509 34.0042 34.0162L33.8695 33.8816C33.3309 33.8816 32.927 33.747 32.5231 33.343H32.3885C32.1192 33.343 31.9846 33.343 31.7153 33.2084C31.3114 32.9391 30.7728 32.8045 30.3689 33.0738C30.2343 33.0738 30.2343 33.2084 30.0996 33.2084C29.5611 33.2084 29.1572 33.343 28.6186 33.343C28.0801 33.2084 27.5415 33.0738 27.1376 32.8045C27.0029 32.8045 27.003 32.6699 26.8684 32.6699C27.003 32.5352 27.1376 32.5352 27.1376 32.5352V32.4006C26.8683 32.4006 26.5991 32.5352 26.3298 32.6699C25.9259 32.9391 25.522 32.9391 25.2527 32.5352C24.5795 33.0738 23.9063 33.6123 23.2331 34.1509C23.0985 34.0162 23.0984 34.0162 23.0984 34.0162C22.8291 34.1509 22.5599 34.1509 22.2906 34.1509C22.0213 34.1509 21.7521 34.1509 21.6174 34.2855C21.2135 34.5548 20.9442 34.8241 20.5403 35.228C20.0018 35.7665 19.5979 36.3051 18.79 36.3051C17.9822 36.3051 17.309 36.8436 16.5012 37.2476C16.0973 37.5168 15.5587 37.3822 15.1548 37.5168C15.0202 37.5168 14.8855 37.5168 14.6162 37.5168C14.0776 37.5168 13.6738 37.5168 13.1352 37.7861H13.0005C12.3273 37.6515 11.5195 37.5168 10.9809 38.0554C10.7117 38.3247 10.577 38.4593 10.3078 38.7286C10.3078 38.7286 10.1732 38.8632 10.0385 38.8632C9.76926 38.9979 9.36533 38.9979 9.09606 39.1325C8.28822 39.2671 8.01891 39.8057 7.88428 40.4789C7.88428 40.7482 7.74967 40.8828 7.74967 41.1521C8.01895 41.8253 7.74965 42.3638 7.48038 42.9024C7.2111 43.1717 7.07648 43.7102 7.07648 43.9795C7.21112 44.518 7.48039 45.1912 7.74967 45.5952C8.01895 45.8644 8.28822 46.1337 8.42286 46.5376C8.42286 46.8069 8.55745 47.0762 8.96137 47.3455C10.3078 47.884 10.7117 48.1533 12.0581 47.0762C12.1928 46.9415 12.462 46.9415 12.5966 47.0762C12.8659 47.3455 13.2698 47.6147 13.6737 47.884C14.0776 48.2879 14.6162 48.0186 15.1548 47.884C15.5587 47.7494 15.9626 47.4801 16.3665 47.2108C16.5011 47.0762 16.6358 46.9415 16.7705 46.9415C17.1744 46.9415 17.1744 46.6723 17.1744 46.403C17.1744 45.9991 17.309 45.5952 17.7129 45.3259C18.2514 44.7873 18.2515 44.3834 17.8476 43.7102C17.7129 43.5756 17.7129 43.4409 17.5783 43.3063C17.4436 43.1717 17.4436 42.9024 17.309 42.7677H17.1744C17.309 42.3638 17.5782 42.0946 17.7129 41.6906C17.8475 41.556 17.8475 41.4214 17.9822 41.2867C18.1168 41.0174 18.2514 40.7482 18.6554 41.0174C18.79 41.1521 19.1939 41.1521 19.3286 41.0174C19.8671 40.7482 20.5403 40.7482 21.2135 40.7482C21.4828 40.7482 21.752 40.7482 22.0213 40.7482C22.156 40.7482 22.156 40.7482 22.2906 40.7482C22.5599 40.6135 22.8291 40.6135 23.0984 40.4789C23.2331 40.4789 23.3678 40.3442 23.5024 40.2096C23.5024 40.4789 23.5024 40.6135 23.5024 40.7482C23.5024 40.6135 23.5024 40.4789 23.637 40.3443C23.637 40.2096 23.7717 40.075 23.9063 40.075C24.4449 40.075 24.4448 39.6711 24.7141 39.2671C24.9834 39.4018 25.2527 39.4018 25.522 39.5364C25.7913 39.6711 26.0605 39.9403 26.4644 40.075C26.599 40.075 26.599 40.2096 26.7337 40.2096C27.2722 40.2096 27.8108 39.9403 28.3494 39.5364C28.484 39.4018 28.6186 39.4018 28.7533 39.4018C29.1572 39.4018 29.4265 39.2671 29.6957 38.9979L29.8303 38.8632C30.2343 38.7286 30.6382 38.4593 31.1767 38.7286C31.5806 38.9979 32.1192 38.9979 32.5231 39.1325C32.7924 39.1325 32.927 39.2671 33.1963 39.2671C33.4656 39.2671 33.7349 39.2671 34.0042 39.1325C34.2735 38.8632 34.812 38.9979 35.0813 38.8632C35.6198 38.5939 36.1584 38.7286 36.697 38.9979C37.6394 39.5364 38.5819 39.8057 39.659 39.8057C39.659 39.6711 39.659 39.6711 39.659 39.5364C39.7937 39.5364 39.9283 39.5364 40.0629 39.6711L40.4668 39.5364C40.7361 39.4018 41.0053 39.2671 41.2746 39.2671C42.0825 39.1325 42.8903 39.5364 43.8328 39.6711C44.1021 39.6711 44.3713 39.9403 44.6406 40.075C44.9099 40.2096 45.1792 40.3443 45.5831 40.4789C46.1216 40.4789 46.5256 40.4789 47.0641 40.4789C48.0066 40.3443 48.5451 40.8828 48.6797 41.8253C48.6797 41.6906 48.8144 41.556 48.8144 41.4214C49.6223 42.3638 50.1608 43.4409 51.2379 43.8449C51.1033 44.3834 50.9686 44.922 50.9686 45.4605C50.9686 45.7298 50.834 45.9991 50.9686 46.2683C51.1033 46.9415 51.3725 47.4801 51.6418 48.2879C52.315 48.0186 52.9882 47.884 53.5268 47.6147C53.6614 47.6147 53.796 47.3455 53.9307 47.3455C54.4692 47.0762 54.7385 47.3455 55.1425 47.7494C55.5464 48.1533 55.9503 48.4226 56.2196 48.6918C56.3542 48.8265 56.6234 48.9611 56.7581 49.0958C56.7581 49.0958 56.8927 49.0958 57.0274 49.0958C57.9698 49.2304 58.7777 48.9611 59.5855 48.2879H59.7201C60.124 48.1533 60.528 47.884 60.9319 47.7494C61.2012 47.2108 61.4705 46.8069 61.6051 46.2683C61.7397 45.8644 61.7397 45.3259 61.3358 44.922C61.2012 44.7873 61.2012 44.6527 61.2012 44.518C61.2012 44.2488 61.3358 43.9795 61.3358 43.7102C61.3358 43.1717 61.6051 42.9024 62.009 42.6331C61.7397 41.4214 61.6051 40.6135 61.3358 40.3443ZM14.6162 47.3455C14.4816 47.3455 14.2123 47.3455 14.0777 47.3455C13.9431 47.0762 13.9431 46.8069 14.0777 46.5376C14.347 46.8069 14.4816 46.9415 14.6162 47.2108C14.7508 47.0762 14.6162 47.3455 14.6162 47.3455ZM18.79 38.3247C18.79 37.6515 19.4632 36.709 20.1364 36.4397C19.7325 37.2476 19.194 37.7861 18.79 38.3247ZM21.6174 39.8057C20.9442 40.4789 20.271 40.075 19.5978 40.2096V40.075C19.7325 39.9403 19.8671 39.6711 20.0017 39.5364C20.6749 40.075 21.2135 39.9403 21.8867 39.5364C21.6174 39.6711 21.6174 39.8057 21.6174 39.8057ZM25.522 33.0738C25.522 33.2084 25.6566 33.2084 25.6566 33.343C25.3873 33.4777 25.1181 33.747 24.8488 33.8816C24.8488 33.6123 24.8488 33.4777 25.522 33.0738ZM25.522 38.5939C25.3873 38.7286 25.2526 38.7286 25.118 38.7286V38.5939C25.2526 38.4593 25.3873 38.3247 25.522 38.19H25.7912C25.7912 38.3247 25.6566 38.5939 25.522 38.5939ZM27.9455 34.0162C27.2723 34.2855 27.003 34.5548 27.003 34.9587C26.7337 35.0933 26.5991 35.228 26.3298 35.3626C26.4644 35.0933 26.4644 34.6894 26.8684 34.5548C27.003 34.5548 27.003 34.2855 27.003 34.1509C27.1376 34.0162 27.2722 33.747 27.4069 33.4777C27.5415 33.4777 27.6761 33.4777 27.8108 33.6123L27.9455 33.747C28.0801 34.0162 27.9455 34.0162 27.9455 34.0162ZM29.8303 37.3822C30.2343 37.5168 30.6382 37.6515 31.0421 37.7861C30.5036 37.7861 30.2343 37.6515 29.8303 37.3822ZM31.5807 37.9208C31.4461 37.9208 31.3114 37.7861 31.1767 37.7861C31.3114 37.6515 31.3114 37.5168 31.446 37.5168C31.5807 37.3822 31.8499 37.3822 32.1192 37.2476C32.1192 37.2476 32.1193 37.3822 32.2539 37.5168C32.1193 37.6515 31.85 37.7861 31.5807 37.9208ZM36.697 37.3822C36.5623 37.5168 36.293 37.6515 36.0238 37.7861C36.0238 37.6515 35.8891 37.5168 35.8891 37.3822C35.8891 37.2476 36.0238 37.1129 36.0238 37.1129H36.697C36.697 37.1129 36.8316 37.2476 36.697 37.3822ZM37.1009 34.5548C37.2355 34.4202 37.3701 34.2855 37.5048 34.2855C37.774 34.2855 38.0433 34.1509 38.178 34.5548H37.1009ZM49.3529 38.3247C49.3529 38.19 49.2183 37.9208 49.3529 37.7861C49.4876 37.6515 49.7569 37.5168 50.0261 37.2476L50.1608 37.3822C49.8915 37.7861 49.6222 38.0554 49.3529 38.3247ZM57.0274 47.6147C56.8927 47.7494 56.6235 47.7494 56.4888 47.7494C56.3542 47.7494 56.2196 47.4801 56.2196 47.4801C56.3542 47.2108 56.6234 47.0762 56.7581 46.9415C56.7581 46.9415 56.8927 46.9415 56.8927 47.0762C57.0274 47.2108 57.162 47.4801 57.0274 47.6147ZM58.9123 40.3443L58.7776 40.4789C58.5084 40.4789 58.2391 40.6135 57.9698 40.6135C57.8352 40.4789 57.8352 40.3442 57.7005 40.2096C57.9698 39.9403 58.643 39.9403 58.7776 40.2096C58.9123 40.2096 58.9123 40.2096 58.9123 40.3443Z" fill="#BA1F36"/>
<path d="M59.047 19.6099C59.1816 19.8792 59.3162 20.2831 59.4509 20.5524C59.7201 20.4178 60.1241 20.4178 59.9895 20.0138C59.8548 19.6099 59.9895 18.9367 59.5856 18.6675C59.3163 17.5903 58.3738 17.0518 57.566 16.3786C57.2967 16.244 57.162 15.9747 57.0274 15.84H56.7581C56.4888 15.84 56.3542 15.84 56.0849 15.84C55.9503 15.84 55.8157 15.84 55.8157 15.84C55.5464 15.5708 55.1425 15.5708 54.8732 15.5708C54.3347 15.5708 53.9307 15.4361 53.3921 15.5708C52.9882 15.5708 52.719 15.5708 52.315 15.7054C51.9111 15.84 51.5072 15.9747 51.238 16.1093C50.9687 16.244 50.5648 16.244 50.4302 16.3786C49.8916 16.9172 49.4876 17.4557 48.9491 17.9943C48.8144 18.2635 48.6799 18.3982 48.4106 18.6675L48.2759 18.8021L48.0066 19.0714C48.0066 19.206 48.0066 19.3406 48.0066 19.4753C48.0066 20.0138 48.0066 20.5524 48.0066 21.0909H48.2759H48.4106H48.5452C48.5452 21.0909 48.6798 20.9563 48.8145 20.9563C48.9491 20.687 49.0837 20.4178 49.2184 20.1485C49.4876 19.3406 50.0262 18.6675 50.6994 18.2635C50.9686 17.9943 51.5073 17.9943 51.7765 17.725C52.5844 17.3211 53.3922 17.0518 54.2 17.0518C54.4693 17.0518 54.8732 17.1864 55.1425 17.1864C55.5464 17.1864 55.8156 17.1864 56.0849 17.4557C56.3542 17.5903 56.4889 17.8596 56.6235 18.1289H56.8928H57.0274C57.162 18.2635 57.4313 18.3982 57.566 18.5328C57.7006 18.6675 57.8352 18.9367 58.1045 19.0714C58.5084 18.8021 58.9123 19.0714 59.047 19.6099Z" fill="#BA1F36"/>
<path d="M61.6051 18.9367C61.6051 19.0713 61.7398 19.0713 61.8744 19.0713C62.2784 19.3406 62.6823 19.4752 62.9515 19.8792C63.4901 20.4177 64.5672 19.8792 64.7018 19.3406C64.2979 19.0713 64.0286 18.8021 63.7593 18.3981C63.3554 17.9942 62.9515 17.5903 62.5476 17.321C62.1437 16.9171 61.8744 16.3786 61.6051 15.9746C61.4705 15.7054 61.3358 15.4361 61.0666 15.1668C60.7973 14.7629 60.528 14.4936 60.1241 14.0897C59.8548 13.8204 59.7202 13.5511 59.4509 13.2819C58.7777 12.6087 58.1045 12.0701 57.2967 11.6662C57.2967 11.6662 57.1621 11.6662 57.1621 11.5316L56.4889 10.993C56.2196 10.8584 55.9503 10.5891 55.5464 10.7237C55.4118 10.5891 55.2771 10.4545 55.1425 10.4545C54.604 10.3198 53.9307 10.1852 53.3921 10.1852C52.9882 10.1852 52.4497 10.3198 52.0458 10.3198C51.5072 10.4545 50.9687 10.5891 50.4302 10.5891C50.2955 10.5891 50.1609 10.7237 50.1609 10.7237C50.0262 11.3969 49.353 11.3969 48.9491 11.8008C48.8144 11.9355 48.6798 12.0701 48.5452 12.0701C48.4105 12.0701 48.2759 12.2048 48.2759 12.2048L47.872 12.6087C47.6027 12.878 47.3335 13.2819 47.0642 13.5511C46.6603 13.9551 46.3909 14.359 45.987 14.7629C45.4485 15.4361 44.9099 16.1093 44.506 16.6478C44.2368 16.9171 43.9675 17.321 43.6982 17.5903L43.5635 17.7249C43.1596 18.1289 42.7557 18.6674 42.4865 19.0713C42.4865 19.0713 42.4865 19.206 42.4865 19.3406C42.7557 19.3406 42.8904 19.4752 43.1596 19.4752C43.4289 19.4752 43.5636 19.206 43.8328 19.0713C44.506 18.9367 44.91 18.6674 45.4485 18.1289C45.7178 17.8596 45.8524 17.5903 46.1217 17.321C46.391 17.0517 46.6603 16.7825 46.7949 16.6478C46.9295 16.5132 47.1988 16.5132 47.1988 16.3786C47.3334 15.84 47.7374 15.7054 48.1413 15.4361L48.6798 15.0322C48.6798 14.8975 48.8145 14.8975 48.8145 14.7629C49.0838 14.6283 49.353 14.4936 49.4877 14.2243C49.757 13.8204 50.2955 13.6858 50.6994 13.4165C51.2379 13.1472 51.9112 13.1472 52.5843 13.1472C52.8536 13.1472 53.2575 13.1472 53.2575 12.6087C53.3922 12.7433 53.3922 12.878 53.5268 13.0126C53.6615 12.878 53.7961 12.6087 54.0653 12.474C54.4693 12.474 55.0079 12.474 55.5464 12.6087C56.4889 12.7433 56.7581 12.878 57.0274 13.5511L57.1621 13.4165C57.2967 13.4165 57.566 13.4165 57.7006 13.4165C57.9699 13.4165 58.3738 13.8204 58.5085 13.9551C58.6431 14.2243 58.6431 14.4936 58.9124 14.6283C59.1817 14.8975 59.4509 15.1668 59.7202 15.4361C59.8548 15.5707 59.9894 15.84 60.1241 15.9746C60.3933 16.2439 60.528 16.6478 60.7973 16.9171C60.7973 17.9942 61.2012 18.3981 61.6051 18.9367Z" fill="#BA1F36"/>
<path d="M58.1045 21.3602C57.8352 20.8217 57.5659 20.4177 57.4313 19.8792C57.4313 19.7446 57.2967 19.7446 57.2967 19.6099C57.1621 19.6099 57.0274 19.4753 56.8928 19.3406L56.2196 18.9367C56.2196 18.9367 56.0849 18.9367 56.0849 18.8021C55.8156 18.6674 55.5464 18.5328 55.2771 18.3982C55.0078 18.2635 54.6039 18.3982 54.2 18.2635C53.3922 18.1289 52.5844 18.2635 51.7765 18.8021C51.238 19.0714 50.6994 19.3406 50.4302 19.8792C50.2955 20.1485 50.2955 20.4177 50.1609 20.5524C49.757 21.2256 49.8916 21.8988 50.1609 22.572C50.2955 22.8412 50.4301 23.1105 50.5648 23.5144C50.6994 23.9183 50.8341 24.4569 51.1034 24.7262C51.3726 24.9955 51.6419 25.2647 51.7765 25.3994C52.0458 25.8033 52.4497 25.8033 52.8536 25.8033C53.1229 25.8033 53.3922 25.8033 53.6614 25.8033C54.3346 25.9379 54.8732 25.9379 55.4117 25.6686C55.681 25.534 55.8156 25.3994 56.0849 25.1301C56.0849 25.534 56.2196 25.9379 56.2196 26.2072C56.2196 25.9379 56.3542 25.6687 56.2196 25.534C56.2196 25.1301 56.3542 24.8608 56.7581 24.7262C56.8927 24.5915 57.1621 24.4569 57.1621 24.3223C57.2967 23.9183 57.4313 23.5144 57.7006 23.1105C57.8352 22.7066 57.8353 22.572 57.566 22.3027C58.1045 22.0334 58.3738 21.6295 58.1045 21.3602ZM54.3346 24.3223C54.0654 24.4569 53.6615 24.1876 53.2575 24.1876C53.1229 24.1876 52.9883 24.1876 52.8536 24.053C52.719 24.053 52.5843 23.9183 52.5843 23.7837C52.3151 22.7066 51.9112 21.6295 52.5843 20.5524C52.719 20.4177 52.5843 20.1485 52.719 20.0138C52.9882 19.8792 53.3922 19.6099 53.6614 19.6099C54.0654 19.6099 54.6039 19.8792 55.0078 20.0138C56.2196 20.1485 56.085 21.0909 56.2196 21.8988C56.3542 23.2452 55.4117 24.053 54.3346 24.3223Z" fill="#BA1F36"/>
<path d="M70.6259 18.3982C70.6259 18.1289 70.8952 17.725 70.7605 17.4557C70.6259 16.6479 70.4913 15.9747 70.3566 15.1668C70.3566 15.0322 70.222 14.7629 70.222 14.6283C70.222 14.6283 70.3566 14.6283 70.4912 14.6283C70.3566 14.359 70.222 14.0897 70.4912 13.8204C70.4912 13.8204 70.4912 13.6858 70.4912 13.5512C70.3566 13.4165 70.3566 13.2819 70.222 13.0126H69.8181C69.6834 12.4741 70.222 12.878 70.3566 12.6087C70.222 12.2048 70.6259 11.8009 70.0873 11.5316C70.0873 11.3969 70.222 11.2623 70.222 11.1277C70.0873 10.993 69.9527 10.993 69.8181 10.8584C69.8181 11.1277 69.6834 11.5316 69.6834 11.8009C69.6834 11.9355 69.5488 11.9355 69.4142 11.9355C69.4142 11.8009 69.2795 11.8009 69.2795 11.6662C69.2795 11.3969 69.4142 10.993 69.4142 10.7238C69.2795 10.7238 69.1449 10.8584 69.1449 10.8584C69.1449 10.7238 69.1449 10.4545 69.1449 10.3198L69.2795 10.1852L69.4142 10.3198C69.5488 10.8584 69.5488 10.8584 70.0873 10.7238C70.0873 10.4545 69.9527 10.1852 69.9527 10.0506C69.8181 9.37737 69.6834 8.83881 69.4142 8.30026C69.2795 8.03098 69.1449 7.76171 69.1449 7.49243C69.1449 7.22315 68.8756 7.22315 68.741 7.35779C68.4717 7.62707 68.337 7.62707 68.0678 7.35779C67.7985 7.22315 67.6639 7.22315 67.3946 7.08851C66.856 6.81924 66.3174 6.41532 65.7789 6.28068C65.375 6.28068 65.1057 6.28068 64.8364 6.14604C64.4325 6.0114 64.0286 5.87677 63.6247 5.74213C63.3554 5.60749 62.9515 5.74213 62.6822 5.47285C62.5476 5.33821 62.2783 5.33821 62.009 5.33821C62.009 5.33821 61.8744 5.33821 61.8744 5.47285C62.0091 5.60749 62.009 5.87676 62.1436 6.0114C61.7397 6.14604 61.6051 6.14604 61.6051 5.33821C61.6051 5.47285 61.4704 5.47285 61.4704 5.60749C61.3358 5.33821 61.0666 5.33821 60.9319 5.47285C60.528 5.33821 60.2588 5.06893 59.8548 4.9343C59.7202 4.9343 59.5855 5.06893 59.4509 4.9343C59.1816 4.9343 58.9123 4.79966 58.6431 4.66502C58.5084 4.66502 58.3738 4.66502 58.1045 4.53038C57.9698 4.2611 57.8352 4.2611 57.4313 4.53038C57.2966 4.12646 57.162 3.85719 57.0274 3.45327C57.0274 3.58791 56.8928 3.85719 56.8928 4.12646C56.6235 3.99182 56.4889 3.99182 56.2196 3.99182C56.2196 4.12646 56.2196 4.2611 56.2196 4.2611C56.0849 4.12646 55.8156 3.85719 55.681 3.72255C55.5464 3.58791 55.2771 3.72255 55.1425 3.72255C54.7386 3.72255 54.4692 3.58791 54.0653 3.45327L53.9307 3.58791C53.6614 3.45327 53.5268 3.31863 53.2575 3.31863C52.8536 3.18399 52.3151 3.18399 51.9111 3.04936C51.7765 3.04936 51.5072 2.91472 51.3725 2.91472C51.1033 3.04935 50.6994 3.04935 50.4301 2.91472C50.0262 2.64544 49.4877 2.64544 49.0838 2.64544C48.5452 2.64544 48.4105 2.5108 48.5452 1.97224C48.5452 1.56833 48.5452 1.16441 48.5452 0.760498C48.5452 1.29905 48.4106 1.97224 48.4106 2.5108C47.7374 2.5108 47.0641 2.37616 46.2563 2.37616V2.78008C45.987 2.64544 45.8524 2.5108 45.7178 2.5108C45.0446 2.37616 44.506 2.37616 43.8328 2.24152H43.6982C43.4289 2.24152 43.2943 2.37616 43.025 2.24152C42.4865 2.10688 42.0825 1.97225 41.5439 2.10688C41.4093 2.10688 41.2747 2.10688 41.14 1.97224C41.0054 1.97224 40.8708 1.83761 40.7361 1.83761C40.4669 1.70297 40.0629 1.70297 39.7937 1.56833C39.5244 1.56833 39.3897 1.70297 39.2551 1.56833C38.8512 1.56833 38.4473 1.43369 38.0434 1.43369C37.6395 1.43369 37.2355 1.29905 36.8316 1.29905C36.4277 1.43369 35.8891 1.56833 35.4852 1.16441H35.3506C35.0813 1.16441 34.6774 1.16441 34.4081 1.16441C34.1388 1.16441 34.0042 1.02978 33.7349 1.02978C33.331 1.02978 32.9271 1.02978 32.5231 1.02978C32.2539 1.02978 31.85 0.895138 31.7153 1.02978C31.3114 1.43369 31.3114 1.16441 31.0422 0.895137C30.9075 1.02978 30.9075 1.16441 30.7729 1.29905C30.2343 1.29905 29.5611 1.29905 29.0226 1.29905H28.888C28.2148 1.43369 27.6762 1.56833 27.003 1.56833H26.8684C26.1952 1.43369 25.6566 1.83761 24.9834 1.70297C24.8488 1.70297 24.8488 1.83761 24.7141 1.83761C24.3102 1.83761 23.7717 1.83761 23.3677 1.70297C23.0985 1.56833 22.9639 1.43369 22.8292 1.56833C22.6946 1.56833 22.5599 1.43369 22.4253 1.43369C22.4253 1.56833 22.2906 1.83761 22.2906 1.97224V1.83761C21.8867 1.97224 21.6175 2.10688 21.2136 2.10688C21.0789 2.10688 21.0789 2.10688 20.9443 2.10688C20.675 1.83761 20.5403 1.97225 20.2711 2.24152C20.0018 2.24152 19.8671 2.24152 19.7325 2.37616C19.5978 2.37616 19.5979 2.5108 19.4633 2.5108C18.7901 2.24152 18.2515 2.91472 17.5783 2.78008C17.309 2.64544 17.0397 2.91472 16.6358 2.91472V3.04936C16.6358 2.91472 16.5012 2.91472 16.5012 2.78008C16.0973 2.78008 15.9626 2.91472 15.5587 2.91472L15.4241 2.78008C15.0202 2.78008 14.6162 3.04935 14.3469 2.91472C13.943 2.78008 13.8084 3.31863 13.4045 3.18399C13.1353 3.04935 12.7313 3.45327 12.3274 3.45327C12.0581 3.58791 11.7888 3.72255 11.5196 3.72255C11.1156 3.72255 10.7117 3.72255 10.3078 3.85718C9.63459 3.99182 8.96144 4.2611 8.42289 4.53038C7.88434 4.66502 7.34573 4.79966 6.94182 4.9343C6.67254 5.06893 6.26869 5.06893 5.99941 5.06893C5.86477 5.20357 5.7301 5.20357 5.46082 5.33821C5.19155 5.47285 4.78766 5.47285 4.65303 5.87676H4.51834C4.24906 6.0114 3.97977 6.14604 3.57585 6.41532C3.44121 6.54996 3.30659 6.6846 3.17195 6.6846C2.90268 6.95387 2.49874 7.08851 2.22947 7.35779C2.09483 7.35779 2.09486 7.62707 2.09486 7.76171C2.2295 7.89634 2.36415 8.16562 2.36415 8.30026C2.36415 8.30026 2.22947 8.30026 2.22947 8.4349C2.09483 8.30026 2.09489 8.03098 1.96025 7.76171C1.96025 8.03098 1.82557 8.03098 1.82557 8.16562C1.69093 8.83881 1.55627 9.37737 1.55627 10.0506C1.42163 10.7238 1.4217 11.3969 1.28706 11.9355C1.28706 12.0701 1.28706 12.2048 1.28706 12.3394C1.15242 13.0126 1.01772 13.6858 0.88308 14.4936C0.748441 15.0322 0.748474 15.7054 0.748474 16.2439C0.748474 16.7825 0.748474 17.321 0.748474 17.9942C0.748474 19.0713 0.748474 20.0138 0.748474 21.0909C0.748474 21.4948 0.748441 21.7641 0.88308 22.168C0.88308 22.572 0.88308 22.9759 0.88308 23.3798C0.88308 23.6491 0.748474 24.053 0.748474 24.3223C0.748474 24.4569 0.88308 24.5915 0.88308 24.7262C0.748441 25.2647 0.748441 25.8033 0.88308 26.2072C0.88308 26.4765 0.88308 26.7457 0.88308 26.8804C1.01772 27.2843 1.15241 27.6882 1.01777 28.0921C1.01777 28.2268 1.01777 28.2268 1.01777 28.3614C1.15241 29.0346 1.55631 29.5732 1.42167 30.2464C1.42167 30.2464 1.55627 30.381 1.55627 30.5156C1.69091 30.7849 1.8256 31.0542 1.69096 31.1888C1.42168 31.5927 1.69098 31.5927 1.96025 31.5927C1.96025 31.9967 1.82557 32.2659 1.82557 32.6698H1.96025C1.96025 32.8045 2.09486 32.9391 2.09486 33.0738C2.2295 33.6123 2.09489 34.1509 2.63345 34.4201C2.76809 34.4201 2.76805 34.5548 2.76805 34.6894C2.76805 34.9587 2.76805 35.228 2.76805 35.4973C2.90269 35.4973 3.03735 35.3626 3.03735 35.3626C3.17199 35.4973 3.30661 35.7665 3.44125 35.9012C3.57588 36.0358 3.57585 36.1705 3.57585 36.3051C3.57585 36.3051 3.84519 36.3051 3.97983 36.3051C4.51839 36.1705 5.05691 36.1704 5.46082 35.9012C6.26866 35.4973 6.94182 34.1509 6.26862 33.2084C5.99935 32.6698 5.59545 32.2659 5.19153 31.7274C4.92225 31.3235 4.65303 31.0542 4.65303 30.6503C4.65303 30.1117 4.51832 29.5732 4.92224 29.1692C5.05688 29.0346 5.05693 28.9 5.05693 28.7653C5.05693 27.6882 5.19151 26.6111 4.92224 25.534C4.7876 25.2647 4.78766 24.8608 4.65303 24.5915C4.38375 23.9183 4.24911 23.1105 3.97983 22.4373C3.97983 22.3027 4.11441 22.168 4.24904 21.8988C4.38368 21.6295 4.38373 21.3602 4.38373 21.0909C4.51837 20.5524 4.65299 19.8792 4.78763 19.3406C4.78763 19.206 4.92224 18.9367 4.92224 18.8021C5.05688 18.1289 5.19153 17.321 5.19153 16.6479C5.19153 16.5132 5.19153 16.3786 5.19153 16.2439C5.19153 16.1093 5.19153 15.84 5.19153 15.7054C5.19153 15.5707 5.32617 15.4361 5.19153 15.3015C5.05689 14.7629 5.05688 14.2244 4.92224 13.6858C4.92224 13.4165 4.78766 13.1472 4.65303 12.878C5.05694 12.878 5.19158 11.9355 5.99941 12.3394C5.99941 12.3394 5.99938 12.3394 6.13402 12.2048C6.40329 11.8009 6.5379 11.3969 6.94182 11.1277V10.993C7.07645 10.5891 7.21116 10.1852 7.3458 9.91592C7.3458 9.78128 7.61501 9.64665 7.61501 9.64665C8.2882 9.78128 8.96143 9.78128 9.49998 9.37737C10.0385 9.10809 10.5771 8.83881 11.1157 8.4349C11.5196 8.16562 11.6542 7.62707 11.9235 7.35779C12.462 7.49243 12.8659 7.62707 13.2698 7.76171C13.6738 7.89634 13.9431 7.89634 14.4816 7.89634C14.7509 7.7617 15.2894 7.62707 15.6933 7.35779C15.9626 7.22315 16.2319 6.95387 16.3665 6.95387C16.6358 6.95387 16.9051 6.81923 17.0397 6.54996C17.0397 6.28068 17.4437 6.28068 17.5783 6.41532C17.9822 6.6846 18.2515 6.95387 18.6554 7.35779C18.79 7.22315 18.9247 7.08851 18.9247 7.08851C19.0593 7.22315 19.0593 7.35779 19.0593 7.49243C19.1939 7.35779 19.1939 7.35779 19.3286 7.22315C19.3286 7.7617 19.7325 7.49243 20.0018 7.49243C19.8671 7.62707 19.8671 7.7617 19.7325 7.89634C20.1364 8.16562 20.4057 8.16562 20.8097 8.03098C21.3482 7.7617 21.7521 7.49243 22.2906 7.22315C22.4253 7.08851 22.5599 7.08851 22.6945 6.95387C22.9638 6.6846 23.3678 6.28068 23.637 6.0114C23.637 6.0114 23.9063 6.0114 24.0409 6.0114C24.7141 6.28068 25.2527 6.54996 26.0605 6.6846C27.003 6.6846 27.9455 6.54996 28.7533 5.87676C29.0226 5.60749 29.2919 5.60749 29.6958 5.74213C30.369 6.14604 31.0421 6.41532 31.85 6.28068C31.9846 6.28068 32.1193 6.28068 32.2539 6.41532C32.9271 6.81924 33.735 6.6846 34.2735 6.28068C34.5428 6.0114 34.8121 5.74213 35.3506 6.14604C35.8892 6.41532 36.4277 6.6846 37.1009 6.6846C37.7741 6.6846 38.4473 6.6846 39.1205 6.6846C39.2551 6.6846 39.5244 6.6846 39.5244 6.6846C39.7936 6.54996 40.063 6.41532 40.3323 6.41532C40.8708 6.28068 41.4093 6.28068 41.8132 6.28068C42.2172 6.28068 42.6211 6.14604 42.7557 6.6846L42.8903 6.81923C43.4289 6.81923 43.8328 7.08851 44.2367 7.22315C45.1792 7.49243 46.2563 7.49243 47.1988 6.95387C47.4681 6.81924 47.872 6.54996 48.1413 6.41532H48.2759H49.353C49.6222 6.6846 50.0262 7.08851 50.4301 7.22315C50.8341 7.49243 51.2379 7.49243 51.6418 7.62707C51.9111 7.76171 52.3151 7.89634 52.5843 8.03098C53.1229 8.30026 53.5268 8.30026 54.0653 8.03098C54.6039 7.7617 55.2771 7.49243 55.9503 7.08851C56.2196 7.22315 56.4888 7.49243 56.7581 7.76171L56.8928 8.03098C57.4313 8.30026 57.8352 8.4349 58.3738 8.70417C59.047 8.97345 59.5855 9.24273 60.3934 9.24273C61.0665 9.24273 61.7398 9.10809 62.2783 9.10809C62.5476 9.10809 62.6822 9.10809 62.9515 9.10809C62.9515 10.1852 63.4901 10.7238 64.2979 11.1277C64.8365 11.3969 65.5096 11.5316 66.0482 11.6662C66.3175 11.8009 66.4521 11.8009 66.4521 12.2048C66.3174 12.878 66.1828 13.5512 66.3175 14.2244C66.4521 14.7629 66.4521 15.1668 66.4521 15.7054C66.5867 16.6479 66.5867 17.5903 66.856 18.3982C66.9906 18.9367 67.1253 19.6099 67.5292 20.1485C67.6638 20.4177 67.7985 20.687 67.7985 21.0909C67.9331 21.7641 67.5292 22.4373 67.26 22.9759C66.7214 23.7837 66.5868 24.7262 66.3175 25.534C65.9136 26.3418 66.0482 27.2843 65.9136 28.2268C65.7789 28.7653 65.7789 29.4385 65.5096 29.9771C65.375 30.2464 65.375 30.6503 65.2404 30.9195C65.1057 31.1888 64.8364 31.1888 64.7018 31.3235C64.0286 31.9967 63.3554 32.8045 63.3554 33.8816C63.3554 34.5548 63.4901 34.8241 64.0286 34.9587C64.2979 35.0933 64.4325 35.3626 64.7018 35.4973C64.8364 35.4973 64.9711 35.3626 65.1057 35.3626C65.2403 35.3626 65.375 35.4973 65.5096 35.4973C65.5096 35.228 65.375 34.9587 65.375 34.8241C65.375 34.6894 65.375 34.6894 65.5096 34.5548C65.5096 34.5548 65.6443 34.5548 65.7789 34.5548C65.9135 34.6894 66.0482 34.9587 66.1828 35.0933C66.3174 35.0933 66.4521 34.9587 66.5868 34.9587C66.7214 35.3626 66.5867 35.4973 66.1828 35.4973C66.0482 35.4973 66.0482 35.4973 65.9136 35.4973C65.7789 35.4973 65.7789 35.6319 65.6443 35.6319L65.7789 35.7665C65.9135 35.7665 66.1828 35.9012 66.3175 35.7665C66.7214 35.3626 66.9907 34.9587 67.3946 34.5548C67.5292 34.2855 67.6638 34.0162 67.7985 33.747C68.2024 33.343 68.0678 32.8045 68.3371 32.4006C68.6063 31.9967 68.6064 31.5927 68.6064 31.1888C68.741 30.7849 68.741 30.5156 68.741 30.1117C68.8756 29.9771 69.0103 29.8424 69.0103 29.7078C69.1449 29.0346 69.4142 28.496 69.4142 27.8229C69.4142 27.6882 69.4141 27.5536 69.5488 27.4189C69.9527 27.015 69.9527 26.4765 70.0873 26.0726C70.0873 25.9379 69.9527 25.6686 69.9527 25.534C69.9527 25.534 69.9527 25.534 69.9527 25.3994C70.0874 25.3994 70.222 25.3994 70.3566 25.3994C70.3566 24.9954 70.3566 24.7262 70.3566 24.3223C70.3566 23.7837 70.222 23.2451 70.4912 22.572C70.6259 22.3027 70.7605 21.8988 70.222 21.7641C70.3566 21.7641 70.4913 21.7641 70.6259 21.6295C70.6259 20.9563 70.7605 20.2831 70.7605 19.4753C70.7605 18.9367 71.0298 18.3982 70.7605 17.725C70.6259 18.3982 70.6259 18.3982 70.6259 18.3982ZM4.11444 32.5352C4.51835 33.343 4.78766 34.1509 4.65303 34.9587C4.78766 34.9587 4.92229 34.9587 5.05693 34.9587C5.19156 34.9587 5.32622 34.9587 5.32622 34.9587C5.32622 35.0933 5.32622 35.228 5.32622 35.3626C5.32622 35.4973 5.32617 35.6319 5.19153 35.7665C4.78762 35.9012 4.38375 36.0358 3.97983 36.1704C3.97983 36.0358 3.97983 36.0358 3.97983 36.0358C4.51839 35.7665 4.24908 35.4973 4.11444 35.0933C3.9798 34.8241 4.11444 34.5548 4.11444 34.2855C4.11444 34.1509 3.97983 34.0162 3.97983 34.0162C3.84519 33.8816 3.71054 33.8816 3.71054 33.747C3.84518 33.6123 3.84519 33.6123 3.97983 33.4777L3.84515 33.343C3.97978 32.9391 4.11444 32.8045 4.11444 32.5352ZM4.38373 18.3982C4.24909 18.9367 4.11447 19.3406 3.97983 19.8792H3.84515C3.84515 19.6099 3.97983 19.3406 3.97983 18.9367C3.97983 18.8021 3.97983 18.5328 3.97983 18.3982C3.97983 18.2635 3.97983 18.2635 3.97983 18.1289H4.11444C4.38372 18.2635 4.38373 18.2635 4.38373 18.3982ZM12.462 7.22315C12.3274 7.22315 12.1927 7.08851 12.3274 7.08851C12.3274 6.95387 12.462 6.81923 12.5967 6.81923C12.7313 6.95387 12.8659 6.95387 13.0006 7.08851V7.22315C12.7313 7.22315 12.5967 7.22315 12.462 7.22315ZM20.4057 4.79966C20.271 4.79966 20.1365 4.66502 20.1365 4.39574C20.1365 4.12646 20.1364 3.99182 20.2711 3.58791C20.4057 3.58791 20.5403 3.58791 20.675 3.58791C20.5403 3.99182 20.4057 4.39574 20.4057 4.79966ZM20.675 6.95387C20.9442 6.81924 21.2136 6.81923 21.4828 6.6846C21.4828 7.08851 21.0789 7.22315 20.675 6.95387ZM22.5599 5.33821H21.8867C21.8867 5.87676 21.3482 5.33821 21.2136 5.60749C21.3482 5.60749 21.4828 5.74213 21.4828 5.74213C21.4828 5.74213 21.4828 5.87676 21.3482 5.87676C21.0789 5.74213 20.8096 5.60749 20.5404 5.33821C20.675 5.20357 20.5403 4.93429 20.9443 5.20357C21.0789 5.20357 21.3482 5.20357 21.3482 5.06893C21.4828 4.9343 21.6174 4.66502 21.7521 4.39574V4.66502C22.156 4.93429 22.2907 5.06893 22.5599 5.33821ZM25.6566 6.41532C25.6566 6.41532 25.522 6.28068 25.522 6.14604L25.6566 6.0114C25.9259 6.0114 26.1952 6.0114 26.3298 6.41532C26.0605 6.41532 25.7913 6.41532 25.6566 6.41532ZM29.0226 3.04936C28.8879 3.04936 28.7533 3.04936 28.6187 3.04936C28.484 3.04936 28.2147 3.18399 28.0801 3.04936C28.0801 2.91472 27.8108 3.04936 27.6762 3.04936C27.6762 3.31863 27.5416 3.45327 27.5416 3.72255H27.6762C27.6762 3.72255 27.6762 3.72255 27.6762 3.85718C27.4069 3.99182 27.1376 3.99182 26.7337 4.12646C26.8683 3.99182 26.3298 3.58791 27.003 3.45327C27.003 3.45327 27.1376 3.18399 27.1376 3.04936C26.8683 3.04936 26.599 2.91472 26.4644 2.91472C27.5415 2.78008 28.6187 2.5108 29.6958 2.78008C29.6958 2.91472 29.4265 3.18399 29.0226 3.04936ZM29.9651 3.31863C29.9651 3.18399 29.9651 2.91472 29.9651 2.91472C30.2343 2.91472 30.369 2.91472 30.6383 2.78008V2.91472C30.5036 3.18399 30.2343 3.18399 29.9651 3.31863ZM34.0042 5.87676C33.8696 6.0114 33.6003 6.28068 33.331 6.14604C33.0618 6.14604 32.7925 6.14604 32.3885 6.14604C32.2539 6.14604 32.1193 6.0114 31.9846 6.0114C32.5232 5.87676 32.9271 5.87677 33.4656 5.74213L33.6003 5.60749C33.735 5.60749 33.7349 5.47285 33.8695 5.47285C34.0042 5.60749 34.0042 5.74213 34.0042 5.87676ZM59.4509 8.70417C59.8548 8.4349 59.8548 8.56954 59.9895 8.97345C59.8548 8.97345 59.5855 8.97345 59.4509 8.70417ZM60.3934 6.54996C60.1241 6.54996 59.9895 6.54996 59.5856 6.54996C59.7202 6.6846 59.8548 6.6846 59.9895 6.81923C59.9895 7.08851 59.7202 7.08851 59.5856 6.95387C59.4509 6.54996 59.1816 6.6846 58.9124 6.54996C58.9124 6.6846 58.9123 6.81924 59.047 6.95387C58.9123 7.08851 58.9123 7.08851 58.6431 6.54996C58.5084 6.41532 58.3738 6.41532 58.1045 6.28068H57.1621C57.2967 5.87677 57.0274 5.33821 57.566 4.9343C57.566 5.06893 57.7006 5.20357 57.7006 5.20357C57.9699 5.20357 58.1045 5.20357 58.3738 5.20357C58.5084 5.20357 58.643 5.47285 58.7777 5.47285L58.9124 5.33821C59.047 5.33821 59.1816 5.33821 59.3163 5.33821C59.4509 5.60749 59.5855 5.74213 59.9895 5.74213C60.1241 5.74213 60.2587 5.74213 60.3934 5.87676C60.528 6.0114 60.6627 6.0114 60.9319 6.14604C61.0666 6.28068 61.2012 6.28068 61.0665 6.28068C60.9319 6.54996 60.7973 6.6846 60.6626 6.95387C60.3934 6.6846 60.3934 6.54996 60.3934 6.54996ZM60.528 7.35779C60.7973 7.22315 60.932 7.08851 61.2012 6.95387C61.2012 7.08851 61.2012 7.22315 61.3358 7.35779C61.0666 7.49243 60.932 7.35779 60.528 7.35779ZM64.0286 7.22315C64.0286 7.62707 63.6247 7.49243 63.3554 7.62707L63.2208 7.49243C63.2208 6.95387 62.8168 7.08851 62.4129 6.95387C62.6822 6.81924 62.9515 6.6846 63.2208 6.54996C63.3554 6.81923 63.4901 7.08851 63.6247 7.35779C63.7593 7.22315 63.894 7.22315 64.0286 7.22315C64.4325 7.08851 64.7018 7.35779 64.9711 7.62707C64.1633 7.62707 64.1632 7.62707 64.0286 7.22315ZM65.2404 10.3198C64.8365 10.1852 64.5672 10.0506 64.2979 9.91592C64.2979 9.91592 64.2979 9.78128 64.4325 9.78128C64.7018 9.91592 65.1057 9.91592 65.5096 10.0506C65.375 10.0506 65.375 10.1852 65.2404 10.3198ZM68.741 19.3406C68.741 19.206 68.741 19.0713 68.741 18.9367C68.6063 18.9367 68.4717 18.9367 68.3371 18.9367C69.0103 18.9367 68.4717 18.2635 68.741 17.9942H68.8756C69.0102 18.2635 69.1449 18.6674 69.1449 18.9367C69.2795 19.0713 68.8756 19.206 68.741 19.3406Z" fill="#BA1F36"/>
<path d="M63.3554 25.3993C63.49 25.534 63.6247 25.534 63.6247 25.534C63.6247 25.534 63.6246 25.534 63.7593 25.534C63.7593 25.3993 63.6247 25.2647 63.6247 25.13C63.6247 24.9954 63.49 24.9954 63.49 24.8608C63.49 24.7261 63.49 24.5915 63.3554 24.4568C62.6822 24.0529 62.009 23.5144 61.3358 23.1105C60.9319 22.8412 60.528 22.4373 59.8548 22.5719C59.5855 22.5719 59.1816 22.8412 59.3162 22.9758C59.7201 23.2451 59.7201 23.7837 59.9894 24.0529C60.2587 24.4568 60.5279 24.7261 60.7972 25.13C60.9318 25.3993 60.9319 25.3993 60.6626 25.534C60.124 25.8032 59.5855 26.2071 59.0469 26.4764C58.5084 26.7457 57.9698 27.015 57.4312 27.1496C57.162 27.1496 56.7581 27.5535 56.4888 27.1496C56.3542 27.2843 56.2195 27.4189 56.0849 27.4189C55.5463 27.5535 55.1424 27.5535 54.6039 27.6882C54.1999 27.8228 53.9307 27.6882 53.5268 27.5535C53.2575 27.4189 52.9882 27.1496 52.7189 27.1496C52.0457 27.1496 51.5072 27.015 50.834 26.8803C50.5647 26.7457 50.2954 26.7457 50.0261 26.7457C49.8915 26.7457 49.7569 26.7457 49.7569 26.6111C49.2184 26.3418 48.8144 26.0725 48.2758 25.6686C48.2758 25.6686 48.2759 25.6686 48.1412 25.534L47.8719 25.2647C47.1987 25.3993 47.0641 24.7261 46.5255 24.5915C46.9295 24.3222 47.3334 24.0529 47.8719 23.9183L48.0065 22.7065C47.3333 22.4373 46.7948 22.7065 46.2563 22.9758C45.4484 23.5144 44.6406 24.0529 43.6982 24.5915C43.4289 24.7261 43.2942 24.8608 43.5635 25.13C43.4288 25.2647 43.4288 25.2647 43.2942 25.3993C43.4288 25.3993 43.5635 25.534 43.5635 25.534C43.6981 25.534 43.8327 25.6686 43.9674 25.6686C45.1791 26.2071 46.2563 26.7457 47.468 27.2843L48.1412 27.4189C48.2759 27.4189 48.2759 27.4189 48.4105 27.5535C48.9491 27.8228 49.6223 27.9575 50.1608 28.2267C50.9686 28.6306 51.7765 28.6306 52.5843 28.7653C53.2575 28.8999 54.0653 28.8999 54.7385 29.0346C55.0077 29.0346 55.2771 29.1692 55.5464 29.1692C55.8156 29.0346 56.0849 29.1692 56.4888 29.1692C56.4888 29.1692 56.6234 29.0346 56.758 28.8999C57.7005 28.6306 58.7777 28.6306 59.5855 28.0921C59.9894 27.8228 60.528 27.6882 60.9319 27.4189C61.6051 27.015 62.1436 26.4764 62.8168 26.0725C63.0861 25.9379 63.3554 25.6686 63.6247 25.3993C63.49 25.6686 63.3554 25.534 63.3554 25.3993Z" fill="#BA1F36"/>
<path d="M12.3274 14.8975C11.9235 15.4361 11.5196 16.1093 10.981 16.6478C10.1732 17.5903 9.36537 18.5328 8.55753 19.4752C8.15362 19.8792 7.88439 20.4177 7.34584 20.687C7.07656 20.9563 6.80723 21.0909 6.53796 21.3602C6.40332 21.4948 6.13409 21.6295 5.99945 21.6295C6.13409 22.0334 6.26866 22.168 6.26866 22.5719C6.53794 22.5719 6.94192 22.4373 7.34584 22.4373C7.48048 22.4373 7.7497 22.3027 7.88434 22.168C8.28826 21.8987 8.69221 21.6295 9.09612 21.3602C9.09612 21.3602 9.09612 21.3602 9.09612 21.2256C9.50004 20.687 9.9039 20.1484 10.3078 19.6099C10.4425 19.3406 10.7118 19.206 10.8464 18.9367C10.981 18.8021 10.9811 18.6674 11.1157 18.5328C11.385 18.2635 11.3849 17.9942 11.9235 17.9942V17.8596C12.0581 17.5903 12.3274 17.4557 12.4621 17.1864C12.5967 16.9171 13.0006 16.6478 13.2699 16.3786C13.4045 16.2439 13.5391 16.1093 13.6738 15.9746C13.8084 15.84 13.9431 15.7054 14.0778 15.5707L14.2124 15.7054C14.347 15.4361 14.6163 15.1668 14.751 15.0322C15.1549 14.8975 15.4241 14.6283 15.5588 14.2243C15.6934 14.2243 15.9627 14.2243 15.9627 14.2243C16.5012 13.6858 17.1744 13.6858 17.8476 13.5511C18.2515 13.4165 18.7901 13.4165 19.194 13.2819C20.4058 13.1472 21.2136 13.6858 22.1561 14.359C22.2907 14.359 22.2907 14.6283 22.2907 14.7629C22.2907 15.0322 22.2907 15.3015 22.2907 15.4361C22.2907 15.4361 22.2907 15.4361 22.4253 15.4361C22.4253 15.3015 22.4253 15.1668 22.56 14.8975C22.8293 15.3015 23.0985 15.5707 23.2332 15.84C23.7717 16.5132 24.1756 17.1864 24.7142 17.8596L24.8489 17.9942C24.9835 18.1289 25.1181 18.3981 25.2528 18.5328C25.3874 18.6674 25.522 18.8021 25.522 18.8021C25.6567 19.0713 26.3299 19.4752 26.5991 19.4752C26.8684 19.4752 27.0031 19.3406 26.8684 19.0713C26.7338 18.8021 26.5991 18.3981 26.3298 18.3981C26.0606 18.2635 26.0606 17.9942 26.0606 17.8596C26.0606 17.7249 26.0606 17.5903 26.0606 17.4557C25.7913 17.0518 25.6566 16.6478 25.3874 16.2439C24.5795 15.3015 24.041 14.0897 23.3678 13.0126C23.3678 12.878 23.2331 12.878 23.0985 12.7433C22.8292 12.6087 22.56 12.3394 22.2907 12.2048C22.156 12.0701 21.8867 12.0701 21.7521 11.9355C21.4828 11.6662 21.2136 11.5316 20.9443 11.2623C20.675 10.993 20.1365 10.993 20.0018 10.4545H19.7325C19.4632 10.4545 19.194 10.4545 19.0593 10.4545C18.9247 10.4545 18.6555 10.3198 18.5208 10.3198C17.9823 10.3198 17.5783 10.3198 17.0397 10.3198C16.9051 10.3198 16.9052 10.3198 16.7705 10.4545C16.3666 10.7237 16.0973 10.993 15.6934 11.1277C15.1548 11.2623 14.7509 11.6662 14.4817 12.0701C14.0777 12.0701 14.0777 11.9355 13.9431 11.8008C13.9431 12.0701 13.8084 12.474 13.6738 12.7433C13.5391 13.5511 12.866 14.2243 12.3274 14.8975Z" fill="#BA1F36"/>
<path d="M16.6358 30.9196H16.7705C16.9051 30.5157 17.309 30.7849 17.5783 30.7849C18.1169 30.6503 18.7901 30.5157 19.4633 30.381C19.7325 30.2464 20.1364 30.2464 20.4057 30.1117C20.8096 29.9771 21.3481 29.7078 21.7521 29.5732C21.8867 29.5732 22.0214 29.4385 22.156 29.3039C22.4253 29.1693 22.5599 28.7654 22.9638 29.0346C23.0985 28.9 23.0985 28.7653 23.2331 28.7653C23.7717 28.3614 24.4449 27.9575 24.9834 27.6882C25.522 27.419 26.0605 27.1497 26.5991 26.8804C27.1377 26.7458 27.2723 26.3419 27.5416 25.9379C27.5416 25.9379 27.5415 25.6687 27.4069 25.6687C27.1376 25.3994 26.8684 25.1301 26.5991 24.9955C25.9259 24.4569 25.1181 24.053 24.3102 23.6491C24.0409 23.5144 23.637 23.3798 23.3677 23.3798C22.9638 23.3798 22.6945 23.3798 22.6945 22.9759H22.5599C22.5599 23.5144 22.5599 24.053 22.6945 24.5916C23.3677 25.1301 23.9063 25.534 24.4448 26.0726C24.3102 26.0726 24.3103 26.2072 24.1756 26.3419C23.7717 26.6111 23.2332 26.7458 22.8292 27.015C22.156 27.5536 21.3481 28.0922 20.4057 28.4961C19.4632 28.9 18.5208 29.0346 17.5783 29.1693C16.5012 29.3039 15.5587 29.4385 14.6162 28.6307H14.4816C13.6738 28.3614 12.866 28.0922 12.462 27.2843C12.3274 27.1497 12.1927 26.8804 11.9235 27.015C11.6542 26.6111 11.3849 26.2072 11.2503 25.8033C11.6542 25.534 12.0581 25.2647 12.462 24.9955C12.462 24.9955 12.462 24.9955 12.462 24.8608C12.3274 24.8608 12.3274 24.8608 12.0581 24.8608C12.1928 24.5916 12.3274 24.5916 12.462 24.4569C12.462 24.3223 12.462 24.3223 12.462 24.1876C12.3274 24.053 11.5196 23.7837 11.385 23.7837C10.4425 24.3223 9.63465 24.7262 8.69218 25.3994C8.55754 25.534 8.5575 25.8033 8.5575 26.0726C8.69213 26.3419 8.82681 26.6111 9.09608 26.7458C9.63464 27.2843 10.1732 27.8229 10.7118 28.3614C10.8464 28.4961 11.1157 28.6307 11.385 28.7653C11.9235 29.3039 12.462 29.8425 13.0006 30.381C13.1352 30.2464 13.1352 30.2464 13.2698 30.1117V30.2464C13.6738 30.381 13.943 30.381 14.3469 30.5156C14.4816 30.5156 14.6162 30.6503 14.8855 30.7849C15.0202 30.6503 15.2895 30.6503 15.4241 30.7849C15.5588 30.9196 15.6933 30.9196 15.6933 30.9196C16.0972 30.9196 16.3666 30.7849 16.7705 30.7849C16.6359 30.7849 16.6358 30.9196 16.6358 30.9196Z" fill="#BA1F36"/>
<path d="M60.124 51.3846C59.9894 51.25 59.7201 51.3846 59.4508 51.5193C59.3162 51.5193 59.1816 51.6539 59.0469 51.6539C58.5084 52.0578 57.8352 51.9232 57.162 52.0578C56.6235 52.0578 56.2195 52.0578 55.681 51.9232V52.0578C55.5463 52.1925 55.4117 52.3271 55.2771 52.4617C55.1424 52.5964 55.0078 52.5964 55.0078 52.5964C54.6039 52.8657 54.3346 53.1349 53.9307 53.4042C53.5268 53.8081 52.9882 54.0774 52.5843 54.3467C51.9111 54.3467 51.2379 54.3467 50.5647 54.3467C50.2954 54.3467 50.0262 54.3467 49.8915 54.7506C49.7569 54.7506 49.6223 54.616 49.4876 54.616C49.2183 54.7506 48.949 54.8852 48.6797 54.8852C48.5451 54.8852 48.4105 55.0199 48.4105 55.1545C48.4105 55.4238 48.2758 55.6931 48.2758 56.097C48.2758 56.097 48.2759 56.097 48.1412 56.097C48.0066 56.2316 47.8719 56.3663 47.8719 56.5009C47.7373 57.0395 47.468 57.4434 46.7948 57.578C45.987 57.7126 45.7177 58.3858 45.5831 59.059C45.5831 59.1937 45.7178 59.4629 45.7178 59.4629L48.1412 59.5976C48.2759 59.3283 48.6798 59.059 48.4105 58.7897V58.6551C48.5452 58.7898 48.6797 59.059 48.6797 59.1937C48.949 59.059 49.0837 58.9244 49.2183 58.7897C49.4876 58.7897 49.8915 58.5205 50.0261 58.1166C50.2954 58.1166 50.5647 58.2512 50.834 58.2512C50.9686 58.2512 51.1033 58.2512 51.1033 58.2512C51.6419 57.8473 52.0457 57.578 52.5843 57.1741C52.8536 57.0395 53.1228 56.6355 53.3921 56.6355C53.9306 56.6355 54.4692 56.3663 54.6039 55.9623C54.8731 55.9623 55.1424 55.9623 55.2771 55.8277C55.8156 55.4238 56.2195 55.0199 56.7581 54.616C57.2966 54.212 57.7006 53.8081 58.2391 53.4042C58.7777 53.0003 59.1816 52.731 59.7201 52.4617C59.8548 52.4617 59.9894 52.1925 59.8548 52.1925C60.2587 51.7885 60.2587 51.5193 60.124 51.3846Z" fill="#BA1F36"/>
<path d="M25.7912 49.4996C26.0605 49.4996 26.3298 49.4996 26.5991 49.365C26.8684 49.2303 27.1376 48.9611 27.4069 48.9611C27.8108 48.8264 27.8108 48.5571 27.8108 48.2879C27.8108 47.6147 27.9454 46.8068 27.8108 46.1337C27.8108 45.1912 27.9454 44.2487 27.8108 43.3062C27.6761 42.2291 27.003 41.8252 26.0605 41.9599C25.7912 41.9599 25.522 42.0945 25.2527 41.9599C24.1756 41.6906 23.3678 42.7677 23.2331 43.7102C23.2331 44.1141 23.0984 44.518 23.0984 44.9219C22.9638 44.6526 22.8292 44.518 22.8292 44.2487C22.8292 45.8644 22.8292 47.3454 22.8292 48.8264C22.9639 48.8264 23.0985 48.8264 23.2331 48.8264C23.5024 48.9611 23.7716 49.0957 24.0409 49.2303C24.5795 49.6343 25.2527 49.4996 25.7912 49.4996Z" fill="#BA1F36"/>
<path d="M14.0777 25.3993C14.2124 25.9379 14.4816 26.4764 14.6162 26.8804C14.8855 26.8804 15.0202 27.015 15.1548 27.015C15.4241 27.1496 15.6934 27.5535 16.0973 27.5535C16.3666 27.5535 16.6358 27.6882 16.9051 27.6882C17.309 27.6882 17.5783 27.8228 17.9822 27.6882C18.5208 27.6882 19.0593 27.5535 19.5979 27.4189C20.0018 27.2843 20.4057 26.8804 20.675 26.6111C20.9443 26.3418 21.2136 26.0725 21.2136 25.6686C21.2136 25.534 21.3482 25.2647 21.3482 25.13C21.6175 24.5915 21.4828 24.0529 21.2136 23.5144V23.3797C21.4828 22.9758 21.2135 22.7066 21.0789 22.4373C20.8096 21.8987 20.2711 21.3602 20.2711 20.687L20.1365 20.5523C19.4633 20.2831 18.7901 20.0138 18.2515 19.7445V19.8791C18.1169 19.8791 17.9822 20.0138 17.8476 20.0138C17.5783 20.0138 17.4437 20.0138 17.1744 20.0138C16.9051 20.0138 16.6358 20.0138 16.3665 20.0138C16.2319 20.0138 16.0973 20.2831 15.828 20.2831C15.4241 20.4177 15.0202 20.5523 14.6162 20.687C14.6162 20.4177 14.6162 20.1484 14.6162 19.8791C14.4816 20.5523 14.347 21.0909 14.347 21.6294C14.2123 21.7641 14.0777 21.8987 14.0777 21.8987C13.9431 22.168 13.9431 22.5719 13.9431 22.8412C13.9431 23.3798 13.9431 23.7837 13.9431 24.3222C13.9431 24.4569 14.0777 24.5915 14.0777 24.7261C14.0777 24.7261 14.0777 24.7261 14.2123 24.7261C14.2123 24.5915 14.2123 24.4569 14.347 24.3222H14.4816C14.4816 24.5915 14.347 24.7261 14.347 24.9954C14.0777 25.13 13.9431 25.2647 14.0777 25.3993ZM16.9051 21.7641C17.1744 21.4948 17.713 21.6294 18.1169 21.4948C18.5208 21.3602 18.9247 21.6294 19.194 21.8987C19.5979 22.168 19.7325 22.5719 19.8672 22.9758C20.1365 23.7837 20.2711 24.5915 19.8672 25.2647C19.4633 25.8032 18.9247 26.2072 18.3861 26.6111C18.2515 26.7457 17.9822 26.7457 17.7129 26.6111C17.4436 26.4764 17.1744 26.3418 16.9051 26.0725C16.5012 25.6686 16.2319 25.2647 15.828 24.8608C15.6934 24.7261 15.6934 24.7261 15.4241 24.7261C15.2895 23.3797 15.9626 22.4373 16.9051 21.7641Z" fill="#BA1F36"/>
<path d="M22.0213 58.3858C21.8867 58.1165 21.8867 57.8472 21.8867 57.8472C21.4828 57.8472 21.6175 57.578 21.4828 57.4433L21.3481 57.3087C21.2135 57.1741 21.0788 57.1741 21.0788 57.0394C20.9442 56.9048 20.675 56.6355 20.5403 56.3662C20.4057 56.0969 20.271 55.8277 20.0018 55.5584C19.7325 55.2891 19.5979 54.8852 19.194 54.6159C18.9247 54.3466 18.3861 54.3466 17.9822 54.212C17.8475 54.212 17.7129 54.0774 17.5783 53.9427C17.4436 53.9427 17.4436 53.8081 17.309 53.9427C16.7704 54.0774 16.3665 53.9427 16.2319 53.2695C16.0972 52.8656 16.0972 52.5963 15.9626 52.1924C15.9626 52.0578 15.6933 51.9231 15.6933 51.9231C15.2894 52.0578 15.0201 51.9231 14.8855 51.6539C14.6162 51.6539 14.4816 51.7885 14.2123 51.7885C14.0777 51.7885 13.8084 51.6539 13.6737 51.7885C13.2698 51.9231 12.8659 52.0578 12.462 52.0578C12.1927 52.0578 11.9234 51.9231 11.6541 51.9231C11.5195 51.9231 11.3849 51.9231 11.2502 51.9231C11.2502 52.0578 11.3849 52.1924 11.3849 52.1924C11.3849 52.3271 11.5195 52.3271 11.5195 52.4617C12.0581 53.4042 12.5966 54.3466 13.5391 54.8852C13.6738 54.8852 13.6738 55.0198 13.8084 55.1545C13.943 55.5584 14.3469 55.693 14.6162 55.8277C14.7508 55.9623 15.0202 55.9623 15.1548 56.0969C15.6934 56.5009 16.0973 56.9048 16.7705 57.3087C16.7705 57.0394 16.9051 56.9048 16.9051 56.6355C16.7704 57.0394 17.0398 57.3087 17.4437 57.4433C17.7129 57.578 17.8475 57.7126 17.9822 57.8472C18.3861 58.1165 18.79 58.2512 19.194 58.5204V58.3858C19.7325 58.7897 20.271 59.059 20.9442 59.059C20.9442 58.9244 20.9443 58.6551 20.8096 58.5204C20.675 58.2512 20.5404 58.1165 20.8096 57.9819C21.0789 57.7126 21.2135 58.1165 21.3481 58.2512C21.3481 58.2512 21.3482 58.3858 21.4828 58.3858C21.6175 58.9244 21.8867 59.1936 22.4252 59.3283C22.6945 59.3283 22.8291 59.4629 23.0984 59.5975C22.9638 59.059 22.4252 58.3858 22.0213 58.3858Z" fill="#BA1F36"/>
<path d="M26.7337 15.3015C26.8684 15.5708 27.003 15.5708 27.1376 15.7054C27.4069 15.84 27.8108 15.84 28.0801 15.9747C28.8879 16.2439 29.6958 15.9747 30.369 15.5708C30.6383 15.4361 30.9075 15.4361 31.1768 15.4361C31.3114 15.0322 31.4461 14.8976 32.1193 14.8976C32.2539 14.8976 32.3886 14.7629 32.3886 14.7629C32.5232 14.6283 32.5232 14.4936 32.6579 14.4936C33.0618 14.359 33.4656 14.359 33.8696 14.2244C34.4081 13.9551 34.9467 14.2244 35.4852 14.2244C36.4277 14.359 37.2355 15.0322 38.178 15.1668C38.4473 15.1668 38.7166 15.4361 38.9859 15.5708C39.2552 15.7054 39.3898 15.84 39.3898 15.9747C39.3898 15.9747 39.5244 15.84 39.6591 15.84C39.9284 15.84 40.1976 15.84 40.4669 15.9747C41.4093 16.3786 42.2172 15.9747 43.025 15.7054C43.2943 15.5708 43.4289 15.4361 43.2943 15.1668C43.1596 15.1668 43.025 15.1668 42.8904 15.1668C42.3518 15.1668 41.8133 15.3015 41.1401 15.1668C40.8708 15.0322 40.6015 14.8976 40.4669 14.7629C40.3322 14.7629 40.1976 14.6283 40.1976 14.6283C39.7937 14.6283 39.5244 14.4936 39.5244 13.9551C39.5244 13.8205 39.5244 13.6858 39.5244 13.5512H39.3898C39.3898 13.6858 39.3898 13.8205 39.3898 13.8205C39.3898 13.9551 39.3897 14.2244 39.2551 14.359C38.9858 14.4936 38.4473 14.359 38.4473 14.0897C38.4473 13.6858 38.0434 13.6858 37.7741 13.4165C37.6395 13.4165 37.6395 13.2819 37.5048 13.2819C36.9663 13.0126 36.4277 12.7433 35.7545 12.7433C35.0813 12.7433 34.4081 12.7433 33.735 12.6087C33.4657 12.6087 33.331 12.6087 33.0618 12.7433C32.6578 13.0126 32.3886 13.2819 31.9847 13.4165C31.7154 13.5512 31.3115 13.5512 31.0422 13.6858C30.7729 13.8205 30.5036 13.9551 30.369 14.0897C29.8304 14.4936 29.1572 14.7629 28.484 14.6283C28.2147 14.6283 27.9455 14.6283 27.6762 14.6283C27.4069 14.6283 27.003 14.7629 26.7337 14.8976C26.7337 14.8976 26.7337 15.1668 26.7337 15.3015Z" fill="#BA1F36"/>
<path d="M44.7753 42.6331C44.3714 42.3638 43.8328 42.0945 43.4289 41.9599C43.4289 41.9599 43.2942 41.9599 43.1596 41.9599C43.025 42.0945 42.7556 42.0945 42.621 42.2292C42.3517 42.4985 41.8132 42.3638 41.8132 42.9024C41.2747 43.037 41.2746 43.4409 41.2746 43.8448C41.2746 44.2488 41.2746 44.6527 41.2746 45.0566C41.2746 45.9991 41.14 46.8069 41.2746 47.7494C41.2746 48.0186 41.4093 48.4226 41.5439 48.6918C41.8132 48.9611 42.0825 48.8265 42.2171 48.8265C43.0249 49.0957 43.6982 48.6918 44.3714 48.4226C44.6407 48.2879 44.7752 48.0186 44.9099 47.7494C45.0445 46.8069 45.1792 45.7298 45.1792 44.6527C45.1792 44.2488 45.1792 43.8448 45.0446 43.3063C45.3138 43.037 44.9099 42.7677 44.7753 42.6331ZM43.025 48.2879C42.8904 48.2879 42.7556 48.4226 42.621 48.2879C42.4864 48.2879 42.2171 48.1533 42.0825 48.1533C42.2171 48.0186 42.2172 47.7494 42.3518 47.6147C42.3518 47.6147 42.6211 47.6147 42.7557 47.6147C43.025 47.6147 43.1596 47.6147 43.4289 47.6147C43.8328 47.4801 44.102 47.2108 44.2367 46.8069H44.3714C44.3714 47.0762 44.506 47.3454 44.506 47.6147C43.9674 47.884 43.4289 48.1533 43.025 48.2879Z" fill="#BA1F36"/>
<path d="M29.1572 20.0138C29.6957 20.0138 30.0997 20.1485 30.6383 19.8792C30.7729 19.8792 31.0421 19.8792 31.1768 19.7445C31.1768 19.7445 31.3115 19.6099 31.3115 19.4753C31.85 19.0713 32.2539 18.6674 32.7924 18.3982C32.9271 18.2635 33.0618 18.2635 33.331 18.1289C33.735 17.9942 34.1389 17.725 34.6774 17.725L34.812 17.5903C34.9467 17.5903 34.9467 17.4557 35.0813 17.4557C35.6199 17.4557 36.1584 17.4557 36.5623 17.8596C37.2355 18.3982 37.7741 18.9367 38.4473 19.4753C38.9858 19.8792 39.6591 20.1485 40.3323 20.2831C40.7362 20.4177 41.0054 20.4177 41.4094 20.0138C41.1401 19.8792 41.0054 19.7445 40.7362 19.6099C40.3322 19.4753 40.0629 19.3406 39.9283 19.206C39.7936 19.0713 39.6591 19.0713 39.6591 18.9367L39.3898 18.6674C38.9859 18.2635 38.4473 18.1289 38.178 17.5903C38.0434 17.1864 37.6395 16.9171 37.3702 16.7825C36.9663 16.5132 36.697 16.2439 36.2931 15.9747C36.0238 15.84 35.7545 15.7054 35.3506 15.5707C35.216 15.5707 35.0814 15.9747 34.9467 15.5707C34.8121 15.7054 34.5428 15.84 34.4081 15.84C33.8696 15.9747 33.3311 16.1093 32.9271 16.3786C32.2539 16.9171 31.5807 17.321 31.0422 17.9942L30.9076 18.1289C30.5036 18.3981 30.0997 18.5328 29.6958 18.8021C29.2919 18.9367 29.0226 19.206 29.1572 19.6099C29.0226 19.8792 29.1572 20.0138 29.1572 20.0138Z" fill="#BA1F36"/>
<path d="M30.5036 11.1277C29.965 11.397 29.4265 11.8009 28.7533 11.8009C28.6186 11.8009 28.3494 11.8009 28.2148 11.9355C28.0801 12.0702 27.8108 12.3395 27.8108 12.4741C27.8108 12.7434 28.0801 12.878 28.3494 12.878C28.6187 12.878 28.8879 12.878 29.1572 12.878C29.2918 12.878 29.4265 13.0126 29.5612 12.878C30.0997 12.6087 30.5036 12.3395 31.0421 12.0702C31.0421 12.2048 31.0421 12.2048 31.0421 12.4741C31.1768 12.3395 31.1768 12.0702 31.3114 12.0702C31.7154 11.9355 31.9846 11.8009 32.3885 11.5316C32.6578 11.397 33.0617 11.2623 33.331 10.9931C33.7349 10.7238 34.1389 10.5892 34.6774 10.5892C34.9467 10.5892 35.2159 10.5892 35.4852 10.4545C35.7545 10.4545 35.8891 10.3199 36.1584 10.4545C37.1009 10.7238 37.9087 11.1277 38.8512 11.5316C39.3897 11.8009 39.3897 11.8009 39.5244 12.4741C39.5244 12.6087 39.5244 12.6087 39.5244 12.7434C39.659 12.6087 39.6591 12.6087 39.6591 12.6087C39.6591 12.0702 39.659 12.0702 40.1976 12.2048C40.7361 12.3395 41.2747 12.4741 41.8132 12.6087C41.9479 12.6087 42.0825 12.7434 42.2171 12.6087C42.3518 12.6087 42.4864 12.4741 42.4864 12.4741C42.4864 12.4741 42.4865 12.2048 42.3518 12.2048C42.0825 11.9355 41.9479 11.6663 42.3518 11.397C41.6786 11.2623 41.0054 11.1277 40.3322 10.9931C40.063 10.8584 39.659 10.8584 39.7937 10.3199C39.7937 10.0506 39.7937 9.91596 39.7937 9.64668C39.7937 9.91596 39.6591 10.0506 39.6591 10.1852C39.6591 10.3199 39.5244 10.5892 39.5244 10.5892C39.3897 10.5892 39.2551 10.4545 39.1205 10.4545C38.8512 10.1852 38.5819 9.91596 38.178 10.0506H38.0434C37.7741 9.91596 37.6395 9.78132 37.3702 9.64668C36.8316 9.37741 36.2931 9.24277 35.6199 9.3774C35.4853 9.3774 35.2159 9.64668 35.0813 9.64668C34.812 9.51204 34.5428 9.64668 34.2735 9.78132C33.8696 9.91596 33.4656 10.0506 33.0617 10.0506C32.7925 10.1852 32.3885 10.3199 32.1192 10.4545C31.9846 10.5892 31.7154 10.5892 31.5807 10.7238C31.5807 10.5892 31.446 10.3199 31.446 10.1852C31.446 10.1852 31.4461 10.1852 31.3114 10.0506C31.1768 10.5892 31.0421 10.8584 30.5036 11.1277Z" fill="#BA1F36"/>
<path d="M22.4252 20.9563L22.6945 20.6871C22.6945 20.5524 22.5599 20.2831 22.5599 20.1485C22.156 19.3407 21.7521 18.6675 21.2135 18.1289C20.9442 17.8596 20.5403 17.4557 20.1364 17.1864C19.7325 16.9172 19.1939 16.9172 18.6553 16.9172C17.9821 16.7825 17.309 16.7825 16.7705 16.7825C16.2319 16.7825 15.6933 17.0518 15.1548 17.1864C15.0201 17.1864 14.8855 17.1864 14.7509 17.1864C14.7509 17.3211 14.6162 17.4557 14.4816 17.5904C13.943 18.1289 13.5391 18.6675 13.0005 19.0714C12.8659 19.206 12.7312 19.3407 12.5966 19.4753C12.3273 20.0139 12.0581 20.5524 11.7888 21.091C11.6542 21.2256 11.7888 21.6295 11.9234 21.7642C12.1927 21.8988 12.5967 22.0334 12.7313 21.8988C13.0006 21.7642 13.0005 21.3602 13.2698 21.091C13.4044 20.9563 13.4045 20.6871 13.5391 20.4178C13.6737 20.2831 13.6737 20.1485 13.8084 20.0139C14.0777 19.7446 14.3469 19.6099 14.6162 19.3407C14.7508 19.206 14.8855 19.0714 14.8855 18.9367C15.5587 18.3982 16.3665 18.1289 17.1744 18.1289C17.5783 18.1289 17.8475 18.1289 18.2514 18.1289C18.9246 18.1289 19.3286 18.3982 19.8671 18.6675C20.675 19.0714 21.3481 19.6099 21.752 20.5524C21.752 20.8217 22.1559 20.8217 22.4252 20.9563Z" fill="#BA1F36"/>
<path d="M21.2135 42.6331C21.0789 42.4985 20.8096 42.6331 20.6749 42.4985C20.4057 42.2292 20.0017 42.3639 19.7324 42.3639C19.3285 42.3639 19.0593 42.6331 19.0593 43.0371C18.9246 43.5756 18.79 44.1142 18.79 44.6527C18.6554 45.1913 18.6554 45.8645 18.5208 46.403C18.5208 46.5377 18.6554 46.6723 18.6554 46.8069C18.79 46.9416 18.9247 47.0762 18.9247 47.2108C19.1939 47.3455 19.3286 47.3455 19.4632 47.4801C19.7325 47.7494 20.1364 47.7494 20.4056 47.7494C20.5403 47.7494 20.6749 47.6148 20.6749 47.6148C20.5403 47.4801 20.5403 47.4801 20.5403 47.3455C20.5403 47.3455 20.5403 47.2109 20.5403 47.0762H20.6749C20.8096 47.3455 20.8096 47.6148 20.9442 47.884C21.0789 47.7494 21.3481 47.4801 21.3481 47.3455C21.4828 46.8069 21.3481 46.1337 21.3481 45.5952C21.3481 44.922 21.2135 44.2488 21.2135 43.5756C21.4828 43.1717 21.4828 42.9024 21.2135 42.6331Z" fill="#BA1F36"/>
<path d="M46.6602 47.2108C46.9295 47.4801 47.3334 47.6147 47.4681 47.884C47.7373 47.6147 47.8719 47.4801 48.0066 47.2108C48.2758 46.9415 48.5452 46.6723 48.5452 46.403C48.6798 45.7298 48.8145 45.1912 48.8145 44.3834C48.8145 43.4409 48.1412 42.9024 47.6027 42.3638C47.3334 42.4985 46.9295 42.6331 46.7949 42.7677C46.6602 42.9024 46.391 43.1717 46.391 43.4409C46.2563 44.3834 46.2563 45.4605 46.2563 46.403C46.2563 46.8069 46.3909 47.0762 46.6602 47.2108ZM47.7374 43.9795C47.7374 43.8449 47.8719 43.7102 48.0066 43.5756C48.0066 43.5756 48.0066 43.5756 48.1413 43.5756C48.0066 44.1141 48.0066 44.6527 47.872 45.3259H47.7374C47.7374 44.922 47.7374 44.3834 47.7374 43.9795Z" fill="#BA1F36"/>
<path d="M32.9271 32.5352C33.1964 32.8045 33.6003 33.0737 33.8695 33.0737C35.0813 33.2084 36.2931 33.7469 37.3702 32.9391C37.9088 32.5352 38.178 32.1313 38.3127 31.4581C37.6395 31.5927 37.1009 31.5927 36.5623 31.7273C35.8891 31.862 35.3506 31.9966 34.6774 31.862C34.1389 31.7273 33.6003 31.4581 32.9271 31.7273C33.0618 31.862 33.0617 31.862 33.0617 31.9966C33.0617 32.2659 32.5232 32.2659 32.9271 32.5352Z" fill="#BA1F36"/>
<path d="M54.4693 21.4949C53.7961 21.4949 53.6614 21.6295 53.3921 22.3027C53.796 22.7066 54.2 22.8413 54.6039 22.7066C55.0078 22.572 55.277 22.0334 55.0078 21.7641C54.8731 21.7641 54.6039 21.6295 54.4693 21.4949Z" fill="#BA1F36"/>
<path d="M17.8476 24.4569C18.2515 24.4569 18.5208 23.9184 18.5208 23.5144C18.5208 23.1105 18.2515 22.8412 17.8476 22.8412C17.309 22.8412 16.7705 23.1105 16.7705 23.3798C16.7705 24.053 17.1744 24.4569 17.8476 24.4569Z" fill="#BA1F36"/>
</svg>
