<svg width="71" height="75" viewBox="0 0 71 75" fill="none" xmlns="http://www.w3.org/2000/svg">
<path d="M32.9 23.3C32.9 23.3 33 23.3 33.1 23.2C33.1 23.2 33 23.2 32.9 23.3ZM33.3 23.2C33.6 23.1 33.8 23 34.1 23C34.3 23 34.4 23 34.6 22.9C34.1 22.9 33.7 23 33.3 23.2ZM36.1 22.8C35.9 22.8 35.7 22.8 35.6 22.8C35.7 22.9 35.8 22.9 36.1 22.8C36.2 22.9 36.4 22.9 36.5 22.9C36.4 22.8 36.2 22.8 36.1 22.8Z" fill="#BA1F36"/>
<path d="M31.3 16.7C31.4 16.7 31.5 16.7 31.5 16.8C31.6 16.9 31.6 17.1 31.7 17.2C31.8 17.6 31.9 18.1 31.8 18.5C31.7 18.8 31.7 19.1 31.6 19.4C31.5 19.6 31.3 19.8 31 19.9C30.5 20.1 30 20.4 29.5 20.6C29.3 20.7 29.2 20.7 29 20.7C28.6 20.8 28.1 20.9 27.7 21C27.5 21.1 27.4 21.2 27.2 21.3C27 21.4 26.8 21.5 26.7 21.5C26.5 21.6 26.3 21.7 26.2 21.8C25.9 22 25.5 22.3 25.3 22.6C25.1 22.8 24.9 23.1 24.9 23.5C24.9 23.5 24.9 23.6 24.8 23.6C24.7 23.8 24.9 24.2 25.1 24.2C25.3 24.2 25.6 24.2 25.8 24.2C26.3 24.1 26.7 23.8 27 23.4C27.1 23.2 27.3 23.1 27.4 22.9C27.4 22.9 27.6 22.9 27.7 22.9C27.8 23 27.9 23.1 27.9 23.2C27.9 23.4 27.9 23.6 27.8 23.8C27.7 24 27.6 24.1 27.5 24.2C27.3 24.4 27.1 24.6 26.9 24.8C26.8 24.9 26.6 25 26.4 25.1C26.3 25.1 26.2 25.2 26.1 25.2C25.9 25.3 25.7 25.4 25.5 25.4C25.3 25.4 25 25.6 24.9 25.3C24.9 25.3 24.8 25.3 24.7 25.3C24.5 25.3 24.3 25.2 24.3 25C24.3 24.9 24.2 24.9 24.2 24.8C24 24.5 23.8 24.2 23.7 23.8C23.6 23.5 23.7 23.1 23.8 22.7C23.9 22.1 24.3 21.7 24.7 21.3C25.1 20.9 25.6 20.6 26.1 20.4H26.2C26.5 20.5 26.8 20.2 27 20.1C27.2 20 27.3 20 27.5 19.9C27.6 19.9 27.7 19.8 27.8 19.7C28.3 19.5 28.9 19.4 29.4 19.2C29.7 19 30 18.7 30.3 18.5V18.4C30.6 18.5 30.7 18.3 30.8 18.1C30.9 18 30.9 17.8 30.8 17.6C30.8 17.5 30.7 17.4 30.6 17.4C30.2 17.3 29.8 17.3 29.4 17.3C29.3 17.4 29.2 17.5 29 17.5C28.9 17.5 28.7 17.6 28.6 17.7C28.5 17.8 28.4 17.8 28.3 17.8C28.2 17.8 28.2 17.9 28.1 17.9C28.1 17.9 28.1 17.9 28 18C27.6 18.2 27.3 18.5 26.9 18.7C26.8 18.7 26.6 18.7 26.5 18.6C26.5 18.6 26.5 18.5 26.4 18.4C26.4 18.4 26.4 18.3 26.5 18.3L26.6 18.2C26.7 17.7 27 17.4 27.3 17.2C27.8 16.8 28.3 16.5 28.8 16.1C29.1 15.9 29.4 15.9 29.8 15.9C30.1 15.9 30.4 16.1 30.7 16.2C30.8 16.3 31 16.3 31.1 16.4C31.1 16.6 31.2 16.7 31.3 16.7Z" fill="#BA1F36"/>
<path d="M41.6 23.3C41.9 23.2 42.2 23.1 42.5 23.2C42.7 23.3 42.8 23.4 42.9 23.5C43.2 23.7 43.5 23.7 43.8 23.6C44.1 23.5 44.3 23.3 44.6 23C44.8 22.8 44.9 22.6 44.9 22.4C45 22 44.7 21.6 44.4 21.4C43.9 21.1 43.4 20.9 42.9 20.8C42.6 20.8 42.4 20.7 42.1 20.8C41.8 20.9 41.6 21 41.3 21C40.9 21 40.5 20.7 40.1 20.7C39.9 20.7 39.8 20.7 39.6 20.7C39.3 20.7 39.1 20.5 38.9 20.3C38.8 20.2 38.6 20.1 38.5 20C38.2 19.7 38 19.2 38 18.7C38 18.2 38.2 17.8 38.4 17.4C38.6 17 38.9 16.7 39.3 16.5C39.7 16.3 40.2 16.2 40.6 16.4C41 16.5 41.3 16.9 41.7 17.2C41.9 17.5 42.2 17.7 42.4 18C42.5 18.1 42.6 18.2 42.6 18.3C42.6 18.4 42.7 18.5 42.6 18.6C42.5 18.7 42.4 18.7 42.3 18.6C42.3 18.5 42.3 18.5 42.2 18.4C42.1 18 42 18 41.9 18C41.8 18 41.7 18 41.5 18C41.4 18 41.3 17.9 41.2 17.9C41.1 17.8 41 17.7 40.9 17.6C40.7 17.5 40.4 17.4 40.2 17.5C40 17.6 39.8 17.7 39.7 17.8C39.6 17.9 39.6 18.1 39.4 18.2C39.3 18.2 39.3 18.2 39.2 18.3C39.2 18.3 39.1 18.4 39.1 18.5C39.1 18.6 39.1 18.7 39.1 18.7C39.1 18.8 39.2 19 39.3 19.1C39.4 19.3 39.7 19.3 39.9 19.4C40.1 19.4 40.3 19.4 40.5 19.4C40.9 19.4 41.3 19.5 41.6 19.6C42.2 19.8 42.9 19.7 43.5 19.9C44.1 20.1 44.6 20.5 45.1 20.9C45.3 21 45.4 21.2 45.5 21.4C45.6 21.6 45.6 21.9 45.7 22.2C45.7 22.3 45.8 22.4 45.8 22.5C45.8 22.8 45.5 23.1 45.4 23.4C45.2 23.7 45 24.1 44.8 24.3C44.3 24.8 43.4 25 42.7 24.8C42.1 24.5 41.9 23.9 41.6 23.3Z" fill="#BA1F36"/>
<path d="M35.1 19.4C34.8 19.3 34.4 19.3 34.1 19.2C34 19.2 33.9 19.1 33.9 19.1C33.7 18.9 33.5 18.7 33.4 18.5C33.1 18.2 33.2 17.8 33.3 17.4C33.3 17 33.4 16.7 33.7 16.4C33.9 16.1 34.1 15.8 34.5 15.6C34.6 15.5 34.7 15.4 34.8 15.4C34.9 15.4 35.1 15.4 35.3 15.4C35.4 15.4 35.6 15.4 35.7 15.4C35.9 15.4 36.1 15.5 36.3 15.5C36.6 15.5 36.9 15.7 37.1 16C37.2 16.1 37.3 16.3 37.3 16.5C37.2 17 37.1 17.5 37 18C36.9 18.5 36.5 18.8 36.1 19.1C36.1 19.1 36 19.1 36 19.2C35.6 19.3 35.4 19.5 35.1 19.4Z" fill="#BA1F36"/>
<path d="M47.1 12.3C47.1 12.1 47.1 11.9 47 11.7C47 11.6 46.9 11.6 46.9 11.5C46.9 11.4 46.8 11.3 46.8 11.3C46.7 11.1 46.6 10.8 46.5 10.6C46.3 10.4 46.2 10.2 46 10C46 10 46 9.9 45.9 9.9C45.9 9.9 45.8 9.9 45.8 9.8C45.7 9.7 45.5 9.6 45.4 9.6C45.3 9.5 45.1 9.5 44.9 9.5C44.5 9.4 44 9.4 43.6 9.5C43.2 9.5 42.9 9.7 42.5 9.8C42.4 9.8 42.3 9.9 42.2 9.9C42.1 9.9 42 9.9 42 9.9C41.8 9.9 41.7 9.8 41.5 9.8C41.2 9.9 40.9 10 40.7 10C40.6 10 40.5 10 40.5 9.9C40.5 9.5 40.5 9.2 40.6 8.8C40.6 8.7 40.6 8.5 40.6 8.4C40.7 8.2 40.6 8 40.6 7.7C40.6 7.4 40.6 7.2 40.5 6.9C40.5 6.7 40.5 6.6 40.4 6.4C40.4 6.3 40.3 6.1 40.3 6.1C40.4 5.9 40.3 5.8 40.3 5.7C40.2 5.4 40 5.2 40 4.9C39.8 3.6 39 2.4 38.2 1.4C38.1 1.3 38 1.1 37.9 1C37.6 1 37.4 0.8 37.1 0.6C36.7 0.3 36.2 0 35.7 0C35.6 0 35.5 0 35.4 0C35.2 0 34.9 0.1 34.7 0.1C34 0.3 33.2 0.5 32.6 0.9C32.1 1.1 32 1.6 31.6 1.9C31.3 2.1 31.2 2.4 31.1 2.7C31 3.1 30.9 3.6 30.7 4C30.6 4.2 30.5 4.5 30.5 4.8C30.5 5 30.4 5.2 30.4 5.4C30.4 5.6 30.4 5.8 30.3 5.9C30.3 6 30.2 6.2 30.2 6.3C30.2 6.4 30.1 6.5 30.1 6.5C30.1 6.8 30.1 7.1 30.1 7.5C30.1 7.8 30 8.2 30.1 8.5C30.2 8.5 30.2 8.4 30.3 8.4C30.3 8.7 30.2 9.1 29.8 9.2C29.7 9.2 29.6 9.3 29.7 9.4C29.7 9.5 29.7 9.5 29.7 9.6C29.5 9.7 29.4 9.7 29.1 9.5C28.7 9.2 28.3 8.9 27.8 8.8C27.6 8.7 27.4 8.5 27.1 8.5C26.4 8.5 25.7 8.4 25 8.5C24.5 8.6 24 8.7 23.5 9.1C23.3 9.2 23.2 9.4 23 9.5C22.9 9.5 22.8 9.6 22.8 9.6C22.6 9.7 22.6 10 22.5 10.2C22.5 10.5 22.4 10.8 22.4 11.2C22.4 11.5 22.5 11.8 22.5 12.1C22.4 12.7 22.6 13.2 22.8 13.7C23 14.2 23.3 14.7 23.8 15C24.1 15.2 24.4 15.4 24.6 15.5C24.7 15.6 24.8 15.6 24.9 15.7C24.9 15.7 24.9 15.7 25 15.7C25 16 25.2 16 25.4 16.1C25.6 16.2 25.9 16.2 26 16C26.2 15.7 26.5 15.8 26.7 15.8C27.1 15.9 27.5 15.8 27.9 15.7C28 15.7 28.1 15.6 28.1 15.5C28.1 15.4 28 15.4 27.9 15.3C27.8 15.3 27.7 15.3 27.6 15.2C27.5 15.2 27.3 15 27.1 15C26.6 14.8 26.5 14.3 26.6 13.9C26.7 13.7 26.8 13.6 26.9 13.4C27 13.3 27.1 13.3 27.2 13.3C27.3 13.3 27.4 13.3 27.5 13.3C27.7 13.2 27.8 13.2 28 13.3C28.1 13.3 28.2 13.3 28.2 13.2C28.4 13 28.5 12.8 28.7 12.6C28.8 12.5 29.1 12.4 29.2 12.5C29.4 12.6 29.6 12.7 29.8 12.9C30 13.2 30.2 13.6 30.6 13.8C30.7 13.8 30.7 13.9 30.7 14C30.8 14.3 31 14.5 31.2 14.6C31.4 14.7 31.5 14.8 31.6 14.9C31.7 15 31.9 15.2 32.1 15.2C32.2 15.2 32.3 15.3 32.4 15.3C32.5 15.3 32.5 15.4 32.6 15.4L32.7 15.3C32.8 15.1 32.7 15 32.6 14.8C32.5 14.6 32.4 14.3 32.6 14.1C32.8 13.9 32.7 13.7 32.6 13.5C32.6 13.4 32.5 13.3 32.5 13.2C32.4 12.6 32.2 12.1 32.2 11.5C32.1 11 32.1 10.5 32.4 10.1C32.5 9.9 32.6 9.8 32.8 9.6C32.9 9.5 32.9 9.5 33 9.4C33.3 9.4 33.6 9.3 33.8 9.1C33.9 9 34 9 34.1 9C34.2 9 34.3 9 34.4 9.1C34.4 9.1 34.4 9.1 34.5 9.1C34.7 8.9 34.9 8.8 35.1 8.6C35.1 8.6 35.4 8.4 35.5 8.3C35.6 8.2 35.7 8.3 35.7 8.4C35.7 8.4 35.7 8.4 35.8 8.4C36 8.4 36.1 8.3 36.3 8.3C36.3 8.4 36.2 8.5 36.3 8.6V8.7C36.4 8.8 36.4 8.7 36.5 8.6C36.6 8.5 36.7 8.5 36.7 8.5C36.8 8.4 36.9 8.3 37 8.1C37 8.1 37 8.1 37 8.2C37 8.4 36.9 8.5 36.9 8.7C36.9 8.8 36.9 8.8 36.9 8.9C36.9 9 37 9 37.1 9C37.1 9 37.2 9 37.2 8.9C37.3 8.8 37.3 8.7 37.3 8.6C37.4 8.4 37.5 8.2 37.7 8.1C37.7 8.1 37.8 8 37.9 8.1L38 8.2C38 8.3 37.9 8.4 37.9 8.5C37.9 8.6 37.8 8.7 37.9 8.8C37.9 8.8 38 8.9 38 8.8C38.1 8.7 38.2 8.5 38.3 8.4C38.3 8.4 38.3 8.3 38.4 8.3C38.5 8.3 38.6 8.4 38.6 8.4C38.6 8.5 38.6 8.6 38.7 8.6C38.8 8.6 38.9 8.6 39 8.7V8.8C39 9.2 38.9 9.6 38.8 9.9C38.7 10.3 38.6 10.6 38.5 11C38.4 11.3 38.2 11.7 38.2 12C38.2 12.2 38.2 12.3 38.2 12.5C38.2 12.8 38.3 12.8 38.2 13.1C38.1 13.6 38.1 13.8 38.1 13.9C38 14.1 37.8 14.2 37.7 14.4C37.6 14.6 37.6 14.8 37.6 15C37.6 15.2 37.6 15.3 37.8 15.4C37.9 15.4 38 15.4 38.1 15.3C38.3 15 38.4 14.8 38.7 14.7C38.9 14.7 39 14.6 39.1 14.4C39.2 14.2 39.4 14.1 39.5 13.9C39.6 13.9 39.7 13.9 39.7 13.8C40.1 13.5 40.4 13.1 40.9 13C40.9 13.3 41.2 13.5 41.4 13.4C41.5 13.4 41.6 13.3 41.8 13.3C41.9 13.3 42 13.2 42.1 13.4C42.2 13.5 42.4 13.6 42.5 13.7C42.7 13.8 42.9 13.9 43 14.1C43 14.2 43.2 14.2 43.2 14.2C43.4 14.2 43.4 14.3 43.4 14.4C43.5 14.4 43.7 14.4 43.8 14.4C44.3 14.4 44.2 15 44.1 15.3V15.4H44C43.9 15.4 43.9 15.4 43.8 15.4C43.7 15.4 43.7 15.4 43.7 15.5V15.6C43.7 15.6 43.7 15.6 43.7 15.7C43.6 15.9 43.5 16 43.4 16.2C43.4 16.3 43.4 16.5 43.5 16.5C43.6 16.5 43.8 16.5 43.9 16.4C44.2 16.2 44.5 16 44.8 15.8C45.1 15.6 45.4 15.5 45.6 15.3C45.9 15 46.1 14.7 46.4 14.4C46.6 14.1 46.8 13.7 46.9 13.4C47 13.3 47 13.1 47 13C47.1 12.8 47.1 12.6 47.1 12.3ZM28.4 11.4L28.2 11.9C28.4 12.2 28 12.3 27.7 12.2C27.5 12.2 27.3 12 27.1 12.1C27 12.1 26.9 12.3 26.7 12.4C26.6 12.4 26.5 12.5 26.4 12.5C26.3 12.5 26.2 12.6 26.2 12.7C26.2 12.8 26.2 12.9 26.1 13C26 13.1 25.9 13 25.8 13C25.7 12.9 25.7 12.9 25.6 12.8C25.5 12.8 25.5 12.8 25.4 12.8V12.9C25.4 13 25.5 13.1 25.5 13.3V13.4H25.4C25.1 13.2 24.9 12.8 24.7 12.5C24.5 12.1 24.3 11.6 24.3 11.1C24.3 10.9 24.4 10.7 24.5 10.6C24.6 10.5 24.7 10.5 24.8 10.5C25 10.4 25.2 10.3 25.4 10.1C25.7 9.9 26.1 9.8 26.5 9.9C27 10 27.3 10.3 27.7 10.6C27.9 10.8 28.1 10.9 28.3 11.1C28.4 11.2 28.4 11.2 28.4 11.3C28.6 11.3 28.5 11.4 28.4 11.4ZM39.3 7.1C39.2 7.2 39.1 7.3 38.9 7.4C38.8 7.4 38.6 7.3 38.4 7.3C38.2 7.3 37.9 7.1 37.8 6.9L37.7 6.8L37.3 6.7C37.1 6.7 37 7 36.8 7.1C36.7 6.9 36.6 6.8 36.6 6.6C36.6 6.6 36.6 6.5 36.5 6.5C36.5 6.5 36.5 6.5 36.4 6.5C36.2 6.6 36 6.7 35.7 6.7C35.6 6.7 35.6 6.7 35.6 6.6V6.5C35.6 6.4 35.7 6.3 35.8 6.3C35.9 6.2 36 6.1 35.9 6C35.8 5.9 35.6 6.1 35.5 6.2C35.4 6.3 35.2 6.4 35.1 6.5C35 6.5 34.9 6.7 34.9 6.7C34.8 6.7 34.7 6.6 34.5 6.7C34.3 6.8 34.2 7.3 33.9 7.1C33.9 7.1 33.9 7.1 33.8 7.1C33.7 7 33.6 7 33.5 7.1C33.5 7.1 33.5 7.1 33.4 7.1C33.4 7.1 33.4 7.1 33.3 7C33.3 7 33.2 6.9 33.1 6.8L33 6.7C32.9 6.7 32.8 6.7 32.7 6.8C32.6 6.9 32.4 6.8 32.3 6.8C32.2 6.7 32 6.7 31.9 6.8C31.9 6.8 31.9 6.8 31.8 6.8C31.8 6.8 31.8 6.8 31.7 6.8C31.3 6.6 31.5 5.7 31.8 5.4C32 5.2 32.1 5 32.2 4.8C32.3 4.6 32.5 4.3 32.7 4.1C32.8 3.9 33 3.6 33.2 3.5C33.4 3.3 33.5 3.1 33.8 3C34.3 2.8 34.7 2.6 35.2 2.6C35.7 2.6 36.2 2.8 36.7 3C36.9 3.1 37.1 3.3 37.3 3.5C37.6 3.8 38 4.1 38.3 4.4C38.7 4.7 39.1 5.2 39 5.6C39.1 5.6 39.2 5.7 39.3 5.7C39.4 5.8 39.3 5.9 39.3 6C39.3 6.1 39.4 6.1 39.4 6.2C39.4 6.4 39.4 6.6 39.5 6.9C39.3 7.1 39.3 7.1 39.3 7.1ZM46.3 12.1C46.2 12.3 46.1 12.5 46 12.8C46 12.9 45.9 12.9 45.9 13C45.6 13.2 45.4 13.5 45.2 13.7C45 13.9 44.8 14.1 44.6 14.3C44.5 14.3 44.6 14.5 44.4 14.4C44.2 14.3 44.2 14.2 44.2 14.1C44.2 13.9 44.1 13.9 44 13.8C43.7 13.8 43.7 13.7 43.8 13.4C43.7 13.4 43.6 13.4 43.6 13.3C43.5 13.2 43.5 13.1 43.5 13C43.5 12.9 43.5 12.8 43.6 12.8C43.3 12.7 43.2 12.7 43.2 12.5C42.9 12.1 42.5 12.3 42.1 12.3C42.2 12.2 42.2 12.2 42.2 12.1C42.3 11.9 42.4 11.7 42.4 11.4C42.4 11.2 42.7 10.8 42.9 10.8C43.3 10.7 43.7 10.6 44 10.5C44.3 10.5 44.6 10.5 44.9 10.6C45.2 10.7 45.4 10.9 45.6 11C45.7 11 45.7 11.1 45.8 11.2C46 11.1 46 11.3 46.1 11.4C46.2 11.5 46.2 11.7 46.3 11.9C46.3 12 46.3 12.1 46.3 12.1Z" fill="#BA1F36"/>
<path d="M44 32.3C44 32.4 44 32.4 44 32.3ZM38.1 23.3C38 23.3 37.9 23.2 37.9 23.2C38 23.2 38.1 23.3 38.1 23.3ZM36.5 22.9C36.7 22.9 36.8 23 37 23C37.3 23 37.5 23.1 37.8 23.2C37.4 23 36.9 22.9 36.5 22.9ZM35 22.8C34.9 22.8 34.7 22.8 34.6 22.9C34.7 22.9 34.9 22.9 35 22.8C35.2 22.9 35.4 22.9 35.5 22.8C35.3 22.8 35.2 22.8 35 22.8Z" fill="#BA1F36"/>
<path d="M70.9 24.9C70.9 25 70.8 25 70.9 24.9C70.8 25 70.8 24.9 70.8 24.9C70.8 24.8 70.8 24.7 70.8 24.6C70.7 24.4 70.8 24.2 70.6 24.1C70.5 24.1 70.4 23.9 70.5 23.8C70.5 23.6 70.5 23.6 70.3 23.5C70.2 23.5 70.2 23.4 70.1 23.3C70 23.3 69.8 23.3 69.6 23.2C69.4 23.1 69.2 23 69 22.8C69 22.8 69 22.8 68.9 22.8C68.7 22.9 68.5 22.7 68.3 22.7C67.9 22.6 67.6 22.6 67.2 22.6C66.9 22.6 66.6 22.6 66.3 22.8C66 22.9 65.6 22.8 65.3 23C65.2 23.1 65 23.1 64.9 23.2C64.6 23.4 64.3 23.5 63.9 23.7C63.6 23.8 63.4 23.9 63.2 24C63.3 23.7 63.3 23.3 63.4 23C63.4 22.9 63.4 22.7 63.4 22.6C63.3 22.4 63.2 22.3 63.1 22.2C63 22.1 62.9 22 62.9 21.9C62.8 21.8 62.8 21.7 62.7 21.6C62.5 21.5 62.3 21.4 62.2 21.3C61.9 21.2 61.6 21.1 61.2 21C60.9 21 60.7 21 60.4 21C60.2 21 60 21 59.8 21.1C59.6 21.1 59.5 21.2 59.3 21.2C59.1 21.2 59 21.3 58.8 21.4C58.4 21.6 58 21.7 57.6 21.9C57.3 22 56.9 22.1 56.6 22.4C56.4 22.6 56.2 22.7 56 22.9C55.8 23 55.7 23.2 55.5 23.3C55.2 23.6 54.9 23.9 54.6 24.2C54.2 24.6 53.9 25 53.6 25.4C53.5 25.5 53.4 25.6 53.4 25.7C53.3 25.9 53.3 26 53.2 26.2C53.1 26.4 52.9 26.6 52.9 26.9C52.9 27.2 52.7 27.5 52.6 27.7L52.5 27.8C52.5 27.9 52.5 28 52.4 28.1C52.3 28.4 52.2 28.8 52.1 29.1C52.1 29.2 52.1 29.2 52 29.2C51.7 29.4 51.4 29.6 51.1 29.8C51 29.9 50.9 29.9 50.7 30C50.4 30.2 50.1 30.4 49.7 30.5C49.4 30.6 49.1 30.7 48.9 30.9C48.3 31.2 47.8 31.3 47.2 31.2C47.1 31.2 47 31.2 47 31.2C46.8 31.2 46.6 31.1 46.5 31C46 30.8 45.6 30.5 45.4 30.1L45.3 30C45.1 29.8 45 29.7 44.8 29.5C44.6 29.2 44.3 28.9 44.1 28.5C43.9 28.1 43.7 27.8 43.6 27.4C43.5 27.3 43.5 27.2 43.5 27.1C43.3 26.7 43.2 26.4 42.9 26.2C42.5 25.9 42.2 25.5 41.9 25.2C41.6 25 41.3 24.8 41 24.6C40.6 24.4 40.2 24.2 39.8 24C39.4 23.8 38.9 23.6 38.5 23.4C38.4 23.4 38.3 23.3 38.2 23.3H38.1C37.8 23.2 37.6 23.1 37.3 23.1C37.1 23.1 37 23.1 36.8 23C36.6 23 36.5 23 36.3 23C36.1 23 36 23 35.8 23C35.6 23 35.5 23 35.3 23C35.1 23 35 23 34.8 23C34.6 23 34.5 23.1 34.3 23.1C34 23.1 33.8 23.2 33.5 23.3H33.4C33.3 23.3 33.2 23.4 33.1 23.4C32.6 23.6 32.2 23.8 31.8 24C31.4 24.2 31 24.4 30.6 24.6C30.3 24.8 30 24.9 29.7 25.2C29.3 25.5 29 25.9 28.7 26.2C28.4 26.5 28.2 26.8 28.1 27.1C28.1 27.2 28 27.3 28 27.4C27.8 27.8 27.7 28.1 27.5 28.5C27.3 28.8 27.1 29.2 26.8 29.5C26.7 29.7 26.5 29.9 26.3 30L26.2 30.1C25.9 30.6 25.5 30.8 25.1 31C24.9 31.1 24.8 31.2 24.6 31.2C24.5 31.2 24.4 31.2 24.4 31.2C23.8 31.3 23.2 31.2 22.7 30.9C22.4 30.8 22.1 30.7 21.9 30.5C21.6 30.3 21.3 30.1 20.9 30C20.8 29.9 20.7 29.9 20.5 29.8C20.2 29.6 19.9 29.4 19.6 29.2L19.5 29.1C19.4 28.8 19.3 28.4 19.2 28.1C19.2 28 19.2 27.9 19.1 27.8L19 27.7C18.8 27.5 18.7 27.2 18.7 26.9C18.7 26.7 18.5 26.5 18.4 26.2C18.3 26 18.3 25.9 18.2 25.7C18.1 25.6 18.1 25.5 18 25.4C17.7 25 17.4 24.5 17 24.2C16.7 23.9 16.4 23.6 16.1 23.3C16 23.1 15.8 23 15.6 22.9C15.4 22.8 15.1 22.6 15 22.4C14.7 22.1 14.3 22 14 21.9C13.6 21.8 13.2 21.6 12.8 21.4C12.6 21.3 12.5 21.3 12.3 21.2C12.1 21.2 12 21.1 11.8 21.1C11.6 21.1 11.4 21.1 11.2 21C10.9 21 10.7 20.9 10.4 21C10.1 21.1 9.70001 21.2 9.40001 21.3C9.20001 21.4 9.00001 21.5 8.90001 21.6C8.80001 21.7 8.70001 21.8 8.70001 21.9C8.20001 21.9 8.10001 22 8.00001 22.1C7.90001 22.2 7.80001 22.4 7.70001 22.5C7.70001 22.6 7.70001 22.7 7.70001 22.9C7.70001 23.2 7.80001 23.6 7.80001 23.9C7.60001 23.8 7.30001 23.7 7.10001 23.6C6.80001 23.5 6.50001 23.3 6.10001 23.1C6.10001 23.1 5.90001 23.1 5.80001 23C5.50001 22.7 5.10001 22.9 4.80001 22.8C4.50001 22.7 4.20001 22.6 3.90001 22.6C3.50001 22.6 3.20001 22.6 2.80001 22.7C2.60001 22.8 2.40001 22.9 2.20001 22.8C2.20001 22.8 2.20001 22.8 2.10001 22.8C1.90001 22.9 1.70001 23.1 1.50001 23.2C1.30001 23.3 1.10001 23.3 1.00001 23.3C0.900012 23.4 0.800012 23.5 0.800012 23.5C0.600012 23.5 0.600012 23.6 0.600012 23.8C0.600012 23.9 0.500012 24 0.500012 24.1C0.300012 24.2 0.400012 24.4 0.300012 24.6C0.300012 24.7 0.300012 24.8 0.300012 24.9V25C0.300012 25 0.200012 25 0.200012 24.9C0.200012 25 0.200012 25.1 0.200012 25.1C0.200012 25.3 0.200012 25.4 0.300012 25.6C0.400012 25.7 0.300012 25.8 0.400012 25.9C0.500012 26.1 0.600012 26.2 0.700012 26.4C0.800012 26.5 0.800012 26.7 0.900012 26.8C0.900012 26.9 1.00001 26.9 1.10001 27L1.20001 27.1C1.30001 27.2 1.40001 27.3 1.50001 27.4V27.5V27.6C1.80001 27.6 1.80001 27.9 2.00001 28C2.10001 28 2.20001 28.1 2.20001 28.1C2.50001 28.3 2.80001 28.5 3.00001 28.8C3.20001 29 3.40001 29 3.70001 29.2C4.00001 29.4 4.40001 29.5 4.70001 29.7C4.90001 29.8 5.10001 29.9 5.30001 30.1L5.40001 30.2C5.40001 30.3 5.30001 30.4 5.20001 30.4C5.00001 30.5 4.90001 30.6 4.70001 30.8C4.60001 30.9 4.40001 31.1 4.30001 31.2C4.20001 31.3 4.20001 31.5 4.00001 31.6V31.7H3.90001C3.80001 31.8 3.80001 31.9 3.70001 32C3.60001 32.1 3.60001 32.2 3.60001 32.3C3.60001 32.5 3.50001 32.6 3.50001 32.8C3.50001 32.9 3.50001 32.9 3.40001 33L3.30001 33.1C3.30001 33.4 3.20001 33.7 3.30001 34C3.40001 34.3 3.50001 34.7 3.90001 34.8C3.90001 34.8 4.00001 34.8 4.00001 34.9C4.00001 34.9 4.10001 34.9 4.10001 35C4.20001 35.1 4.40001 35.2 4.50001 35.3C4.60001 35.4 4.70001 35.4 4.70001 35.5L4.80001 35.6C5.00001 35.8 5.20001 35.9 5.40001 35.9C5.70001 35.9 5.90001 36.1 6.20001 36.1C6.60001 36.2 6.90001 36.3 7.30001 36.4C7.50001 36.4 7.70001 36.5 7.90001 36.5C8.30001 36.5 8.70001 36.5 9.10001 36.5C9.20001 36.5 9.30001 36.5 9.40001 36.5C9.80001 36.4 10.2 36.4 10.6 36.2C11 36 11.4 35.9 11.7 35.5C11.8 35.3 12 35.2 12.2 35.1C12.3 35 12.3 35 12.4 34.9L12.5 34.8C13 34.4 13.4 34 13.9 33.6C14.1 33.5 14.3 33.3 14.4 33.2C14.6 33 14.8 32.9 15 32.7C15.2 32.5 15.5 32.3 15.8 32.2C15.9 32.2 16.1 32.2 16.2 32.2C16.3 32.2 16.5 32.2 16.6 32.3C16.9 32.3 17.1 32.4 17.4 32.4C17.6 32.4 17.7 32.5 17.9 32.5C18.1 32.6 18.3 32.6 18.5 32.7C18.9 32.8 19.3 33 19.7 33.1C19.8 33.1 19.9 33.1 19.9 33.1C20.1 33.2 20.3 33.3 20.5 33.3C20.7 33.4 20.9 33.5 21.1 33.6C21.1 33.6 21.1 33.6 21 33.6C21.3 33.6 21.6 33.6 21.8 33.6C21.9 33.6 22 33.7 22 33.7C22.1 33.7 22.3 33.7 22.4 33.7C23 33.6 23.6 33.4 24.2 33.4C24.8 33.4 25.3 33.1 25.8 33C26.1 32.9 26.3 32.7 26.5 32.5C26.6 32.5 26.6 32.4 26.7 32.4C26.7 32.4 26.7 32.4 26.7 32.3C26.7 32.3 26.8 32.3 26.8 32.2C27.1 31.8 27.5 31.5 27.8 31.1C27.9 31 27.9 31 28 30.9C28.1 30.8 28.2 30.7 28.3 30.6C28.4 30.4 28.5 30.3 28.7 30.1C29 29.7 29.4 29.4 29.7 29.1C29.8 29 29.8 29 29.8 28.9C29.9 28.8 30 28.8 30 28.7C30.1 28.6 30.2 28.5 30.3 28.4C30.5 28.3 30.6 28.2 30.8 28.1C30.9 28 31 27.9 31.1 27.8C31.3 27.6 31.4 27.5 31.7 27.5C32 27.5 32.2 27.3 32.4 27.2C32.8 27.1 33.1 27 33.5 26.9C34.3 27 34.7 27 35.1 27C35.2 27 35.4 27 35.5 27C35.6 27 35.8 27 35.9 27C36.3 27 36.7 27.1 37 27.1C37.4 27.2 37.8 27.3 38.1 27.4C38.4 27.5 38.6 27.6 38.8 27.7C39.1 27.7 39.2 27.9 39.4 28C39.5 28.1 39.6 28.2 39.7 28.3L43.8 32.3C43.8 32.3 43.9 32.3 43.9 32.4C43.9 32.4 43.9 32.4 43.9 32.5C44 32.5 44 32.6 44.1 32.6C44.4 32.8 44.6 33 44.8 33.1C45.3 33.2 45.8 33.5 46.4 33.5C47 33.5 47.6 33.7 48.2 33.8C48.3 33.8 48.5 33.8 48.6 33.8C48.7 33.8 48.8 33.7 48.8 33.7C49.1 33.7 49.4 33.7 49.6 33.7H49.5C49.7 33.6 49.9 33.5 50.1 33.4C50.3 33.3 50.5 33.2 50.7 33.2C50.8 33.2 50.9 33.2 50.9 33.2C51.3 33.1 51.7 32.9 52.1 32.8C52.3 32.7 52.5 32.7 52.7 32.6C52.9 32.5 53 32.5 53.2 32.5C53.5 32.4 53.7 32.4 54 32.4C54.1 32.4 54.3 32.4 54.4 32.3C54.5 32.3 54.7 32.3 54.8 32.3C55.1 32.3 55.3 32.6 55.6 32.8C55.8 33 56 33.1 56.2 33.3C56.4 33.4 56.6 33.6 56.7 33.7C57.2 34.1 57.7 34.5 58.1 34.9L58.2 35C58.3 35.1 58.3 35.1 58.4 35.2C58.6 35.3 58.8 35.4 58.9 35.6C59.2 36 59.6 36.2 60 36.3C60.4 36.4 60.8 36.5 61.2 36.6C61.3 36.6 61.4 36.6 61.5 36.6C61.9 36.6 62.3 36.6 62.7 36.6C62.9 36.6 63.1 36.5 63.3 36.5C63.7 36.4 64 36.3 64.4 36.2C64.7 36.1 64.9 36 65.2 36C65.5 36 65.7 35.9 65.8 35.7L65.9 35.6C66 35.5 66.1 35.5 66.1 35.4C66.2 35.3 66.4 35.2 66.5 35.1C66.5 35.1 66.4 35.1 66.3 35C66.4 35 66.4 35 66.4 34.9C66.4 34.9 66.5 34.9 66.5 34.8C66.9 34.7 67 34.3 67.1 34C67.2 33.7 67.1 33.4 67.1 33.1C67.1 33.1 67.1 33 67 33C67 32.9 66.9 32.9 66.9 32.8C66.9 32.6 66.8 32.5 66.8 32.3C66.8 32.2 66.8 32.1 66.7 32C66.6 31.9 66.6 31.8 66.5 31.7C66.5 31.7 66.5 31.7 66.4 31.7V31.6C66.2 31.5 66.2 31.3 66.1 31.2C66 31.1 65.8 30.9 65.7 30.8C65.6 30.6 65.4 30.5 65.2 30.4C65.1 30.4 65.1 30.3 65 30.2L65.1 30.1C65.3 30 65.5 29.8 65.7 29.7C66 29.5 66.4 29.4 66.7 29.2C66.9 29.1 67.2 29 67.4 28.8C67.7 28.6 67.9 28.3 68.2 28.1C68.3 28 68.3 28 68.4 28C68.6 27.9 68.6 27.6 68.9 27.6V27.5V27.4C69 27.3 69.1 27.2 69.2 27.1L69.3 27C69.4 26.9 69.4 26.9 69.5 26.8C69.6 26.7 69.6 26.5 69.7 26.4C69.8 26.2 69.9 26.1 70 25.9C70 25.8 70 25.7 70.1 25.6C70.2 25.4 70.1 25.3 70.2 25.1C71 25.1 70.9 25 70.9 24.9ZM9.10001 22.5C9.20001 22.4 9.40001 22.3 9.50001 22.3C9.60001 22.3 9.70001 22.3 9.80001 22.3C9.90001 22.3 10 22.2 10 22.2C10.3 22.1 10.6 22.3 10.8 22.6C11 22.8 11.2 23.1 11.5 23.1C11.9 23.1 12.2 23 12.4 23.5C12.5 23.8 12.4 24.1 12.4 24.4C12.4 24.5 12.3 24.7 12.1 24.7C12 24.7 12 24.7 11.9 24.6C11.7 24.6 11.5 24.7 11.5 24.9C11.4 25.1 11.3 25.3 11.2 25.4C11.1 25.5 10.9 25.4 10.8 25.4C10 25.2 9.00001 24.4 8.90001 23.5C8.70001 23.1 8.80001 22.7 9.10001 22.5ZM4.20001 26.2C4.20001 26.3 4.20001 26.5 4.20001 26.6C4.10001 26.6 4.00001 26.5 3.90001 26.5C3.80001 26.5 3.70001 26.5 3.80001 26.7C3.90001 27 3.90001 27.1 3.60001 27.1C3.50001 27.2 3.50001 27.3 3.40001 27.4C3.20001 27.3 3.10001 27.2 2.90001 27.1C2.80001 27.1 2.70001 27 2.70001 27C2.10001 26.7 1.70001 26.2 1.30001 25.7C1.20001 25.6 1.10001 25.4 1.10001 25.3C1.10001 25 1.10001 24.7 1.20001 24.5C1.20001 24.3 1.30001 24 1.60001 24C1.60001 24 1.70001 24 1.70001 23.9C1.90001 23.8 2.00001 23.8 2.20001 23.7C2.30001 23.7 2.50001 23.6 2.70001 23.6C3.20001 23.5 3.60001 23.5 4.10001 23.6C4.20001 23.7 4.40001 23.6 4.60001 23.7C4.90001 23.8 5.10001 23.8 5.30001 24C5.40001 24.1 5.50001 24.4 5.40001 24.4C5.30001 24.5 5.10001 24.5 5.00001 24.5C5.00001 24.6 5.00001 24.7 5.00001 24.7C5.10001 24.9 5.00001 25.1 5.20001 25.2C5.40001 25.3 5.40001 25.4 5.30001 25.6C5.20001 25.6 5.20001 25.5 5.10001 25.5C5.00001 25.5 4.90001 25.5 4.80001 25.5C4.80001 25.5 4.80001 25.6 4.80001 25.7C4.80001 25.8 4.90001 25.8 4.90001 25.9H4.20001V26.2ZM6.90001 33.3C6.80001 33.4 6.70001 33.5 6.60001 33.6C6.40001 33.7 6.30001 33.8 6.40001 34C6.50001 34.2 6.40001 34.4 6.20001 34.4C6.10001 34.4 5.90001 34.4 5.90001 34.5C5.70001 34.7 5.40001 34.7 5.20001 34.7C4.80001 34.7 4.60001 34.5 4.40001 34.2L4.30001 34.1C4.30001 34.1 4.30001 34.1 4.20001 34C4.00001 33.7 4.10001 33.4 4.10001 33.2C4.10001 33.1 4.10001 33 4.20001 32.9C4.30001 32.7 4.50001 32.5 4.60001 32.4C4.80001 32.2 5.00001 32.1 5.10001 31.9C5.30001 31.7 5.40001 31.5 5.60001 31.8C5.60001 31.5 5.70001 31.4 6.00001 31.4C6.10001 31.4 6.20001 31.4 6.20001 31.4C6.20001 31.5 6.20001 31.6 6.20001 31.7C6.20001 31.8 6.10001 31.9 6.10001 32C6.10001 32.1 6.20001 32.2 6.30001 32.3C6.50001 32.3 6.90001 32.6 6.90001 32.8C7.00001 33.2 7.00001 33.3 6.90001 33.3ZM11.2 32.3C11 32.4 11 32.6 11 32.7C11 32.7 11 32.8 11 32.9C10.9 33.1 10.7 33.4 10.6 33.6C10.5 33.7 10.5 33.9 10.4 34C10.2 34.2 10 34.3 10 34.6C9.80001 34.7 9.60001 34.9 9.30001 35C9.20001 35.1 9.00001 35.1 8.90001 35.1C8.50001 35.1 8.10001 35 7.70001 35C7.50001 35 7.40001 34.8 7.30001 34.6C7.30001 34.5 7.40001 34.4 7.40001 34.3C7.60001 34.1 7.90001 34 8.00001 33.6C8.00001 33.6 8.00001 33.5 8.10001 33.5C8.20001 33.4 8.30001 33.2 8.50001 33.3C8.40001 33 8.80001 33.2 8.80001 33C8.80001 32.9 8.80001 32.8 8.80001 32.8C8.80001 32.7 8.80001 32.6 8.80001 32.5C9.00001 32.5 9.10001 32.4 9.30001 32.4C9.50001 32.4 9.50001 32.2 9.60001 32.1C9.50001 32.1 9.50001 32 9.40001 32C9.20001 32 9.10001 32 8.90001 31.9C8.70001 31.8 8.50001 31.7 8.30001 31.6C8.40001 31.6 8.60001 31.6 8.70001 31.6C8.90001 31.6 9.10001 31.7 9.30001 31.7C9.40001 31.7 9.60001 31.7 9.70001 31.7C9.90001 31.8 10 31.9 10.2 32C10.3 32.1 10.4 32.1 10.4 32C10.5 31.9 10.6 31.8 10.7 31.8C10.9 31.8 11.1 31.9 11.2 32C11.2 32.1 11.2 32.3 11.2 32.3ZM13.1 30C13 30.1 13 30.1 12.9 30.1C12.8 30.1 12.8 30.2 12.7 30.2C12.5 30.2 12.3 30.3 12.3 30.5C12.3 30.7 12 30.8 11.9 30.8C11.6 30.7 11.2 30.8 10.9 30.6C10.7 30.5 10.4 30.5 10.2 30.5C9.60001 30.4 9.00001 30.2 8.40001 30C7.80001 29.8 7.10001 29.8 6.60001 29.5C6.20001 29.3 5.80001 29.1 5.40001 28.9C5.30001 28.9 5.30001 28.8 5.20001 28.7C5.10001 28.6 4.90001 28.5 4.80001 28.4C4.90001 28.2 4.90001 28.1 5.00001 28C5.00001 28 5.10001 28 5.20001 28C5.40001 28 5.60001 28 5.80001 28C5.80001 27.9 5.70001 27.9 5.70001 27.8C5.60001 27.6 5.50001 27.4 5.80001 27.2C5.80001 27.2 5.80001 27.1 5.80001 27C5.80001 26.9 5.80001 26.8 5.80001 26.7C6.10001 26.9 6.30001 26.9 6.50001 27C6.60001 27 6.70001 27 6.70001 27C6.70001 26.9 6.70001 26.9 6.70001 26.8C6.70001 26.8 6.60001 26.7 6.50001 26.7C6.30001 26.6 6.30001 26.4 6.40001 26.3C6.70001 26.5 7.10001 26.6 7.50001 26.6C7.60001 26.6 7.70001 26.5 7.70001 26.4C7.70001 26.2 7.70001 25.9 7.70001 25.7C7.90001 25.7 8.10001 25.6 8.30001 25.6C8.30001 25.6 8.40001 25.7 8.50001 25.7C8.70001 25.8 8.90001 25.8 9.10001 26C9.10001 26 9.20001 26 9.20001 26C9.50001 26 9.50001 26.1 9.60001 26.3C9.70001 26.6 9.80001 26.8 10 26.9C10.1 27 10.2 27 10.3 27.1C10.6 27.3 10.9 27.6 11.1 27.8C11.1 27.9 11.1 28 11.2 28C11.3 28.1 11.5 28.2 11.7 28.3C11.8 28.3 11.8 28.4 11.9 28.4C11.9 28.3 12 28.3 12.1 28.2C12.2 28.3 12.3 28.5 12.4 28.6C12.6 28.8 12.8 29 13.1 29.2C13.2 29.3 13.3 29.4 13.4 29.5C13.5 29.6 13.6 29.7 13.6 29.7C13.3 29.8 13.2 29.9 13.1 30ZM16.9 28.9C16.8 28.9 16.6 28.9 16.5 28.9C16.1 28.9 15.7 28.9 15.3 28.9C15.1 28.9 14.9 28.9 14.8 28.9C14.4 28.8 14.2 28.5 14 28.3C13.9 28.2 13.9 28.2 13.8 28.1C13.5 27.8 13.3 27.5 13 27.3C12.7 27.2 12.6 27 12.5 26.8V26.7C12.6 26.6 12.5 26.4 12.5 26.3C12.5 26.2 12.6 26.1 12.6 26.1C12.9 26.2 12.9 25.9 13 25.8C13.2 25.8 13.8 25.5 13.8 25.3C14 25.4 14.2 25.4 14.2 25.2C14.2 25 14.3 25 14.5 25C14.7 25 15 25.2 14.9 25.4C14.9 25.6 15 25.6 15.1 25.6C15.4 25.6 15.5 25.8 15.7 26C15.9 26.3 16.1 26.6 16.3 26.9C16.4 27 16.5 27.1 16.5 27.2C16.6 27.5 16.7 27.8 16.9 28C17.1 28.2 17.1 28.5 17.2 28.7C17.3 28.7 17.2 28.9 16.9 28.9ZM59 23C59 23 59.1 23 59.2 23C59.4 23.2 59.6 23.2 59.8 23C60.1 22.8 60.3 22.6 60.5 22.4C60.5 22.2 60.6 22.2 60.8 22.2C61 22.2 61.1 22.2 61.2 22.4C61.2 22.4 61.3 22.4 61.4 22.4C61.6 22.3 61.8 22.3 62 22.5C62.4 23 62.4 23.8 61.9 24.2C61.8 24.3 61.7 24.5 61.7 24.6C61.6 24.8 61.5 25 61.2 25C61 25 60.9 25.1 60.7 25.2C60.4 25.4 60 25.5 59.7 25.3C59.6 25.2 59.6 25.1 59.6 25C59.6 24.9 59.5 24.9 59.5 24.9L59.4 24.8C59.3 24.6 59.1 24.6 59 24.7C58.9 24.7 58.9 24.7 58.8 24.8C58.6 24.5 58.7 24.1 58.6 23.8C58.5 23.3 58.8 23.2 59 23ZM57.1 28.3C56.8 28.5 56.7 28.9 56.3 28.9C56.1 28.9 55.9 28.9 55.8 28.9C55.4 28.9 55 28.9 54.6 28.9C54.5 28.9 54.3 28.9 54.2 28.9C54 28.9 53.9 28.7 53.9 28.5C54 28.3 54 28 54.2 27.8C54.4 27.6 54.4 27.3 54.6 27C54.7 26.9 54.7 26.8 54.8 26.7C55 26.4 55.2 26.1 55.4 25.8C55.5 25.6 55.7 25.4 56 25.4C56.1 25.4 56.2 25.4 56.2 25.2C56.2 25.1 56.4 24.9 56.6 24.8C56.8 24.8 56.8 24.9 56.9 25C56.9 25.2 57.1 25.2 57.3 25.1C57.3 25.3 57.9 25.6 58.1 25.6C58.2 25.7 58.2 26 58.5 25.9L58.6 26.1C58.6 26.2 58.5 26.4 58.6 26.5V26.6C58.5 26.8 58.4 27 58.1 27.1C57.8 27.4 57.6 27.7 57.3 27.9C57.2 28.2 57.1 28.2 57.1 28.3ZM63.5 35C63.1 35 62.7 35.1 62.3 35.1C62.2 35.1 62 35.1 61.9 35C61.7 34.9 61.5 34.7 61.2 34.6C61.2 34.3 61 34.1 60.8 34C60.7 33.9 60.7 33.7 60.6 33.6C60.5 33.4 60.3 33.1 60.2 32.9C60.2 32.9 60.2 32.8 60.2 32.7C60.2 32.5 60.2 32.3 60 32.3C60 32.3 60 32.2 60 32.1C60.2 32 60.3 31.9 60.5 31.9C60.6 31.9 60.7 32 60.8 32.1C60.9 32.2 61 32.2 61.1 32.1C61.3 32 61.4 31.9 61.6 31.8C61.7 31.8 61.8 31.8 62 31.8C62.2 31.8 62.4 31.7 62.6 31.7C62.7 31.7 62.8 31.7 63 31.7C62.8 31.8 62.6 31.9 62.4 32C62.2 32.1 62.1 32 61.9 32.1C61.8 32.1 61.8 32.2 61.7 32.2C61.8 32.3 61.8 32.5 62 32.5C62.2 32.5 62.3 32.6 62.5 32.6C62.5 32.7 62.5 32.8 62.5 32.9C62.5 33 62.5 33.1 62.5 33.1C62.5 33.3 62.9 33.1 62.8 33.4C63 33.3 63.1 33.5 63.2 33.6L63.3 33.7C63.4 34 63.7 34.2 63.9 34.4C64 34.5 64 34.6 64 34.7C63.8 34.9 63.7 35 63.5 35ZM65.9 32C66.1 32.2 66.3 32.3 66.4 32.5C66.6 32.7 66.7 32.8 66.8 33C66.9 33.1 66.9 33.2 66.9 33.3C66.9 33.6 67 33.9 66.8 34.1C66.8 34.1 66.8 34.1 66.7 34.2L66.6 34.3C66.4 34.6 66.2 34.8 65.8 34.8C65.5 34.8 65.3 34.8 65.1 34.6C65 34.5 64.9 34.5 64.8 34.5C64.6 34.4 64.5 34.3 64.6 34.1C64.7 33.9 64.6 33.8 64.4 33.7C64.3 33.6 64.1 33.5 64.1 33.4C64 33.3 64 33.2 64.1 33.1C64.1 32.8 64.5 32.5 64.7 32.6C64.8 32.5 64.8 32.4 64.9 32.3C64.9 32.2 64.9 32.1 64.8 32C64.8 31.9 64.7 31.8 64.8 31.7C64.8 31.7 65 31.6 65 31.7C65.3 31.7 65.3 31.8 65.4 32.1C65.6 31.7 65.7 31.9 65.9 32ZM65.8 28.8C65.7 28.9 65.7 29 65.6 29C65.2 29.2 64.8 29.4 64.4 29.6C63.8 29.9 63.2 29.9 62.6 30.1C62 30.3 61.4 30.4 60.8 30.6C60.6 30.7 60.3 30.6 60.1 30.7C59.8 30.9 59.4 30.8 59.1 30.9C58.9 30.9 58.7 30.8 58.7 30.6C58.7 30.3 58.5 30.3 58.3 30.3C58.2 30.3 58.2 30.3 58.1 30.2C58 30.2 58 30.1 57.9 30.1C57.8 30 57.7 29.9 57.7 29.8C57.7 29.7 57.8 29.6 57.9 29.6C58 29.5 58.1 29.4 58.2 29.3C58.4 29.1 58.6 28.9 58.9 28.7C59 28.6 59.1 28.5 59.2 28.3C59.3 28.4 59.3 28.4 59.4 28.5C59.5 28.5 59.5 28.4 59.6 28.4C59.8 28.3 59.9 28.2 60.1 28.1C60.1 28.1 60.1 28 60.2 27.9C60.4 27.7 60.7 27.5 61 27.2C61.1 27.1 61.2 27 61.3 27C61.6 26.9 61.6 26.7 61.7 26.4C61.7 26.2 61.8 26 62.1 26.1C62.2 26.1 62.2 26 62.3 26C62.4 25.8 62.7 25.8 62.9 25.7C63 25.7 63.1 25.6 63.1 25.6C63.3 25.6 63.5 25.7 63.7 25.7C63.7 25.9 63.7 26.2 63.7 26.4C63.7 26.5 63.8 26.6 63.9 26.6C64.3 26.6 64.6 26.5 65 26.3C65.2 26.4 65.1 26.6 64.9 26.7C64.8 26.7 64.8 26.8 64.7 26.8C64.7 26.9 64.7 26.9 64.7 27C64.7 27 64.8 27.1 64.9 27C65.1 27 65.3 26.9 65.5 26.8C65.5 26.9 65.5 27 65.5 27.1C65.5 27.2 65.5 27.2 65.5 27.3C65.8 27.5 65.7 27.7 65.6 27.9C65.6 28 65.5 28 65.5 28.1C65.7 28.1 65.9 28.1 66.1 28.1C66.2 28.1 66.3 28.1 66.3 28.2C66.3 28.3 66.4 28.4 66.5 28.6C66.1 28.6 66 28.7 65.8 28.8ZM69.9 25.7C69.5 26.2 69.1 26.7 68.5 27C68.4 27 68.3 27.1 68.3 27.1C68.1 27.2 68 27.3 67.8 27.4C67.7 27.3 67.7 27.2 67.6 27.1C67.3 27 67.3 27 67.4 26.7C67.4 26.6 67.4 26.5 67.3 26.5C67.2 26.5 67.1 26.6 67 26.6C67 26.5 67 26.3 67 26.2H66.1C66.1 26.1 66.2 26 66.2 26C66.2 25.9 66.3 25.8 66.2 25.8C66.1 25.8 66 25.7 65.9 25.8C65.8 25.8 65.8 25.9 65.7 25.9C65.6 25.7 65.7 25.6 65.8 25.5C66 25.4 66 25.2 66 25C66 24.9 66 24.8 66 24.8C65.9 24.8 65.7 24.7 65.6 24.7C65.5 24.7 65.5 24.4 65.7 24.3C65.9 24.1 66.2 24.1 66.4 24C66.5 24 66.7 24 66.9 23.9C67.4 23.7 67.8 23.8 68.3 23.9C68.5 23.9 68.6 23.9 68.8 24C69 24 69.1 24.1 69.3 24.2L69.4 24.3C69.7 24.3 69.8 24.6 69.9 24.8C70 25 70 25.3 70 25.6C70 25.4 70 25.6 69.9 25.7Z" fill="#BA1F36"/>
<path d="M32.9 51.1C33.1 51.2 33.1 51.2 33.2 51.2C33.1 51.2 33 51.1 32.9 51.1ZM34.1 51.5C33.8 51.5 33.6 51.4 33.3 51.3C33.7 51.5 34.1 51.6 34.6 51.6C34.4 51.5 34.2 51.5 34.1 51.5ZM36 51.5C35.8 51.5 35.7 51.5 35.5 51.5C35.7 51.6 35.9 51.6 36 51.5C36.2 51.6 36.3 51.5 36.5 51.5C36.3 51.5 36.2 51.5 36 51.5ZM37.8 51.3C37.8 51.2 37.8 51.2 37.8 51.3Z" fill="#BA1F36"/>
<path d="M31.3 57.7C31.4 57.7 31.5 57.7 31.5 57.6C31.6 57.5 31.6 57.3 31.7 57.2C31.8 56.8 31.9 56.3 31.8 55.9C31.7 55.6 31.7 55.3 31.6 55C31.5 54.8 31.3 54.6 31 54.5C30.5 54.3 30 54 29.5 53.8C29.3 53.7 29.2 53.7 29 53.7C28.6 53.6 28.1 53.5 27.7 53.4C27.5 53.3 27.4 53.2 27.2 53.1C27 53 26.8 52.9 26.7 52.9C26.5 52.8 26.3 52.7 26.2 52.6C25.9 52.4 25.5 52.1 25.3 51.8C25.1 51.6 24.9 51.3 24.9 50.9C24.9 50.9 24.9 50.8 24.8 50.8C24.7 50.6 24.9 50.2 25.1 50.2C25.3 50.2 25.6 50.2 25.8 50.2C26.3 50.3 26.7 50.6 27 51C27.1 51.2 27.3 51.3 27.4 51.5C27.4 51.5 27.6 51.5 27.7 51.5C27.8 51.4 27.9 51.3 27.9 51.2C27.9 51 27.9 50.8 27.8 50.6C27.7 50.4 27.6 50.3 27.5 50.2C27.3 50 27.1 49.8 26.9 49.6C26.8 49.5 26.6 49.4 26.4 49.3C26.3 49.3 26.2 49.2 26.1 49.2C25.9 49.1 25.7 49 25.5 49C25.3 49 25 48.8 24.9 49.1C24.9 49.1 24.8 49.1 24.7 49.1C24.5 49.1 24.3 49.2 24.3 49.4C24.3 49.5 24.2 49.5 24.2 49.6C24 49.9 23.8 50.2 23.7 50.6C23.6 50.9 23.7 51.3 23.8 51.7C23.9 52.3 24.3 52.7 24.7 53.1C25.1 53.5 25.6 53.8 26.1 54H26.2C26.5 53.9 26.8 54.2 27 54.3C27.2 54.4 27.3 54.4 27.5 54.5C27.6 54.5 27.7 54.6 27.8 54.7C28.3 54.9 28.9 55 29.4 55.2C29.7 55.4 30 55.7 30.3 55.9V56C30.6 55.9 30.7 56.1 30.8 56.3C30.9 56.4 30.9 56.6 30.8 56.8C30.8 56.9 30.7 57 30.6 57C30.2 57.1 29.8 57.1 29.4 57.1C29.3 57 29.2 56.9 29 56.9C28.9 56.9 28.7 56.8 28.6 56.7C28.5 56.6 28.4 56.6 28.3 56.6C28.2 56.6 28.2 56.5 28.1 56.5C28.1 56.5 28.1 56.5 28 56.4C27.6 56.2 27.3 55.9 26.9 55.7C26.8 55.7 26.6 55.7 26.5 55.8C26.5 55.8 26.5 55.9 26.4 56C26.4 56 26.4 56.1 26.5 56.1L26.6 56.2C26.7 56.7 27 57 27.3 57.2C27.8 57.6 28.3 57.9 28.8 58.3C29.1 58.5 29.4 58.5 29.8 58.5C30.1 58.5 30.4 58.3 30.7 58.2C30.8 58.1 31 58.1 31.1 58C31.1 57.8 31.2 57.7 31.3 57.7Z" fill="#BA1F36"/>
<path d="M41.6 51.1C41.9 51.2 42.2 51.3 42.5 51.2C42.7 51.1 42.8 51 42.9 50.9C43.2 50.7 43.5 50.7 43.8 50.8C44.1 50.9 44.3 51.1 44.6 51.4C44.8 51.6 44.9 51.8 44.9 52C45 52.4 44.7 52.8 44.4 53C43.9 53.3 43.4 53.5 42.9 53.6C42.6 53.6 42.4 53.7 42.1 53.6C41.8 53.5 41.6 53.4 41.3 53.4C40.9 53.4 40.5 53.7 40.1 53.7C39.9 53.7 39.8 53.7 39.6 53.7C39.3 53.7 39.1 53.9 38.9 54.1C38.8 54.2 38.6 54.3 38.5 54.4C38.2 54.7 38 55.2 38 55.7C38 56.2 38.2 56.6 38.4 57C38.6 57.4 38.9 57.7 39.3 57.9C39.7 58.1 40.2 58.2 40.6 58C41 57.9 41.3 57.5 41.7 57.2C41.9 56.9 42.2 56.7 42.4 56.4C42.5 56.3 42.6 56.2 42.6 56.1C42.6 56 42.7 55.9 42.6 55.8C42.5 55.7 42.4 55.7 42.3 55.8C42.3 55.9 42.3 55.9 42.2 56C42.1 56.1 42 56.1 41.9 56.2C41.8 56.2 41.7 56.2 41.5 56.2C41.4 56.2 41.3 56.3 41.2 56.3C41.1 56.4 41 56.5 40.9 56.6C40.6 57 40.3 57 40.1 57C39.9 56.9 39.7 56.8 39.6 56.7C39.5 56.6 39.5 56.4 39.3 56.3C39.2 56.3 39.2 56.3 39.1 56.2C39.1 56.2 39 56.1 39 56C39 55.9 39 55.8 39 55.8C39 55.7 39.1 55.5 39.2 55.4C39.3 55.2 39.6 55.2 39.8 55.1C40 55 40.2 55.1 40.4 55.1C40.8 55.1 41.2 55 41.5 54.9C42.1 54.7 42.8 54.8 43.4 54.6C44 54.4 44.5 54 45 53.6C45.2 53.5 45.3 53.3 45.4 53.1C45.5 52.9 45.5 52.6 45.6 52.3C45.6 52.2 45.7 52.1 45.7 52C45.7 51.7 45.4 51.4 45.3 51.1C45.1 50.8 44.9 50.4 44.7 50.2C44.2 49.7 43.3 49.5 42.6 49.7C42.1 49.9 41.9 50.5 41.6 51.1Z" fill="#BA1F36"/>
<path d="M35.1 55C34.8 55.1 34.4 55.1 34.1 55.2C34 55.2 33.9 55.3 33.9 55.3C33.7 55.5 33.5 55.7 33.4 55.9C33.1 56.2 33.2 56.6 33.3 57C33.3 57.4 33.4 57.7 33.7 58C33.9 58.3 34.1 58.6 34.5 58.8C34.6 58.9 34.7 59 34.8 59C34.9 59 35.1 59 35.3 59C35.4 59 35.6 59 35.7 59C35.9 59 36.1 58.9 36.3 58.9C36.6 58.9 36.9 58.7 37.1 58.4C37.2 58.3 37.3 58.1 37.3 57.9C37.2 57.4 37.1 56.9 37 56.4C36.9 55.9 36.5 55.6 36.1 55.3C36.1 55.3 36 55.3 36 55.2C35.6 55.1 35.4 55 35.1 55Z" fill="#BA1F36"/>
<path d="M47.1 62.1C47.1 62.3 47.1 62.5 47 62.7C47 62.8 46.9 62.8 46.9 62.9C46.9 63 46.8 63.1 46.8 63.1C46.7 63.3 46.6 63.6 46.5 63.8C46.3 64 46.2 64.2 46 64.4C46 64.4 46 64.5 45.9 64.5C45.9 64.5 45.8 64.5 45.8 64.6C45.7 64.7 45.5 64.8 45.4 64.8C45.3 64.9 45.1 64.9 44.9 64.9C44.5 65 44 65 43.6 64.9C43.2 64.9 42.9 64.7 42.5 64.6C42.4 64.6 42.3 64.5 42.2 64.5C42.1 64.5 42 64.5 42 64.5C41.8 64.5 41.7 64.6 41.5 64.6C41.2 64.5 40.9 64.4 40.7 64.4C40.6 64.4 40.5 64.4 40.5 64.5C40.5 64.9 40.5 65.2 40.6 65.6C40.6 65.7 40.6 65.9 40.6 66C40.7 66.2 40.6 66.4 40.6 66.7C40.6 67 40.6 67.2 40.5 67.5C40.5 67.7 40.5 67.8 40.4 68C40.4 68.1 40.3 68.3 40.3 68.3C40.4 68.5 40.3 68.6 40.3 68.7C40.2 69 40 69.2 40 69.5C39.8 70.8 39 72 38.2 73C38.1 73.1 38 73.3 37.9 73.4C37.7 73.6 37.4 73.7 37.2 73.9C36.8 74.2 36.3 74.5 35.8 74.5C35.7 74.5 35.6 74.5 35.5 74.5C35.3 74.5 35 74.4 34.8 74.4C34.1 74.2 33.3 74 32.7 73.6C32.2 73.4 32.1 72.9 31.7 72.6C31.4 72.4 31.3 72.1 31.2 71.8C31.1 71.4 31 70.9 30.8 70.5C30.7 70.3 30.6 70 30.6 69.7C30.6 69.5 30.5 69.3 30.5 69.1C30.5 68.9 30.5 68.7 30.4 68.6C30.4 68.5 30.3 68.3 30.3 68.2C30.3 68.1 30.2 68 30.2 68C30.2 67.7 30.2 67.4 30.2 67C30.2 66.7 30.1 66.3 30.2 66C30.3 66 30.3 66.1 30.4 66.1C30.4 65.8 30.3 65.4 29.9 65.3C29.8 65.3 29.7 65.2 29.8 65.1C29.8 65 29.8 65 29.8 64.9C29.6 64.8 29.5 64.8 29.2 65C28.8 65.3 28.4 65.6 27.9 65.7C27.7 65.8 27.5 66 27.2 66C26.5 66 25.8 66.1 25.1 66C24.6 65.9 24.1 65.8 23.6 65.4C23.4 65.3 23.3 65.1 23.1 65C23 65 22.9 64.9 22.9 64.9C22.7 64.8 22.7 64.5 22.6 64.3C22.6 64 22.5 63.7 22.5 63.3C22.5 63 22.6 62.7 22.6 62.4C22.5 61.8 22.7 61.3 22.9 60.8C23.1 60.3 23.4 59.8 23.9 59.5C24.2 59.3 24.5 59.1 24.7 59C24.8 58.9 24.9 58.9 25 58.8C25 58.8 25 58.8 25.1 58.8C25.1 58.5 25.3 58.5 25.5 58.4C25.7 58.3 26 58.3 26.1 58.5C26.3 58.8 26.6 58.7 26.8 58.7C27.2 58.6 27.6 58.7 28 58.8C28.1 58.8 28.2 58.9 28.2 59C28.2 59.1 28.1 59.1 28 59.2C27.9 59.2 27.8 59.2 27.7 59.3C27.5 59.4 27.3 59.5 27.1 59.6C26.6 59.8 26.5 60.3 26.6 60.7C26.7 60.9 26.8 61 26.9 61.2C27 61.3 27.1 61.3 27.2 61.3C27.3 61.3 27.4 61.3 27.5 61.3C27.7 61.4 27.8 61.4 28 61.3C28.1 61.3 28.2 61.3 28.2 61.4C28.4 61.6 28.5 61.8 28.7 62C28.8 62.1 29.1 62.2 29.2 62.1C29.4 62 29.6 61.9 29.8 61.7C30 61.4 30.2 61 30.6 60.8C30.7 60.8 30.7 60.7 30.7 60.6C30.8 60.3 31 60.1 31.2 60C31.4 59.9 31.5 59.8 31.6 59.7C31.7 59.6 31.9 59.4 32.1 59.4C32.2 59.4 32.3 59.3 32.4 59.3C32.5 59.3 32.5 59.2 32.6 59.2L32.7 59.3C32.8 59.5 32.7 59.6 32.6 59.8C32.5 60 32.4 60.3 32.6 60.5C32.8 60.7 32.7 60.9 32.6 61.1C32.6 61.2 32.5 61.3 32.5 61.4C32.4 62 32.2 62.5 32.2 63.1C32.1 63.6 32.1 64.1 32.4 64.5C32.5 64.7 32.6 64.8 32.8 65C32.9 65.1 32.9 65.1 33 65.2C33.3 65.2 33.6 65.3 33.8 65.5C33.9 65.6 34 65.6 34.1 65.6C34.2 65.6 34.3 65.6 34.4 65.5C34.4 65.5 34.4 65.5 34.5 65.5C34.7 65.7 34.9 65.8 35.1 66C35.1 66 35.4 66.2 35.5 66.3C35.6 66.4 35.7 66.3 35.7 66.2C35.7 66.2 35.7 66.2 35.8 66.2C36 66.2 36.1 66.3 36.3 66.3C36.3 66.2 36.2 66.1 36.3 66V65.9C36.4 65.8 36.4 65.9 36.5 66C36.6 66.1 36.7 66.1 36.7 66.1C36.8 66.2 36.9 66.3 37 66.5C37 66.5 37 66.5 37 66.4C37 66.2 36.9 66.1 36.9 65.9C36.9 65.8 36.9 65.8 36.9 65.7C36.9 65.6 37 65.6 37.1 65.6C37.1 65.6 37.2 65.6 37.2 65.7C37.3 65.8 37.3 65.9 37.3 66C37.4 66.2 37.5 66.4 37.7 66.5C37.7 66.5 37.8 66.6 37.9 66.5L38 66.4C38 66.3 37.9 66.2 37.9 66.1C37.9 66 37.8 65.9 37.9 65.8C37.9 65.8 38 65.7 38 65.8C38.1 65.9 38.2 66.1 38.3 66.2C38.3 66.2 38.3 66.3 38.4 66.3C38.5 66.3 38.6 66.2 38.6 66.2C38.6 66.1 38.6 66 38.7 66C38.8 66 38.9 66 39 65.9V65.8C39 65.4 38.9 65 38.8 64.7C38.7 64.3 38.6 64 38.5 63.6C38.4 63.3 38.2 62.9 38.2 62.6C38.2 62.4 38.2 62.3 38.2 62.1C38.2 61.8 38.3 61.8 38.2 61.5C38.1 60.8 38.1 60.6 38.1 60.5C38 60.3 37.8 60.2 37.7 60C37.6 59.8 37.6 59.6 37.6 59.4C37.6 59.2 37.6 59.1 37.8 59C37.9 59 38 59 38.1 59.1C38.3 59.4 38.4 59.6 38.7 59.7C38.9 59.7 39 59.8 39.1 60C39.2 60.2 39.4 60.3 39.5 60.5C39.6 60.5 39.7 60.5 39.7 60.6C40.1 60.9 40.4 61.3 40.9 61.4C40.9 61.1 41.2 60.9 41.4 61C41.5 61 41.6 61.1 41.8 61.1C41.9 61.1 42 61.2 42.1 61C42.2 60.9 42.4 60.8 42.5 60.7C42.7 60.6 42.9 60.5 43 60.3C43 60.2 43.2 60.2 43.2 60.2C43.4 60.2 43.4 60.1 43.4 60C43.5 60 43.7 60 43.8 60C44.3 60 44.2 59.4 44.1 59.1V59H44C43.9 59 43.9 59 43.8 59C43.7 59 43.7 59 43.7 58.9V58.8C43.7 58.8 43.7 58.8 43.7 58.7C43.6 58.5 43.5 58.4 43.4 58.2C43.4 58.1 43.4 57.9 43.5 57.9C43.6 57.9 43.8 57.9 43.9 58C44.2 58.2 44.5 58.4 44.8 58.6C45.1 58.8 45.4 58.9 45.6 59.1C45.9 59.4 46.1 59.7 46.4 60C46.6 60.3 46.8 60.7 46.9 61C47 61.1 47 61.3 47 61.4C47.1 61.6 47.1 61.8 47.1 62.1ZM28.4 63L28.2 62.5C28.4 62.2 28 62.1 27.7 62.2C27.5 62.2 27.3 62.4 27.1 62.3C27 62.3 26.9 62.1 26.7 62C26.6 62 26.5 61.9 26.4 61.9C26.3 61.9 26.2 61.8 26.2 61.7C26.2 61.6 26.2 61.5 26.1 61.4C26 61.3 25.9 61.4 25.8 61.4C25.7 61.5 25.7 61.5 25.6 61.6C25.5 61.6 25.5 61.6 25.4 61.6V61.5C25.4 61.4 25.5 61.3 25.5 61.1V61H25.4C25.1 61.2 24.9 61.6 24.7 61.9C24.5 62.3 24.3 62.8 24.3 63.3C24.3 63.5 24.4 63.7 24.5 63.8C24.6 63.9 24.7 63.9 24.8 63.9C25 64 25.2 64.1 25.4 64.3C25.7 64.5 26.1 64.6 26.5 64.5C27 64.4 27.3 64.1 27.7 63.8C27.9 63.6 28.1 63.5 28.3 63.3C28.4 63.2 28.4 63.2 28.4 63.1C28.6 63.1 28.5 63 28.4 63ZM39.3 67.3C39.2 67.2 39.1 67 38.9 67C38.8 67 38.6 67.1 38.4 67.1C38.2 67.1 37.9 67.3 37.8 67.5L37.7 67.6L37.3 67.7C37.1 67.7 37 67.4 36.8 67.3C36.7 67.5 36.6 67.6 36.6 67.8C36.6 67.8 36.6 67.9 36.5 67.9C36.5 67.9 36.5 67.9 36.4 67.9C36.2 67.8 36 67.7 35.7 67.7C35.6 67.7 35.6 67.7 35.6 67.8V67.9C35.6 68 35.7 68.1 35.8 68.1C35.9 68.2 36 68.3 35.9 68.4C35.8 68.5 35.6 68.3 35.5 68.2C35.4 68.1 35.2 68 35.1 67.9C35 67.9 34.9 67.7 34.9 67.7C34.8 67.7 34.7 67.8 34.5 67.7C34.3 67.6 34.2 67.1 33.9 67.3C33.9 67.3 33.9 67.3 33.8 67.3C33.7 67.4 33.6 67.4 33.5 67.3C33.5 67.3 33.5 67.3 33.4 67.3C33.4 67.3 33.4 67.3 33.3 67.4C33.2 67.5 33.1 67.7 33 67.8L32.9 67.9C32.8 67.9 32.7 67.9 32.6 67.8C32.5 67.7 32.3 67.8 32.2 67.8C32.1 67.9 31.9 67.9 31.8 67.8C31.8 67.8 31.8 67.8 31.7 67.8C31.7 67.8 31.7 67.8 31.6 67.8C31.2 68 31.4 68.9 31.7 69.2C31.8 69.4 31.9 69.6 32 69.7C32.1 69.9 32.3 70.2 32.5 70.4C32.6 70.6 32.8 70.9 33 71C33.2 71.2 33.3 71.4 33.6 71.5C34.1 71.7 34.5 71.9 35 71.9C35.5 71.9 36 71.7 36.5 71.5C36.7 71.4 36.9 71.2 37.1 71C37.4 70.7 37.8 70.4 38.1 70.1C38.5 69.8 38.9 69.3 38.8 68.9C38.9 68.9 39 68.8 39.1 68.8C39.2 68.7 39.1 68.6 39.1 68.5C39.1 68.4 39.2 68.4 39.2 68.3C39.2 68.1 39.2 67.9 39.3 67.6C39.3 67.4 39.3 67.3 39.3 67.3ZM46.3 62.3C46.2 62.1 46.1 61.9 46 61.6C46 61.5 45.9 61.5 45.9 61.4C45.6 61.2 45.4 60.9 45.2 60.7C45 60.5 44.8 60.3 44.6 60.1C44.5 60.1 44.6 59.9 44.4 60C44.2 60.1 44.2 60.2 44.2 60.3C44.2 60.5 44.1 60.5 44 60.6C43.7 60.6 43.7 60.7 43.8 61C43.7 61 43.6 61 43.6 61.1C43.5 61.2 43.5 61.3 43.5 61.4C43.5 61.5 43.5 61.6 43.6 61.6C43.3 61.7 43.2 61.7 43.2 61.9C42.9 62.3 42.5 62.1 42.1 62.1C42.2 62.2 42.2 62.2 42.2 62.3C42.3 62.5 42.4 62.7 42.4 63C42.4 63.2 42.7 63.6 42.9 63.6C43.3 63.7 43.7 63.8 44 63.9C44.3 63.9 44.6 63.9 44.9 63.8C45.2 63.7 45.4 63.5 45.6 63.4C45.7 63.4 45.7 63.3 45.8 63.2C46 63.3 46 63.1 46.1 63C46.2 62.9 46.2 62.7 46.3 62.5C46.3 62.4 46.3 62.4 46.3 62.3Z" fill="#BA1F36"/>
<path d="M37.9 51.2C38 51.2 38.1 51.2 38.1 51.1C38.1 51.1 38.2 51.1 38.2 51C38.1 51.1 38 51.2 37.9 51.2ZM37 51.5C36.8 51.5 36.7 51.5 36.5 51.6C36.9 51.6 37.4 51.5 37.8 51.3C37.5 51.4 37.2 51.4 37 51.5ZM35 51.5C34.8 51.5 34.7 51.5 34.5 51.5C34.7 51.6 34.8 51.6 35 51.5C35.1 51.6 35.3 51.6 35.5 51.5C35.4 51.6 35.2 51.5 35 51.5ZM33.3 51.3C33.2 51.2 33.2 51.2 33.3 51.3C33.2 51.3 33.2 51.2 33.3 51.3Z" fill="#BA1F36"/>
<path d="M70.9 49.1C70.9 49 70.9 48.9 70.8 48.8C70.7 48.7 70.8 48.6 70.7 48.5C70.6 48.3 70.5 48.2 70.4 48C70.3 47.9 70.3 47.7 70.2 47.6C70.2 47.5 70.1 47.5 70 47.4L69.9 47.3C69.8 47.2 69.7 47.1 69.6 47V46.9V46.8C69.3 46.8 69.3 46.5 69.1 46.4C69 46.4 68.9 46.3 68.9 46.3C68.6 46.1 68.3 45.9 68.1 45.6C67.9 45.4 67.7 45.3 67.4 45.2C67.1 45 66.7 44.9 66.4 44.7C66.2 44.6 66 44.5 65.8 44.3C65.8 44.3 65.7 44.2 65.7 44.1C65.7 44 65.8 43.9 65.9 43.9C66.1 43.8 66.2 43.7 66.4 43.5C66.5 43.4 66.7 43.3 66.8 43.1C66.9 43 67 42.8 67.1 42.7V42.6H67.2C67.3 42.5 67.3 42.4 67.4 42.3C67.5 42.2 67.5 42.1 67.5 42C67.5 41.8 67.6 41.6 67.6 41.5C67.6 41.4 67.6 41.4 67.7 41.3L67.8 41.2C67.8 40.9 67.9 40.6 67.8 40.4C67.7 40.1 67.6 39.7 67.2 39.6C67.2 39.6 67.1 39.6 67.1 39.5C67.1 39.5 67 39.5 67 39.4C67.1 39.4 67.1 39.3 67.2 39.3C67.1 39.2 66.9 39.1 66.8 39C66.7 38.9 66.6 38.9 66.6 38.8L66.5 38.7C66.3 38.5 66.1 38.4 65.9 38.4C65.6 38.4 65.4 38.2 65.1 38.2C64.7 38.1 64.4 38 64 37.9C63.8 37.9 63.6 37.8 63.4 37.8C63 37.8 62.6 37.8 62.2 37.8C62.1 37.8 62 37.8 61.9 37.8C61.5 37.9 61.1 37.9 60.7 38.1C60.3 38.2 59.9 38.4 59.6 38.8C59.5 39 59.3 39.1 59.1 39.2C59 39.3 59 39.3 58.9 39.4C58.9 39.4 58.8 39.5 58.8 39.6C58.3 40 57.9 40.4 57.4 40.8C57.2 40.9 57 41.1 56.9 41.2C56.7 41.4 56.5 41.5 56.3 41.7C56.1 41.9 55.8 42.1 55.5 42.2C55.4 42.2 55.2 42.2 55.1 42.2C55 42.2 54.8 42.2 54.7 42.1C54.4 42.1 54.2 42 53.9 42C53.7 42 53.6 41.9 53.4 41.9C53.2 41.8 53 41.8 52.8 41.7C52.4 41.6 52 41.4 51.6 41.3C51.5 41.3 51.4 41.3 51.4 41.3C51.2 41.2 51 41.1 50.8 41.1C50.6 41 50.4 40.9 50.2 40.9C50.2 40.9 50.2 40.9 50.3 40.9C50 40.9 49.7 40.9 49.5 40.9C49.4 40.9 49.3 40.8 49.3 40.8C49.2 40.8 49 40.8 48.9 40.8C48.3 40.9 47.7 41.1 47.1 41.1C46.5 41.1 46 41.4 45.5 41.5C45.2 41.6 45 41.8 44.8 42C44.7 42 44.7 42.1 44.6 42.1C44.6 42.1 44.6 42.1 44.6 42.2C44.6 42.2 44.5 42.2 44.5 42.3L40.4 46.3C40.3 46.4 40.2 46.5 40.1 46.6C39.9 46.8 39.8 46.9 39.5 47C39.2 47 39 47.2 38.8 47.3C38.4 47.4 38.1 47.5 37.7 47.6C37.3 47.7 36.9 47.7 36.6 47.7C36.5 47.7 36.3 47.7 36.2 47.7C36.1 47.7 35.9 47.7 35.8 47.7C35.4 47.7 35 47.6 34.7 47.6C34.3 47.5 33.9 47.4 33.6 47.3C33.3 47.2 33.1 47.1 32.9 47C32.6 47 32.5 46.8 32.3 46.6C32.2 46.5 32.1 46.4 32 46.3C31.8 46.2 31.6 46.1 31.5 46C31.4 45.9 31.3 45.8 31.2 45.7C31.1 45.6 31 45.6 31 45.5C30.9 45.5 30.9 45.4 30.9 45.3C30.6 45 30.2 44.6 29.9 44.3C29.8 44.2 29.6 44 29.5 43.8C29.4 43.7 29.3 43.6 29.2 43.5C29.1 43.4 29.1 43.4 29 43.3C28.7 42.9 28.3 42.6 28 42.2C28 42.2 27.9 42.2 27.9 42.1C27.9 42.1 27.9 42.1 27.9 42C27.8 42 27.8 41.9 27.7 41.9C27.5 41.7 27.2 41.5 27 41.4C26.5 41.3 26 41 25.4 41C24.8 41 24.2 40.8 23.6 40.7C23.5 40.7 23.3 40.7 23.2 40.7C23.1 40.7 23 40.8 23 40.8C22.7 40.8 22.4 40.8 22.2 40.8H22.3C22.1 40.9 21.9 41 21.7 41C21.5 41.1 21.3 41.2 21.1 41.2C21 41.2 20.9 41.2 20.9 41.2C20.5 41.3 20.1 41.5 19.7 41.6C19.5 41.7 19.3 41.7 19.1 41.8C18.9 41.9 18.8 41.9 18.6 41.9C18.3 42 18.1 42 17.8 42C17.7 42 17.5 42 17.4 42.1C17.3 42.1 17.1 42.1 17 42.1C16.7 42.1 16.5 41.8 16.2 41.6C16 41.4 15.8 41.3 15.6 41.1C15.4 41 15.2 40.8 15.1 40.7C14.6 40.3 14.1 39.9 13.7 39.5C13.6 39.5 13.6 39.4 13.6 39.3C13.5 39.2 13.5 39.2 13.4 39.1C13.2 39 13 38.9 12.9 38.7C12.6 38.3 12.2 38.1 11.8 38C10.2 38 9.8 38 9.4 37.9C9.3 37.9 9.2 37.9 9.1 37.9C8.7 37.9 8.3 37.9 7.9 37.9C7.7 37.9 7.5 38 7.3 38C6.9 38.1 6.6 38.2 6.2 38.3C5.9 38.4 5.7 38.5 5.4 38.5C5.1 38.5 4.9 38.6 4.8 38.8L4.7 38.9C4.6 39 4.5 39 4.5 39.1C4.4 39.2 4.2 39.3 4.1 39.4C4.1 39.4 4.2 39.4 4.3 39.5C4.2 39.5 4.2 39.5 4.2 39.6C4.2 39.6 4.1 39.6 4.1 39.7C3.7 39.8 3.6 40.2 3.5 40.5C3.4 40.8 3.5 41.1 3.5 41.3C3.5 41.3 3.5 41.4 3.6 41.4C3.6 41.5 3.7 41.5 3.7 41.6C3.7 41.8 3.8 41.9 3.8 42.1C3.8 42.2 3.8 42.3 3.9 42.4C4 42.5 4 42.6 4.1 42.7C4.1 42.7 4.1 42.7 4.2 42.7C4.2 42.8 4.2 42.8 4.2 42.8C4.1 42.8 4.2 43 4.3 43.1C4.4 43.2 4.6 43.3 4.7 43.5C4.8 43.7 5 43.8 5.2 43.9C5.3 43.9 5.3 44 5.4 44.1C5.4 44.1 5.3 44.2 5.3 44.3C5.1 44.4 4.9 44.6 4.7 44.7C4.4 44.9 4 45 3.7 45.2C3.5 45.3 3.2 45.4 3 45.6C2.7 45.8 2.5 46.1 2.2 46.3C2.1 46.4 2.1 46.4 2 46.4C1.8 46.5 1.8 46.8 1.5 46.8V46.9V47C1.2 47 1.1 47.1 1 47.2L0.9 47.3C0.8 47.4 0.8 47.4 0.7 47.5C0.6 47.6 0.6 47.8 0.5 47.9C0.4 48.1 0.3 48.2 0.2 48.4C0.2 48.5 0.2 48.6 0.1 48.7C0 48.9 0.1 49 0 49.2C0 49.3 0 49.4 0 49.4L0.1 49.3C0.1 49.3 0.1 49.3 0.1 49.4C0.1 49.5 0.1 49.6 0.1 49.7C0.2 49.9 0.1 50.1 0.3 50.2C0.4 50.2 0.4 50.4 0.4 50.5C0.4 50.7 0.4 50.7 0.6 50.8C0.7 50.8 0.7 50.9 0.8 51C0.9 51 1.1 51 1.3 51.1C1.5 51.2 1.7 51.3 1.9 51.5C1.9 51.5 1.9 51.5 2 51.5C2.2 51.4 2.4 51.6 2.6 51.6C3 51.7 3.3 51.7 3.7 51.7C4 51.7 4.3 51.7 4.6 51.5C4.9 51.4 5.3 51.5 5.6 51.3C5.7 51.2 5.9 51.2 6 51.1C6.3 50.9 6.6 50.8 7 50.6C7.3 50.5 7.5 50.4 7.7 50.3C7.7 50.6 7.6 51 7.6 51.3C7.6 51.4 7.6 51.6 7.6 51.7C7.7 51.9 7.8 52 7.9 52.1C8 52.2 8.1 52.3 8.1 52.4C8.2 52.5 8.2 52.6 8.3 52.7C8.7 53 8.9 53.1 9.1 53.2C9.4 53.3 9.7 53.4 10.1 53.5C10.4 53.5 10.6 53.5 10.9 53.5C11.1 53.5 11.3 53.5 11.5 53.4C11.7 53.4 11.8 53.3 12 53.3C12.2 53.3 12.3 53.2 12.5 53.1C12.9 52.9 13.3 52.8 13.7 52.6C14 52.5 14.4 52.4 14.7 52.1C14.9 51.9 15.1 51.8 15.3 51.6C15.5 51.5 15.6 51.3 15.8 51.2C16.1 50.9 16.4 50.6 16.7 50.3C17.1 49.9 17.4 49.5 17.7 49.1C17.8 49 17.9 48.9 17.9 48.8C18 48.6 18 48.5 18.1 48.3C18.2 48.1 18.4 47.9 18.4 47.6C18.4 47.3 18.6 47 18.7 46.8L18.8 46.7C18.8 46.6 18.8 46.5 18.9 46.4C19 46.1 19.1 45.7 19.2 45.4C19.2 45.3 19.2 45.3 19.3 45.3C19.6 45.1 19.9 44.9 20.2 44.7C20.3 44.6 20.4 44.6 20.6 44.5C20.9 44.3 21.2 44.1 21.6 44C21.9 43.9 22.2 43.8 22.4 43.6C23 43.3 23.5 43.2 24.1 43.3C24.2 43.3 24.3 43.3 24.3 43.3C24.5 43.3 24.7 43.4 24.8 43.5C25.3 43.7 25.7 44 25.9 44.4L26 44.5C26.2 44.7 26.3 44.8 26.5 45C26.7 45.3 27 45.6 27.2 46C27.4 46.4 27.6 46.7 27.7 47.1C27.7 47.2 27.8 47.3 27.8 47.4C28 47.7 28.1 48.1 28.4 48.3C28.8 48.6 29.1 49 29.4 49.3C29.7 49.5 30 49.7 30.3 49.9C30.7 50.1 31.1 50.3 31.5 50.5C31.9 50.7 32.4 50.9 32.8 51.1C32.9 51.1 33 51.2 33.1 51.2H33.2C33.5 51.3 33.7 51.4 34 51.4C34.2 51.4 34.3 51.4 34.5 51.5C34.7 51.5 34.8 51.5 35 51.5C35.2 51.5 35.3 51.5 35.5 51.5C35.7 51.5 35.8 51.5 36 51.5C36.2 51.5 36.3 51.5 36.5 51.5C36.7 51.5 36.8 51.4 37 51.4C37.3 51.4 37.5 51.3 37.8 51.2H37.9C38 51.2 38.1 51.1 38.2 51.1C38.7 50.9 39.1 50.7 39.5 50.5C39.9 50.3 40.3 50.1 40.7 49.9C41 49.7 41.3 49.6 41.6 49.3C42 49 42.3 48.6 42.6 48.3C42.9 48 43.1 47.7 43.2 47.4C43.2 47.3 43.3 47.2 43.3 47.1C43.5 46.7 43.6 46.4 43.8 46C44 45.7 44.2 45.3 44.5 45C44.6 44.8 44.8 44.6 45 44.5L45.1 44.4C45.4 43.9 45.8 43.7 46.2 43.5C46.4 43.4 46.5 43.3 46.7 43.3C46.8 43.3 46.9 43.3 46.9 43.3C47.5 43.2 48.1 43.3 48.6 43.6C48.9 43.7 49.2 43.8 49.4 44C49.7 44.2 50 44.4 50.4 44.5C50.5 44.6 50.6 44.6 50.8 44.7C51.1 44.9 51.4 45.1 51.7 45.3L51.8 45.4C51.9 45.7 52 46.1 52.1 46.4C52.1 46.5 52.1 46.6 52.2 46.7L52.3 46.8C52.5 47 52.6 47.3 52.6 47.6C52.6 47.8 52.8 48 52.9 48.3C53 48.5 53 48.6 53.1 48.8C53.2 48.9 53.2 49 53.3 49.1C53.6 49.5 53.9 50 54.3 50.3C54.6 50.6 54.9 50.9 55.2 51.2C55.3 51.4 55.5 51.5 55.7 51.6C55.9 51.7 56.2 51.9 56.3 52.1C56.6 52.4 57 52.5 57.3 52.6C57.7 52.7 58.1 52.9 58.5 53.1C58.7 53.2 58.8 53.2 59 53.3C59.2 53.3 59.3 53.4 59.5 53.4C59.7 53.4 59.9 53.4 60.1 53.5C60.4 53.5 60.6 53.6 60.9 53.5C61.2 53.4 61.6 53.3 61.9 53.2C62.1 53.1 62.3 53 62.4 52.9C62.5 52.8 62.6 52.7 62.6 52.6C62.7 52.5 62.8 52.4 62.8 52.3C62.9 52.2 63 52 63.1 51.9C63.1 51.8 63.1 51.7 63.1 51.5C63.1 51.2 63 50.8 62.9 50.5C63.1 50.6 63.4 50.7 63.6 50.8C63.9 50.9 64.2 51.1 64.6 51.3C64.7 51.4 64.9 51.4 65 51.5C65.3 51.8 65.7 51.6 66 51.7C66.3 51.8 66.6 51.9 66.9 51.9C67.3 51.9 67.6 51.9 68 51.8C68.2 51.7 68.4 51.6 68.6 51.7C68.6 51.7 68.6 51.7 68.7 51.7C68.9 51.6 69.1 51.4 69.3 51.3C69.5 51.2 69.7 51.2 69.8 51.2C69.9 51.1 70 51 70 51C70.1 51 70.2 50.9 70.2 50.7C70.2 50.5 70.3 50.5 70.4 50.4C70.5 50.3 70.5 50.2 70.5 50.1C70.5 50 70.5 49.9 70.5 49.7V49.6H70.6C71 49.3 70.9 49.2 70.9 49.1ZM7.6 39.4C8 39.4 8.4 39.3 8.8 39.3C8.9 39.3 9.1 39.3 9.2 39.4C9.4 39.5 9.6 39.7 9.9 39.8C9.9 40.1 10.1 40.3 10.3 40.4C10.4 40.5 10.4 40.7 10.5 40.8C10.6 41 10.8 41.3 10.9 41.5C10.9 41.5 10.9 41.6 10.9 41.7C10.9 41.9 10.9 42.1 11.1 42.1C11.1 42.1 11.1 42.2 11.1 42.3C10.9 42.4 10.8 42.5 10.6 42.5C10.5 42.5 10.4 42.4 10.3 42.3C10.2 42.2 10.1 42.2 10.1 42.3C9.9 42.4 9.8 42.5 9.6 42.6C9.5 42.6 9.4 42.6 9.2 42.6C9 42.6 8.8 42.7 8.6 42.7C8.5 42.7 8.4 42.7 8.2 42.7C8.4 42.6 8.6 42.5 8.8 42.4C9 42.3 9.1 42.4 9.3 42.3C9.4 42.3 9.4 42.2 9.5 42.2C9.4 42.1 9.4 41.9 9.2 41.9C9 41.9 8.9 41.8 8.7 41.8C8.7 41.7 8.7 41.6 8.7 41.5C8.7 41.4 8.7 41.3 8.7 41.3C8.7 41.1 8.3 41.3 8.4 41C8.2 41.1 8.1 40.9 8 40.8L7.9 40.7C7.8 40.4 7.5 40.2 7.3 40C7.2 39.9 7.2 39.8 7.2 39.7C7.2 39.5 7.3 39.4 7.6 39.4ZM5.2 42.4C5 42.2 4.8 42.1 4.7 41.9C4.5 41.7 4.4 41.6 4.3 41.4C4.2 41.3 4.2 41.2 4.2 41.1C4.2 40.8 4.1 40.5 4.3 40.3C4.3 40.3 4.3 40.3 4.4 40.2L4.5 40.1C4.7 39.8 4.9 39.6 5.3 39.6C5.6 39.6 5.8 39.6 6 39.8C6.1 39.9 6.2 39.9 6.3 39.9C6.5 40 6.6 40.1 6.5 40.3C6.4 40.5 6.5 40.6 6.7 40.7C6.8 40.8 7 40.9 7 41C7.1 41.1 7.1 41.2 7 41.3C7 41.6 6.6 41.9 6.4 41.8C6.3 41.9 6.2 42 6.2 42.1C6.2 42.2 6.2 42.3 6.3 42.4C6.3 42.5 6.3 42.6 6.3 42.7C6.3 42.7 6.1 42.8 6.1 42.7C5.8 42.7 5.8 42.6 5.7 42.3C5.5 42.7 5.3 42.6 5.2 42.4ZM5.3 49.9C5.4 49.9 5.4 50.2 5.2 50.3C5 50.5 4.7 50.5 4.5 50.6C4.4 50.7 4.2 50.6 4 50.7C3.5 50.9 3.1 50.8 2.6 50.7C2.4 50.7 2.3 50.7 2.1 50.6C1.9 50.6 1.8 50.5 1.6 50.4L1.5 50.3C1.2 50.3 1.1 50 1 49.8C0.9 49.6 0.9 49.3 0.9 49C0.9 48.9 1 48.7 1.1 48.6C1.5 48.1 1.9 47.6 2.5 47.3C2.6 47.3 2.7 47.2 2.7 47.2C3 47.2 3.1 47.1 3.3 47C3.4 47.1 3.4 47.2 3.5 47.3C3.8 47.4 3.8 47.4 3.7 47.7C3.7 47.8 3.7 47.9 3.8 47.9C3.9 47.9 4 47.8 4.1 47.8C4.1 47.9 4.1 48.1 4.1 48.2H4.9C4.9 48.3 4.8 48.4 4.8 48.4C4.8 48.5 4.7 48.6 4.8 48.6C4.9 48.6 5 48.7 5.1 48.6C5.2 48.6 5.2 48.5 5.3 48.5C5.4 48.7 5.3 48.8 5.2 48.9C5 49 5 49.2 5 49.4C5 49.5 5 49.6 5 49.6C5 49.8 5.2 49.8 5.3 49.9ZM8.5 48.8C8.4 48.8 8.3 48.9 8.3 48.9C8.1 48.9 7.9 48.8 7.7 48.8C7.7 48.6 7.7 48.3 7.7 48.1C7.7 48 7.7 47.9 7.5 47.9C7.1 47.9 6.8 48 6.4 48.2C6.2 48.1 6.3 47.9 6.5 47.8C6.6 47.8 6.6 47.7 6.7 47.7C6.7 47.6 6.7 47.6 6.7 47.5C6.7 47.5 6.6 47.4 6.5 47.5C6.3 47.5 6.1 47.6 5.9 47.7C5.9 47.6 5.9 47.5 5.9 47.4C5.9 47.3 5.9 47.3 5.9 47.2C5.6 47 5.7 46.8 5.8 46.6C5.8 46.5 5.9 46.5 5.9 46.4C5.7 46.4 5.5 46.4 5.3 46.4C5.2 46.4 5.1 46.4 5.1 46.3C5.1 46.2 5 46.1 4.9 45.9C5 45.8 5.1 45.7 5.3 45.6C5.4 45.5 5.4 45.5 5.5 45.4C5.9 45.2 6.3 45 6.7 44.8C7.3 44.5 7.9 44.5 8.5 44.3C9.1 44.1 9.7 44 10.3 43.8C10.5 43.7 10.8 43.8 11 43.7C11.3 43.5 11.7 43.6 12 43.5C12.2 43.5 12.4 43.6 12.4 43.7C12.4 44 12.6 44 12.8 44C12.9 44 12.9 44 13 44.1C13.1 44.1 13.1 44.2 13.2 44.2C13.3 44.3 13.4 44.4 13.4 44.5C13.4 44.6 13.3 44.7 13.2 44.7C13.1 44.8 13 44.9 12.9 45C12.7 45.2 12.5 45.4 12.2 45.6C12.1 45.7 12.1 45.8 11.9 46C11.8 45.9 11.8 45.9 11.7 45.8C11.6 45.8 11.6 45.9 11.5 45.9C11.3 46 11.2 46.1 11 46.2C11 46.2 10.9 46.3 10.9 46.4C10.7 46.6 10.4 46.8 10.1 47.1C10 47.2 9.9 47.3 9.8 47.3C9.5 47.4 9.5 47.6 9.4 47.9C9.4 48.1 9.3 48.3 9 48.2C8.9 48.2 8.9 48.3 8.8 48.3C8.9 48.7 8.7 48.7 8.5 48.8ZM12.4 51C12.2 51.5 11.9 51.3 11.5 51.4C11.2 51.4 11 51.7 10.8 51.9C10.6 52.1 10.3 52.4 10 52.3C9.9 52.3 9.8 52.2 9.8 52.2C9.7 52.2 9.6 52.2 9.5 52.2C9.3 52.2 9.2 52.1 9.1 52C8.8 51.8 8.7 51.3 8.8 51C9 50.2 9.9 49.3 10.7 49.1C10.8 49.1 11 49 11.1 49.1C11.3 49.2 11.3 49.4 11.4 49.6C11.5 49.8 11.7 49.9 11.8 49.9C11.9 49.9 11.9 49.8 12 49.8C12.2 49.8 12.2 50 12.3 50.1C12.5 50.4 12.5 50.7 12.4 51ZM17.2 45.9C17.1 46.1 17.1 46.4 16.9 46.6C16.7 46.8 16.7 47.1 16.5 47.4C16.4 47.5 16.4 47.6 16.3 47.7C16.1 48 15.9 48.3 15.7 48.6C15.5 48.8 15.4 49 15.1 49C15 49 14.9 49 14.9 49.2C14.9 49.3 14.7 49.5 14.5 49.5C14.3 49.5 14.3 49.4 14.2 49.3C14.2 49.1 14 49.1 13.8 49.2C13.8 49 13.2 48.7 13 48.7C12.9 48.6 12.9 48.3 12.6 48.4L12.5 48.2C12.5 48.1 12.6 47.9 12.5 47.8V47.7C12.6 47.5 12.7 47.3 13 47.2C13.3 46.9 13.5 46.6 13.8 46.4C13.9 46.3 13.9 46.3 14 46.2C14.3 46 14.4 45.6 14.8 45.6C15 45.6 15.2 45.6 15.3 45.6C15.7 45.6 16.1 45.6 16.5 45.6C16.6 45.6 16.8 45.6 16.9 45.6C17.2 45.5 17.3 45.7 17.2 45.9ZM64.1 41.1C64.2 41 64.3 40.9 64.4 40.8C64.6 40.7 64.7 40.6 64.6 40.4C64.5 40.2 64.6 40 64.8 40C64.9 40 65.1 40 65.1 39.9C65.3 39.7 65.6 39.7 65.8 39.7C66.2 39.7 66.4 39.9 66.6 40.2L66.7 40.3C66.7 40.3 66.7 40.3 66.8 40.4C67 40.7 66.9 41 66.9 41.2C66.9 41.3 66.9 41.4 66.8 41.5C66.7 41.7 66.5 41.9 66.4 42C66.2 42.2 66 42.3 65.9 42.5C65.7 42.7 65.6 42.9 65.4 42.6C65.4 42.9 65.3 43 65 43C64.9 43 64.8 43 64.8 43C64.8 42.9 64.8 42.8 64.8 42.7C64.8 42.6 64.9 42.5 64.9 42.4C64.9 42.3 64.8 42.2 64.7 42.1C64.5 42.1 64.1 41.8 64.1 41.6C64 41.3 64 41.1 64.1 41.1ZM59.9 42.1C60.1 42 60.1 41.8 60.1 41.7C60.1 41.6 60.1 41.6 60.1 41.5C60.2 41.3 60.4 41 60.5 40.8C60.6 40.7 60.6 40.5 60.7 40.4C60.9 40.2 61.1 40.1 61.1 39.8C61.3 39.7 61.5 39.5 61.8 39.4C61.9 39.3 62.1 39.3 62.2 39.3C62.6 39.3 63 39.4 63.4 39.4C63.6 39.4 63.7 39.6 63.8 39.8C63.8 39.9 63.7 40 63.7 40.1C63.5 40.3 63.2 40.4 63.1 40.8C63.1 40.8 63.1 40.9 63 40.9C62.9 41 62.8 41.2 62.6 41.1C62.7 41.4 62.3 41.2 62.3 41.4C62.3 41.5 62.3 41.6 62.3 41.6C62.3 41.7 62.3 41.8 62.3 41.9C62.1 41.9 62 42 61.8 42C61.6 42 61.6 42.2 61.5 42.3C61.6 42.3 61.6 42.4 61.7 42.4C61.9 42.4 62 42.4 62.2 42.5C62.4 42.6 62.6 42.7 62.8 42.8C62.7 42.8 62.5 42.8 62.4 42.8C62.2 42.8 62 42.7 61.8 42.7C61.7 42.7 61.5 42.7 61.4 42.7C61.2 42.6 61.1 42.5 60.9 42.4C60.8 42.3 60.7 42.3 60.6 42.4C60.5 42.5 60.4 42.6 60.3 42.6C60.1 42.6 59.9 42.5 59.8 42.4C59.8 42.3 59.8 42.1 59.9 42.1ZM58.5 48.5C58.2 48.4 58.2 48.7 58.1 48.8C57.9 48.8 57.3 49.1 57.3 49.3C57.1 49.2 56.9 49.2 56.9 49.4C56.9 49.6 56.8 49.6 56.6 49.6C56.4 49.6 56.1 49.4 56.2 49.3C56.2 49.1 56.1 49.1 56 49.1C55.7 49.1 55.6 48.9 55.4 48.7C55.2 48.4 55 48.1 54.8 47.8C54.7 47.7 54.6 47.6 54.6 47.5C54.5 47.2 54.4 46.9 54.2 46.7C54 46.5 54 46.2 53.9 46C53.8 45.8 53.9 45.6 54.2 45.6C54.3 45.6 54.5 45.6 54.6 45.6C55 45.6 55.4 45.6 55.8 45.6C56 45.6 56.2 45.6 56.3 45.6C56.7 45.7 56.9 46 57.1 46.2C57.2 46.3 57.2 46.3 57.3 46.4C57.6 46.7 57.8 47 58.1 47.2C58.4 47.3 58.5 47.5 58.6 47.7V47.8C58.5 47.9 58.6 48.1 58.6 48.2C58.6 48.3 58.5 48.5 58.5 48.5ZM62 52C61.8 52.2 61.6 52.2 61.4 52.1H61.2C61.1 52.3 61 52.3 60.8 52.3C60.6 52.3 60.5 52.3 60.5 52.1C60.3 51.9 60 51.7 59.8 51.5C59.6 51.3 59.4 51.3 59.2 51.5C59.2 51.5 59.1 51.5 59 51.5C58.8 51.3 58.6 51.2 58.6 50.8C58.7 50.5 58.5 50.1 58.8 49.8C58.9 49.8 58.9 49.8 59 49.9C59.2 50 59.3 50 59.4 49.8L59.5 49.7L59.6 49.6C59.6 49.5 59.7 49.4 59.7 49.3C60 49.1 60.4 49.2 60.7 49.4C60.8 49.5 61 49.6 61.2 49.6C61.5 49.6 61.5 49.8 61.7 50C61.8 50.1 61.8 50.3 61.9 50.4C62.3 50.7 62.4 51.5 62 52ZM65.3 46.6C65.4 46.8 65.5 47 65.2 47.2C65.2 47.2 65.2 47.3 65.2 47.4C65.2 47.5 65.2 47.6 65.2 47.7C65 47.6 64.8 47.6 64.6 47.5C64.5 47.5 64.4 47.5 64.4 47.5C64.4 47.6 64.4 47.6 64.4 47.7C64.4 47.8 64.5 47.8 64.6 47.8C64.8 47.9 64.8 48.1 64.7 48.2C64.4 48 64 47.9 63.6 47.9C63.5 47.9 63.4 48 63.4 48.1C63.4 48.3 63.4 48.6 63.4 48.8C63.2 48.8 63 48.9 62.8 48.9C62.8 48.9 62.7 48.8 62.6 48.8C62.4 48.7 62.2 48.7 62 48.5C62 48.4 61.9 48.4 61.8 48.4C61.5 48.4 61.5 48.3 61.4 48.1C61.3 47.8 61.2 47.6 61 47.5C60.9 47.4 60.8 47.4 60.7 47.3C60.4 47.1 60.1 46.8 59.9 46.6C59.9 46.5 59.9 46.4 59.8 46.4C59.6 46.3 59.5 46.2 59.3 46.1C59.2 46.1 59.2 46 59.1 46C59.1 46.1 59 46.1 58.9 46.2C58.8 46 58.7 45.9 58.6 45.8C58.4 45.6 58.2 45.4 57.9 45.2C57.8 45.1 57.7 45 57.6 44.9C57.5 44.8 57.4 44.7 57.4 44.7C57.4 44.6 57.5 44.5 57.6 44.4C57.7 44.3 57.7 44.3 57.8 44.3C57.9 44.3 57.9 44.2 58 44.2C58.2 44.2 58.4 44.1 58.4 43.9C58.4 43.7 58.7 43.6 58.8 43.7C59.1 43.8 59.5 43.7 59.8 43.9C60 44 60.3 44 60.5 44C61.1 44.2 61.7 44.3 62.3 44.5C62.9 44.7 63.6 44.7 64.1 45C64.5 45.2 64.9 45.4 65.3 45.6C65.4 45.6 65.4 45.7 65.5 45.8C65.6 45.9 65.8 46 65.9 46.1C65.8 46.3 65.8 46.4 65.7 46.5C65.7 46.6 65.6 46.6 65.5 46.6C65.3 46.6 65.1 46.6 64.9 46.6C65.3 46.4 65.3 46.5 65.3 46.6ZM69.9 50C69.8 50.2 69.7 50.5 69.4 50.5C69.4 50.5 69.3 50.5 69.3 50.6C69.2 50.7 69 50.7 68.8 50.8C68.7 50.8 68.5 50.9 68.3 50.9C67.8 51 67.4 51 66.9 50.9C66.8 50.8 66.6 50.9 66.4 50.8C66.1 50.7 65.9 50.7 65.7 50.5C65.6 50.4 65.5 50.1 65.6 50.1C65.7 50 65.9 50 66 50C66 49.9 66 49.8 66 49.8C65.9 49.6 66 49.4 65.8 49.3C65.6 49.2 65.6 49.1 65.7 48.9C65.8 48.9 65.8 49 65.9 49C66 49 66.1 49 66.2 49C66.2 49 66.2 48.9 66.2 48.8C66.2 48.7 66.1 48.7 66.1 48.6H66.9C66.9 48.5 66.9 48.3 66.9 48.2C67 48.2 67.1 48.3 67.2 48.3C67.3 48.3 67.4 48.3 67.3 48.1C67.2 47.8 67.2 47.7 67.5 47.7C67.6 47.6 67.6 47.5 67.7 47.4C67.9 47.5 68 47.6 68.2 47.7C68.3 47.7 68.4 47.8 68.4 47.8C69 48.1 69.4 48.6 69.8 49.1C69.9 49.2 70 49.4 70 49.5C70 49.4 70 49.7 69.9 50Z" fill="#BA1F36"/>
</svg>
